UbuntuSans-ExtraBoldItalic.ufo
<glyph name="ampersand" format="2">
  <advance width="673"/>
  <unicode hex="0026"/>
  <outline>
    <contour>
      <point x="234" y="-9" type="curve" smooth="yes"/>
      <point x="315" y="-9"/>
      <point x="388" y="13"/>
      <point x="451" y="56" type="curve"/>
      <point x="462" y="36"/>
      <point x="472" y="17"/>
      <point x="480" y="0" type="curve"/>
      <point x="631" y="0" type="line"/>
      <point x="608" y="48"/>
      <point x="582" y="98"/>
      <point x="547" y="147" type="curve"/>
      <point x="586" y="197"/>
      <point x="619" y="258"/>
      <point x="648" y="331" type="curve"/>
      <point x="517" y="348" type="line"/>
      <point x="503" y="308"/>
      <point x="488" y="274"/>
      <point x="471" y="247" type="curve"/>
      <point x="387" y="359" type="line"/>
      <point x="424" y="376" type="line" smooth="yes"/>
      <point x="520" y="419"/>
      <point x="567" y="503"/>
      <point x="567" y="569" type="curve" smooth="yes"/>
      <point x="567" y="644"/>
      <point x="509" y="709"/>
      <point x="393" y="709" type="curve" smooth="yes"/>
      <point x="254" y="709"/>
      <point x="168" y="625"/>
      <point x="168" y="517" type="curve" smooth="yes"/>
      <point x="168" y="476"/>
      <point x="180" y="432"/>
      <point x="207" y="388" type="curve"/>
      <point x="190" y="380" type="line" smooth="yes"/>
      <point x="74" y="328"/>
      <point x="25" y="257"/>
      <point x="25" y="157" type="curve" smooth="yes"/>
      <point x="25" y="73"/>
      <point x="92" y="-9"/>
    </contour>
    <contour>
      <point x="253" y="107" type="curve" smooth="yes"/>
      <point x="201" y="107"/>
      <point x="173" y="143"/>
      <point x="173" y="186" type="curve" smooth="yes"/>
      <point x="173" y="226"/>
      <point x="197" y="272"/>
      <point x="253" y="297" type="curve" smooth="yes"/>
      <point x="268" y="304" type="line"/>
      <point x="385" y="150" type="line"/>
      <point x="334" y="115"/>
      <point x="288" y="107"/>
    </contour>
    <contour>
      <point x="326" y="442" type="line"/>
      <point x="309" y="471"/>
      <point x="300" y="494"/>
      <point x="300" y="513" type="curve" smooth="yes"/>
      <point x="300" y="573"/>
      <point x="341" y="603"/>
      <point x="381" y="603" type="curve" smooth="yes"/>
      <point x="421" y="603"/>
      <point x="439" y="580"/>
      <point x="439" y="555" type="curve" smooth="yes"/>
      <point x="439" y="508"/>
      <point x="402" y="476"/>
      <point x="338" y="447" type="curve" smooth="yes"/>
    </contour>
  </outline>
</glyph>
<glyph name="parenleft" format="2">
  <advance width="366"/>
  <unicode hex="0028"/>
  <outline>
    <contour>
      <point x="129" y="-185" type="curve"/>
      <point x="239" y="-118" type="line"/>
      <point x="204" y="-34"/>
      <point x="189" y="48"/>
      <point x="189" y="131" type="curve" smooth="yes"/>
      <point x="189" y="347"/>
      <point x="295" y="552"/>
      <point x="446" y="716" type="curve"/>
      <point x="350" y="783" type="line"/>
      <point x="168" y="618"/>
      <point x="43" y="374"/>
      <point x="43" y="135" type="curve" smooth="yes"/>
      <point x="43" y="23"/>
      <point x="69" y="-85"/>
    </contour>
  </outline>
</glyph>
<glyph name="comma" format="2">
  <advance width="261"/>
  <unicode hex="002C"/>
  <outline>
    <contour>
      <point x="44" y="-163" type="line"/>
      <point x="121" y="-67"/>
      <point x="182" y="36"/>
      <point x="186" y="152" type="curve"/>
      <point x="30" y="152" type="line"/>
      <point x="23" y="48"/>
      <point x="-14" y="-46"/>
      <point x="-65" y="-134" type="curve"/>
    </contour>
  </outline>
</glyph>
<glyph name="zero" format="2">
  <advance width="564"/>
  <unicode hex="0030"/>
  <outline>
    <contour>
      <point x="213" y="-14" type="curve" smooth="yes"/>
      <point x="420" y="-14"/>
      <point x="561" y="200"/>
      <point x="561" y="504" type="curve" smooth="yes"/>
      <point x="561" y="607"/>
      <point x="513" y="709"/>
      <point x="382" y="709" type="curve" smooth="yes"/>
      <point x="175" y="709"/>
      <point x="34" y="495"/>
      <point x="34" y="191" type="curve" smooth="yes"/>
      <point x="34" y="88"/>
      <point x="82" y="-14"/>
    </contour>
    <contour>
      <point x="236" y="114" type="curve" smooth="yes"/>
      <point x="192" y="114"/>
      <point x="171" y="143"/>
      <point x="171" y="212" type="curve" smooth="yes"/>
      <point x="171" y="332"/>
      <point x="229" y="582"/>
      <point x="361" y="582" type="curve" smooth="yes"/>
      <point x="404" y="582"/>
      <point x="424" y="551"/>
      <point x="424" y="483" type="curve" smooth="yes"/>
      <point x="424" y="363"/>
      <point x="366" y="114"/>
    </contour>
  </outline>
</glyph>
<glyph name="three" format="2">
  <advance width="564"/>
  <unicode hex="0033"/>
  <outline>
    <contour>
      <point x="198" y="-14" type="curve" smooth="yes"/>
      <point x="411" y="-14"/>
      <point x="500" y="107"/>
      <point x="500" y="216" type="curve" smooth="yes"/>
      <point x="500" y="281"/>
      <point x="468" y="341"/>
      <point x="412" y="368" type="curve"/>
      <point x="501" y="400"/>
      <point x="546" y="469"/>
      <point x="546" y="539" type="curve" smooth="yes"/>
      <point x="546" y="624"/>
      <point x="476" y="709"/>
      <point x="334" y="709" type="curve" smooth="yes"/>
      <point x="259" y="709"/>
      <point x="190" y="689"/>
      <point x="125" y="652" type="curve"/>
      <point x="163" y="540" type="line"/>
      <point x="216" y="568"/>
      <point x="268" y="583"/>
      <point x="309" y="583" type="curve" smooth="yes"/>
      <point x="361" y="583"/>
      <point x="396" y="562"/>
      <point x="396" y="515" type="curve" smooth="yes"/>
      <point x="396" y="441"/>
      <point x="322" y="423"/>
      <point x="266" y="423" type="curve" smooth="yes"/>
      <point x="194" y="423" type="line"/>
      <point x="165" y="305" type="line"/>
      <point x="229" y="305" type="line" smooth="yes"/>
      <point x="304" y="305"/>
      <point x="352" y="277"/>
      <point x="352" y="222" type="curve" smooth="yes"/>
      <point x="352" y="137"/>
      <point x="283" y="106"/>
      <point x="207" y="106" type="curve" smooth="yes"/>
      <point x="147" y="106"/>
      <point x="86" y="124"/>
      <point x="47" y="151" type="curve"/>
      <point x="-7" y="33" type="line"/>
      <point x="54" y="2"/>
      <point x="122" y="-14"/>
    </contour>
  </outline>
</glyph>
<glyph name="six" format="2">
  <advance width="564"/>
  <unicode hex="0036"/>
  <outline>
    <contour>
      <point x="263" y="-14" type="curve" smooth="yes"/>
      <point x="405" y="-14"/>
      <point x="526" y="81"/>
      <point x="526" y="253" type="curve" smooth="yes"/>
      <point x="526" y="377"/>
      <point x="446" y="439"/>
      <point x="347" y="439" type="curve" smooth="yes"/>
      <point x="307" y="439"/>
      <point x="257" y="431"/>
      <point x="222" y="412" type="curve"/>
      <point x="281" y="549"/>
      <point x="404" y="576"/>
      <point x="569" y="581" type="curve"/>
      <point x="587" y="699" type="line"/>
      <point x="282" y="719"/>
      <point x="43" y="533"/>
      <point x="43" y="230" type="curve" smooth="yes"/>
      <point x="43" y="71"/>
      <point x="139" y="-14"/>
    </contour>
    <contour>
      <point x="275" y="110" type="curve" smooth="yes"/>
      <point x="214" y="110"/>
      <point x="185" y="163"/>
      <point x="185" y="227" type="curve" smooth="yes"/>
      <point x="185" y="254"/>
      <point x="189" y="280"/>
      <point x="198" y="305" type="curve"/>
      <point x="227" y="317"/>
      <point x="263" y="327"/>
      <point x="296" y="327" type="curve" smooth="yes"/>
      <point x="344" y="327"/>
      <point x="384" y="307"/>
      <point x="384" y="243" type="curve" smooth="yes"/>
      <point x="384" y="159"/>
      <point x="339" y="110"/>
    </contour>
  </outline>
</glyph>
<glyph name="greater" format="2">
  <advance width="564"/>
  <unicode hex="003E"/>
  <outline>
    <contour>
      <point x="16" y="56" type="line"/>
      <point x="490" y="237" type="line"/>
      <point x="517" y="354" type="line"/>
      <point x="131" y="542" type="line"/>
      <point x="68" y="432" type="line"/>
      <point x="352" y="301" type="line"/>
      <point x="6" y="181" type="line"/>
    </contour>
  </outline>
</glyph>
<glyph name="A" format="2">
  <advance width="724"/>
  <unicode hex="0041"/>
  <anchor x="302" y="0" name="bottom"/>
  <anchor x="531" y="10" name="ogonek"/>
  <anchor x="457" y="687" name="top"/>
  <outline>
    <contour>
      <point x="-40" y="0" type="curve"/>
      <point x="123" y="0" type="line"/>
      <point x="150" y="52"/>
      <point x="180" y="102"/>
      <point x="207" y="151" type="curve"/>
      <point x="467" y="151" type="line"/>
      <point x="471" y="102"/>
      <point x="474" y="52"/>
      <point x="477" y="0" type="curve"/>
      <point x="634" y="0" type="line"/>
      <point x="610" y="214"/>
      <point x="577" y="500"/>
      <point x="534" y="693" type="curve"/>
      <point x="395" y="693" type="line"/>
      <point x="256" y="501"/>
      <point x="133" y="298"/>
    </contour>
    <contour>
      <point x="270" y="273" type="line"/>
      <point x="321" y="364"/>
      <point x="375" y="452"/>
      <point x="431" y="541" type="curve"/>
      <point x="444" y="449"/>
      <point x="450" y="354"/>
      <point x="457" y="273" type="curve"/>
    </contour>
  </outline>
</glyph>
<glyph name="E" format="2">
  <advance width="604"/>
  <unicode hex="0045"/>
  <anchor x="249" y="0" name="bottom"/>
  <anchor x="423" y="10" name="ogonek"/>
  <anchor x="403" y="687" name="top"/>
  <anchor x="63" y="693" name="topleft"/>
  <outline>
    <contour>
      <point x="20" y="0" type="line"/>
      <point x="495" y="0" type="line"/>
      <point x="527" y="129" type="line"/>
      <point x="207" y="129" type="line"/>
      <point x="247" y="299" type="line"/>
      <point x="509" y="299" type="line"/>
      <point x="540" y="425" type="line"/>
      <point x="278" y="425" type="line"/>
      <point x="310" y="565" type="line"/>
      <point x="607" y="565" type="line"/>
      <point x="639" y="693" type="line"/>
      <point x="186" y="693" type="line"/>
    </contour>
  </outline>
</glyph>
<glyph name="F" format="2">
  <advance width="585"/>
  <unicode hex="0046"/>
  <outline>
    <contour>
      <point x="20" y="0" type="line"/>
      <point x="175" y="0" type="line"/>
      <point x="244" y="287" type="line"/>
      <point x="503" y="287" type="line"/>
      <point x="534" y="416" type="line"/>
      <point x="275" y="416" type="line"/>
      <point x="310" y="564" type="line"/>
      <point x="603" y="564" type="line"/>
      <point x="635" y="693" type="line"/>
      <point x="186" y="693" type="line"/>
    </contour>
  </outline>
</glyph>
<glyph name="M" format="2">
  <advance width="888"/>
  <unicode hex="004D"/>
  <outline>
    <contour>
      <point x="0" y="0" type="curve"/>
      <point x="151" y="0" type="line"/>
      <point x="187" y="135"/>
      <point x="228" y="299"/>
      <point x="280" y="460" type="curve"/>
      <point x="302" y="347"/>
      <point x="329" y="168"/>
      <point x="342" y="88" type="curve"/>
      <point x="456" y="88" type="line"/>
      <point x="515" y="177"/>
      <point x="623" y="351"/>
      <point x="692" y="460" type="curve"/>
      <point x="665" y="299"/>
      <point x="632" y="135"/>
      <point x="604" y="0" type="curve"/>
      <point x="756" y="0" type="line"/>
      <point x="799" y="219"/>
      <point x="844" y="510"/>
      <point x="863" y="693" type="curve"/>
      <point x="725" y="693" type="line"/>
      <point x="659" y="605"/>
      <point x="529" y="410"/>
      <point x="438" y="271" type="curve"/>
      <point x="414" y="411"/>
      <point x="377" y="621"/>
      <point x="361" y="693" type="curve"/>
      <point x="221" y="693" type="line"/>
      <point x="152" y="511"/>
      <point x="61" y="219"/>
    </contour>
  </outline>
</glyph>
<glyph name="N" format="2">
  <advance width="752"/>
  <unicode hex="004E"/>
  <anchor x="343" y="0" name="bottom"/>
  <anchor x="477" y="687" name="top"/>
  <outline>
    <contour>
      <point x="20" y="0" type="line"/>
      <point x="173" y="0" type="line"/>
      <point x="283" y="459" type="line"/>
      <point x="362" y="320"/>
      <point x="432" y="157"/>
      <point x="488" y="0" type="curve"/>
      <point x="605" y="0" type="line"/>
      <point x="772" y="693" type="line"/>
      <point x="617" y="693" type="line"/>
      <point x="518" y="276" type="line"/>
      <point x="451" y="431"/>
      <point x="366" y="600"/>
      <point x="305" y="693" type="curve"/>
      <point x="186" y="693" type="line"/>
    </contour>
  </outline>
</glyph>
<glyph name="P" format="2">
  <advance width="650"/>
  <unicode hex="0050"/>
  <outline>
    <contour>
      <point x="21" y="0" type="line"/>
      <point x="176" y="0" type="line"/>
      <point x="232" y="232" type="line"/>
      <point x="271" y="232" type="line" smooth="yes"/>
      <point x="486" y="232"/>
      <point x="650" y="302"/>
      <point x="650" y="503" type="curve" smooth="yes"/>
      <point x="650" y="627"/>
      <point x="546" y="701"/>
      <point x="378" y="701" type="curve" smooth="yes"/>
      <point x="321" y="701"/>
      <point x="256" y="696"/>
      <point x="184" y="683" type="curve"/>
    </contour>
    <contour>
      <point x="264" y="363" type="line"/>
      <point x="312" y="567" type="line"/>
      <point x="328" y="568"/>
      <point x="342" y="570"/>
      <point x="365" y="570" type="curve" smooth="yes"/>
      <point x="445" y="570"/>
      <point x="490" y="547"/>
      <point x="490" y="487" type="curve" smooth="yes"/>
      <point x="490" y="396"/>
      <point x="415" y="363"/>
      <point x="303" y="363" type="curve" smooth="yes"/>
    </contour>
  </outline>
</glyph>
<glyph name="Q" format="2">
  <advance width="767"/>
  <unicode hex="0051"/>
  <outline>
    <contour>
      <point x="555" y="-187" type="curve"/>
      <point x="601" y="-79" type="line"/>
      <point x="508" y="-74"/>
      <point x="424" y="-68"/>
      <point x="424" y="-9" type="curve" smooth="yes"/>
      <point x="424" y="-8"/>
      <point x="424" y="-7"/>
      <point x="424" y="-6" type="curve"/>
      <point x="624" y="34"/>
      <point x="739" y="234"/>
      <point x="739" y="418" type="curve" smooth="yes"/>
      <point x="739" y="599"/>
      <point x="624" y="709"/>
      <point x="461" y="709" type="curve" smooth="yes"/>
      <point x="216" y="709"/>
      <point x="68" y="484"/>
      <point x="68" y="277" type="curve" smooth="yes"/>
      <point x="68" y="121"/>
      <point x="150" y="20"/>
      <point x="277" y="-7" type="curve"/>
      <point x="277" y="-9"/>
      <point x="277" y="-12"/>
      <point x="277" y="-14" type="curve" smooth="yes"/>
      <point x="277" y="-118"/>
      <point x="345" y="-179"/>
    </contour>
    <contour>
      <point x="362" y="120" type="curve" smooth="yes"/>
      <point x="267" y="120"/>
      <point x="228" y="188"/>
      <point x="228" y="288" type="curve" smooth="yes"/>
      <point x="228" y="436"/>
      <point x="322" y="575"/>
      <point x="445" y="575" type="curve" smooth="yes"/>
      <point x="540" y="575"/>
      <point x="579" y="507"/>
      <point x="579" y="407" type="curve" smooth="yes"/>
      <point x="579" y="259"/>
      <point x="485" y="120"/>
    </contour>
  </outline>
</glyph>
<glyph name="R" format="2">
  <advance width="667"/>
  <unicode hex="0052"/>
  <anchor x="302" y="0" name="bottom"/>
  <anchor x="401" y="687" name="top"/>
  <outline>
    <contour>
      <point x="21" y="0" type="line"/>
      <point x="176" y="0" type="line"/>
      <point x="237" y="253" type="line"/>
      <point x="300" y="253" type="line"/>
      <point x="305" y="253"/>
      <point x="310" y="253"/>
      <point x="315" y="253" type="curve"/>
      <point x="353" y="188"/>
      <point x="384" y="91"/>
      <point x="414" y="0" type="curve"/>
      <point x="581" y="0" type="line"/>
      <point x="546" y="108"/>
      <point x="505" y="212"/>
      <point x="468" y="281" type="curve"/>
      <point x="612" y="326"/>
      <point x="647" y="415"/>
      <point x="647" y="502" type="curve" smooth="yes"/>
      <point x="647" y="610"/>
      <point x="562" y="701"/>
      <point x="382" y="701" type="curve" smooth="yes"/>
      <point x="327" y="701"/>
      <point x="256" y="696"/>
      <point x="184" y="683" type="curve"/>
    </contour>
    <contour>
      <point x="267" y="376" type="line"/>
      <point x="312" y="566" type="line"/>
      <point x="328" y="567"/>
      <point x="354" y="569"/>
      <point x="377" y="569" type="curve" smooth="yes"/>
      <point x="468" y="569"/>
      <point x="491" y="528"/>
      <point x="491" y="483" type="curve" smooth="yes"/>
      <point x="491" y="429"/>
      <point x="449" y="376"/>
      <point x="320" y="376" type="curve" smooth="yes"/>
    </contour>
  </outline>
</glyph>
<glyph name="S" format="2">
  <advance width="569"/>
  <unicode hex="0053"/>
  <anchor x="223" y="0" name="bottom"/>
  <anchor x="363" y="686" name="top"/>
  <outline>
    <contour>
      <point x="215" y="-14" type="curve" smooth="yes"/>
      <point x="385" y="-14"/>
      <point x="502" y="58"/>
      <point x="502" y="210" type="curve" smooth="yes"/>
      <point x="502" y="319"/>
      <point x="427" y="367"/>
      <point x="343" y="410" type="curve" smooth="yes"/>
      <point x="296" y="434"/>
      <point x="254" y="449"/>
      <point x="254" y="502" type="curve" smooth="yes"/>
      <point x="254" y="561"/>
      <point x="309" y="581"/>
      <point x="370" y="581" type="curve" smooth="yes"/>
      <point x="425" y="581"/>
      <point x="476" y="561"/>
      <point x="509" y="536" type="curve"/>
      <point x="574" y="651" type="line"/>
      <point x="534" y="678"/>
      <point x="458" y="709"/>
      <point x="372" y="709" type="curve" smooth="yes"/>
      <point x="186" y="709"/>
      <point x="94" y="616"/>
      <point x="94" y="493" type="curve" smooth="yes"/>
      <point x="94" y="398"/>
      <point x="150" y="348"/>
      <point x="223" y="305" type="curve"/>
      <point x="278" y="274"/>
      <point x="342" y="254"/>
      <point x="342" y="200" type="curve" smooth="yes"/>
      <point x="342" y="131"/>
      <point x="275" y="116"/>
      <point x="214" y="116" type="curve" smooth="yes"/>
      <point x="146" y="116"/>
      <point x="82" y="148"/>
      <point x="51" y="169" type="curve"/>
      <point x="-15" y="50" type="line"/>
      <point x="19" y="27"/>
      <point x="103" y="-14"/>
    </contour>
  </outline>
</glyph>
<glyph name="V" format="2">
  <advance width="698"/>
  <unicode hex="0056"/>
  <outline>
    <contour>
      <point x="213" y="0" type="curve"/>
      <point x="359" y="0" type="line"/>
      <point x="527" y="245"/>
      <point x="666" y="501"/>
      <point x="768" y="693" type="curve"/>
      <point x="602" y="693" type="line"/>
      <point x="522" y="525"/>
      <point x="408" y="322"/>
      <point x="326" y="184" type="curve"/>
      <point x="307" y="337"/>
      <point x="290" y="540"/>
      <point x="282" y="693" type="curve"/>
      <point x="115" y="693" type="line"/>
      <point x="134" y="494"/>
      <point x="170" y="227"/>
    </contour>
  </outline>
</glyph>
<glyph name="W" format="2">
  <advance width="946"/>
  <unicode hex="0057"/>
  <anchor x="397" y="0" name="bottom"/>
  <anchor x="565" y="687" name="top"/>
  <outline>
    <contour>
      <point x="120" y="0" type="curve"/>
      <point x="266" y="0" type="line"/>
      <point x="349" y="131"/>
      <point x="421" y="267"/>
      <point x="497" y="408" type="curve"/>
      <point x="508" y="264"/>
      <point x="521" y="147"/>
      <point x="542" y="0" type="curve"/>
      <point x="688" y="0" type="line"/>
      <point x="811" y="212"/>
      <point x="917" y="441"/>
      <point x="1021" y="693" type="curve"/>
      <point x="856" y="693" type="line"/>
      <point x="792" y="527"/>
      <point x="714" y="342"/>
      <point x="645" y="206" type="curve"/>
      <point x="632" y="331"/>
      <point x="617" y="510"/>
      <point x="612" y="619" type="curve"/>
      <point x="484" y="619" type="line"/>
      <point x="433" y="509"/>
      <point x="335" y="336"/>
      <point x="261" y="206" type="curve"/>
      <point x="255" y="307"/>
      <point x="262" y="509"/>
      <point x="273" y="693" type="curve"/>
      <point x="116" y="693" type="line"/>
      <point x="102" y="468"/>
      <point x="100" y="225"/>
    </contour>
  </outline>
</glyph>
<glyph name="Y" format="2">
  <advance width="662"/>
  <unicode hex="0059"/>
  <anchor x="265" y="0" name="bottom"/>
  <anchor x="403" y="687" name="top"/>
  <anchor x="63" y="693" name="topleft"/>
  <outline>
    <contour>
      <point x="189" y="0" type="line"/>
      <point x="345" y="0" type="line"/>
      <point x="411" y="274" type="line"/>
      <point x="534" y="416"/>
      <point x="625" y="535"/>
      <point x="737" y="693" type="curve"/>
      <point x="565" y="693" type="line"/>
      <point x="496" y="589"/>
      <point x="436" y="507"/>
      <point x="358" y="408" type="curve"/>
      <point x="327" y="507"/>
      <point x="302" y="597"/>
      <point x="281" y="693" type="curve"/>
      <point x="115" y="693" type="line"/>
      <point x="155" y="545"/>
      <point x="199" y="415"/>
      <point x="255" y="274" type="curve"/>
    </contour>
  </outline>
</glyph>
<glyph name="bracketleft" format="2">
  <advance width="383"/>
  <unicode hex="005B"/>
  <outline>
    <contour>
      <point x="-25" y="-185" type="line"/>
      <point x="245" y="-185" type="line"/>
      <point x="274" y="-66" type="line"/>
      <point x="145" y="-66" type="line"/>
      <point x="320" y="664" type="line"/>
      <point x="449" y="664" type="line"/>
      <point x="478" y="783" type="line"/>
      <point x="207" y="783" type="line"/>
    </contour>
  </outline>
</glyph>
<glyph name="h" format="2">
  <advance width="577"/>
  <unicode hex="0068"/>
  <anchor x="165" y="0" name="bottom"/>
  <anchor x="258" y="388" name="center"/>
  <anchor x="291" y="776" name="top"/>
  <outline>
    <contour>
      <point x="15" y="0" type="line"/>
      <point x="164" y="0" type="line"/>
      <point x="261" y="406" type="line"/>
      <point x="280" y="410"/>
      <point x="299" y="413"/>
      <point x="320" y="413" type="curve" smooth="yes"/>
      <point x="371" y="413"/>
      <point x="385" y="385"/>
      <point x="385" y="350" type="curve" smooth="yes"/>
      <point x="385" y="327"/>
      <point x="379" y="301"/>
      <point x="374" y="278" type="curve" smooth="yes"/>
      <point x="308" y="0" type="line"/>
      <point x="457" y="0" type="line"/>
      <point x="525" y="284" type="line" smooth="yes"/>
      <point x="532" y="313"/>
      <point x="535" y="340"/>
      <point x="535" y="367" type="curve" smooth="yes"/>
      <point x="535" y="464"/>
      <point x="484" y="535"/>
      <point x="370" y="535" type="curve" smooth="yes"/>
      <point x="343" y="535"/>
      <point x="316" y="530"/>
      <point x="289" y="525" type="curve"/>
      <point x="350" y="776" type="line"/>
      <point x="195" y="752" type="line"/>
    </contour>
  </outline>
</glyph>
<glyph name="n" format="2">
  <advance width="577"/>
  <unicode hex="006E"/>
  <anchor x="239" y="0" name="bottom"/>
  <anchor x="338" y="526" name="top"/>
  <outline>
    <contour>
      <point x="15" y="0" type="line"/>
      <point x="164" y="0" type="line"/>
      <point x="261" y="407" type="line"/>
      <point x="281" y="411"/>
      <point x="301" y="413"/>
      <point x="320" y="413" type="curve" smooth="yes"/>
      <point x="400" y="413"/>
      <point x="390" y="347"/>
      <point x="374" y="278" type="curve" smooth="yes"/>
      <point x="308" y="0" type="line"/>
      <point x="457" y="0" type="line"/>
      <point x="525" y="284" type="line"/>
      <point x="564" y="441"/>
      <point x="504" y="538"/>
      <point x="348" y="538" type="curve" smooth="yes"/>
      <point x="242" y="538"/>
      <point x="182" y="516"/>
      <point x="136" y="502" type="curve"/>
    </contour>
  </outline>
</glyph>
<glyph name="s" format="2">
  <advance width="493"/>
  <unicode hex="0073"/>
  <anchor x="212" y="0" name="bottom"/>
  <anchor x="310" y="526" name="top"/>
  <outline>
    <contour>
      <point x="187" y="-14" type="curve" smooth="yes"/>
      <point x="355" y="-14"/>
      <point x="425" y="73"/>
      <point x="425" y="158" type="curve" smooth="yes"/>
      <point x="425" y="242"/>
      <point x="392" y="272"/>
      <point x="289" y="322" type="curve"/>
      <point x="252" y="341"/>
      <point x="230" y="349"/>
      <point x="230" y="376" type="curve" smooth="yes"/>
      <point x="230" y="416"/>
      <point x="272" y="422"/>
      <point x="308" y="422" type="curve" smooth="yes"/>
      <point x="351" y="422"/>
      <point x="399" y="406"/>
      <point x="427" y="391" type="curve"/>
      <point x="478" y="502" type="line"/>
      <point x="443" y="521"/>
      <point x="385" y="540"/>
      <point x="314" y="540" type="curve" smooth="yes"/>
      <point x="163" y="540"/>
      <point x="81" y="473"/>
      <point x="81" y="365" type="curve" smooth="yes"/>
      <point x="81" y="283"/>
      <point x="135" y="247"/>
      <point x="202" y="218" type="curve" smooth="yes"/>
      <point x="260" y="192"/>
      <point x="275" y="181"/>
      <point x="275" y="152" type="curve" smooth="yes"/>
      <point x="275" y="129"/>
      <point x="254" y="106"/>
      <point x="186" y="106" type="curve" smooth="yes"/>
      <point x="118" y="106"/>
      <point x="69" y="133"/>
      <point x="46" y="146" type="curve"/>
      <point x="-5" y="32" type="line"/>
      <point x="20" y="18"/>
      <point x="82" y="-14"/>
    </contour>
  </outline>
</glyph>
<glyph name="braceleft" format="2">
  <advance width="381"/>
  <unicode hex="007B"/>
  <outline>
    <contour>
      <point x="269" y="-185" type="curve"/>
      <point x="298" y="-66" type="line"/>
      <point x="206" y="-66"/>
      <point x="204" y="-36"/>
      <point x="217" y="16" type="curve" smooth="yes"/>
      <point x="248" y="149" type="line" smooth="yes"/>
      <point x="262" y="212"/>
      <point x="266" y="267"/>
      <point x="195" y="299" type="curve"/>
      <point x="283" y="331"/>
      <point x="305" y="380"/>
      <point x="321" y="449" type="curve" smooth="yes"/>
      <point x="352" y="582" type="line" smooth="yes"/>
      <point x="364" y="635"/>
      <point x="383" y="664"/>
      <point x="473" y="664" type="curve"/>
      <point x="502" y="783" type="line"/>
      <point x="313" y="783"/>
      <point x="247" y="724"/>
      <point x="217" y="603" type="curve"/>
      <point x="181" y="452" type="line" smooth="yes"/>
      <point x="168" y="397"/>
      <point x="137" y="358"/>
      <point x="54" y="358" type="curve"/>
      <point x="25" y="240" type="line"/>
      <point x="101" y="240"/>
      <point x="121" y="210"/>
      <point x="108" y="146" type="curve"/>
      <point x="79" y="22" type="line" smooth="yes"/>
      <point x="47" y="-121"/>
      <point x="84" y="-185"/>
    </contour>
  </outline>
</glyph>
<glyph name="braceright" format="2">
  <advance width="381"/>
  <unicode hex="007D"/>
  <outline>
    <contour>
      <point x="-104" y="-185" type="line"/>
      <point x="85" y="-185"/>
      <point x="151" y="-126"/>
      <point x="181" y="-5" type="curve"/>
      <point x="217" y="146" type="line" smooth="yes"/>
      <point x="230" y="201"/>
      <point x="261" y="240"/>
      <point x="344" y="240" type="curve"/>
      <point x="373" y="358" type="line"/>
      <point x="297" y="358"/>
      <point x="277" y="388"/>
      <point x="290" y="452" type="curve"/>
      <point x="319" y="576" type="line" smooth="yes"/>
      <point x="352" y="724"/>
      <point x="313" y="783"/>
      <point x="129" y="783" type="curve"/>
      <point x="100" y="664" type="line"/>
      <point x="186" y="664"/>
      <point x="197" y="646"/>
      <point x="181" y="582" type="curve" smooth="yes"/>
      <point x="150" y="449" type="line" smooth="yes"/>
      <point x="136" y="386"/>
      <point x="132" y="331"/>
      <point x="203" y="299" type="curve"/>
      <point x="115" y="267"/>
      <point x="93" y="218"/>
      <point x="77" y="149" type="curve" smooth="yes"/>
      <point x="46" y="16" type="line"/>
      <point x="32" y="-38"/>
      <point x="16" y="-66"/>
      <point x="-75" y="-66" type="curve"/>
    </contour>
  </outline>
</glyph>
<glyph name="exclamdown" format="2">
  <advance width="305"/>
  <unicode hex="00A1"/>
  <outline>
    <contour>
      <point x="-33" y="-175" type="line"/>
      <point x="126" y="-175" type="line"/>
      <point x="169" y="4" type="line" smooth="yes"/>
      <point x="194" y="112"/>
      <point x="205" y="201"/>
      <point x="216" y="297" type="curve"/>
      <point x="102" y="297" type="line"/>
      <point x="66" y="201"/>
      <point x="37" y="112"/>
      <point x="10" y="4" type="curve"/>
    </contour>
    <contour>
      <point x="178" y="347" type="curve" smooth="yes"/>
      <point x="229" y="347"/>
      <point x="278" y="389"/>
      <point x="278" y="450" type="curve" smooth="yes"/>
      <point x="278" y="505"/>
      <point x="243" y="531"/>
      <point x="196" y="531" type="curve" smooth="yes"/>
      <point x="145" y="531"/>
      <point x="96" y="489"/>
      <point x="96" y="428" type="curve" smooth="yes"/>
      <point x="96" y="373"/>
      <point x="131" y="347"/>
    </contour>
  </outline>
</glyph>
<glyph name="currency" format="2">
  <advance width="564"/>
  <unicode hex="00A4"/>
  <outline>
    <contour>
      <point x="126" y="96" type="line"/>
      <point x="200" y="168" type="line"/>
      <point x="229" y="155"/>
      <point x="259" y="150"/>
      <point x="292" y="150" type="curve" smooth="yes"/>
      <point x="327" y="150"/>
      <point x="355" y="155"/>
      <point x="383" y="168" type="curve"/>
      <point x="457" y="96" type="line"/>
      <point x="551" y="188" type="line"/>
      <point x="479" y="257" type="line"/>
      <point x="493" y="283"/>
      <point x="500" y="313"/>
      <point x="500" y="347" type="curve" smooth="yes"/>
      <point x="500" y="381"/>
      <point x="493" y="411"/>
      <point x="479" y="437" type="curve"/>
      <point x="551" y="506" type="line"/>
      <point x="458" y="597" type="line"/>
      <point x="384" y="526" type="line"/>
      <point x="355" y="539"/>
      <point x="325" y="544"/>
      <point x="292" y="544" type="curve" smooth="yes"/>
      <point x="257" y="544"/>
      <point x="229" y="539"/>
      <point x="201" y="526" type="curve"/>
      <point x="127" y="598" type="line"/>
      <point x="33" y="506" type="line"/>
      <point x="105" y="437" type="line"/>
      <point x="91" y="411"/>
      <point x="84" y="381"/>
      <point x="84" y="347" type="curve" smooth="yes"/>
      <point x="84" y="313"/>
      <point x="91" y="283"/>
      <point x="105" y="257" type="curve"/>
      <point x="33" y="187" type="line"/>
    </contour>
    <contour>
      <point x="292" y="260" type="curve" smooth="yes"/>
      <point x="247" y="260"/>
      <point x="210" y="290"/>
      <point x="210" y="347" type="curve" smooth="yes"/>
      <point x="210" y="404"/>
      <point x="247" y="434"/>
      <point x="292" y="434" type="curve" smooth="yes"/>
      <point x="337" y="434"/>
      <point x="374" y="404"/>
      <point x="374" y="347" type="curve" smooth="yes"/>
      <point x="374" y="290"/>
      <point x="337" y="260"/>
    </contour>
  </outline>
</glyph>
<glyph name="ordfeminine" format="2">
  <advance width="482"/>
  <unicode hex="00AA"/>
  <outline>
    <contour>
      <point x="237" y="305" type="curve" smooth="yes"/>
      <point x="272" y="305"/>
      <point x="307" y="317"/>
      <point x="342" y="340" type="curve"/>
      <point x="346" y="330"/>
      <point x="351" y="319"/>
      <point x="355" y="309" type="curve"/>
      <point x="449" y="322" type="line"/>
      <point x="420" y="398"/>
      <point x="430" y="459"/>
      <point x="443" y="504" type="curve"/>
      <point x="487" y="690" type="line"/>
      <point x="440" y="703"/>
      <point x="398" y="708"/>
      <point x="359" y="708" type="curve" smooth="yes"/>
      <point x="179" y="708"/>
      <point x="95" y="579"/>
      <point x="95" y="467" type="curve" smooth="yes"/>
      <point x="95" y="381"/>
      <point x="144" y="305"/>
    </contour>
    <contour>
      <point x="264" y="405" type="curve" smooth="yes"/>
      <point x="221" y="405"/>
      <point x="201" y="438"/>
      <point x="201" y="478" type="curve" smooth="yes"/>
      <point x="201" y="558"/>
      <point x="262" y="609"/>
      <point x="334" y="609" type="curve" smooth="yes"/>
      <point x="342" y="609"/>
      <point x="351" y="608"/>
      <point x="360" y="607" type="curve"/>
      <point x="333" y="503" type="line"/>
      <point x="328" y="483"/>
      <point x="320" y="450"/>
      <point x="324" y="427" type="curve"/>
      <point x="303" y="411"/>
      <point x="283" y="405"/>
    </contour>
  </outline>
</glyph>
<glyph name="logicalnot" format="2">
  <advance width="564"/>
  <unicode hex="00AC"/>
  <outline>
    <contour>
      <point x="316" y="51" type="line"/>
      <point x="452" y="51" type="line"/>
      <point x="539" y="410" type="line"/>
      <point x="69" y="410" type="line"/>
      <point x="39" y="285" type="line"/>
      <point x="373" y="285" type="line"/>
    </contour>
  </outline>
</glyph>
<glyph name="registered" format="2">
  <advance width="535"/>
  <unicode hex="00AE"/>
  <outline>
    <contour>
      <point x="332" y="280" type="curve" smooth="yes"/>
      <point x="457" y="280"/>
      <point x="574" y="370"/>
      <point x="574" y="527" type="curve" smooth="yes"/>
      <point x="574" y="683"/>
      <point x="458" y="773"/>
      <point x="332" y="773" type="curve" smooth="yes"/>
      <point x="205" y="773"/>
      <point x="89" y="683"/>
      <point x="89" y="527" type="curve" smooth="yes"/>
      <point x="89" y="370"/>
      <point x="206" y="280"/>
    </contour>
    <contour>
      <point x="332" y="352" type="curve" smooth="yes"/>
      <point x="233" y="352"/>
      <point x="165" y="422"/>
      <point x="165" y="527" type="curve" smooth="yes"/>
      <point x="165" y="633"/>
      <point x="234" y="703"/>
      <point x="332" y="703" type="curve" smooth="yes"/>
      <point x="430" y="703"/>
      <point x="498" y="632"/>
      <point x="498" y="527" type="curve" smooth="yes"/>
      <point x="498" y="421"/>
      <point x="429" y="352"/>
    </contour>
    <contour>
      <point x="241" y="416" type="line"/>
      <point x="316" y="416" type="line"/>
      <point x="316" y="489" type="line"/>
      <point x="327" y="489" type="line"/>
      <point x="330" y="489"/>
      <point x="332" y="489"/>
      <point x="334" y="489" type="curve"/>
      <point x="346" y="468"/>
      <point x="355" y="444"/>
      <point x="365" y="416" type="curve"/>
      <point x="444" y="416" type="line"/>
      <point x="433" y="452"/>
      <point x="417" y="485"/>
      <point x="400" y="510" type="curve"/>
      <point x="420" y="523"/>
      <point x="432" y="546"/>
      <point x="432" y="571" type="curve" smooth="yes"/>
      <point x="432" y="621"/>
      <point x="391" y="652"/>
      <point x="324" y="652" type="curve" smooth="yes"/>
      <point x="304" y="652"/>
      <point x="272" y="648"/>
      <point x="241" y="640" type="curve"/>
    </contour>
    <contour>
      <point x="316" y="548" type="line"/>
      <point x="316" y="585" type="line"/>
      <point x="320" y="586"/>
      <point x="324" y="587"/>
      <point x="331" y="587" type="curve" smooth="yes"/>
      <point x="346" y="587"/>
      <point x="357" y="581"/>
      <point x="357" y="567" type="curve" smooth="yes"/>
      <point x="357" y="554"/>
      <point x="345" y="548"/>
      <point x="329" y="548" type="curve" smooth="yes"/>
    </contour>
  </outline>
</glyph>
<glyph name="degree" format="2">
  <advance width="392"/>
  <unicode hex="00B0"/>
  <outline>
    <contour>
      <point x="266" y="471" type="curve" smooth="yes"/>
      <point x="352" y="471"/>
      <point x="427" y="530"/>
      <point x="427" y="626" type="curve" smooth="yes"/>
      <point x="427" y="722"/>
      <point x="352" y="781"/>
      <point x="266" y="781" type="curve" smooth="yes"/>
      <point x="180" y="781"/>
      <point x="105" y="722"/>
      <point x="105" y="626" type="curve" smooth="yes"/>
      <point x="105" y="530"/>
      <point x="180" y="471"/>
    </contour>
    <contour>
      <point x="266" y="569" type="curve" smooth="yes"/>
      <point x="238" y="569"/>
      <point x="211" y="591"/>
      <point x="211" y="626" type="curve" smooth="yes"/>
      <point x="211" y="661"/>
      <point x="238" y="683"/>
      <point x="266" y="683" type="curve" smooth="yes"/>
      <point x="294" y="683"/>
      <point x="321" y="661"/>
      <point x="321" y="626" type="curve" smooth="yes"/>
      <point x="321" y="591"/>
      <point x="294" y="569"/>
    </contour>
  </outline>
</glyph>
<glyph name="plusminus" format="2">
  <advance width="564"/>
  <unicode hex="00B1"/>
  <outline>
    <contour>
      <point x="187" y="160" type="line"/>
      <point x="323" y="160" type="line"/>
      <point x="364" y="330" type="line"/>
      <point x="531" y="330" type="line"/>
      <point x="561" y="455" type="line"/>
      <point x="394" y="455" type="line"/>
      <point x="435" y="625" type="line"/>
      <point x="299" y="625" type="line"/>
      <point x="258" y="455" type="line"/>
      <point x="91" y="455" type="line"/>
      <point x="61" y="330" type="line"/>
      <point x="228" y="330" type="line"/>
    </contour>
    <contour>
      <point x="-18" y="0" type="line"/>
      <point x="451" y="0" type="line"/>
      <point x="481" y="125" type="line"/>
      <point x="11" y="125" type="line"/>
    </contour>
  </outline>
</glyph>
<glyph name="micro" format="2">
  <advance width="642"/>
  <unicode hex="00B5"/>
  <outline>
    <contour>
      <point x="-20" y="-166" type="line"/>
      <point x="128" y="-166" type="line"/>
      <point x="147" y="-89" type="line" smooth="yes"/>
      <point x="159" y="-40"/>
      <point x="162" y="-16"/>
      <point x="162" y="15" type="curve"/>
      <point x="186" y="-4"/>
      <point x="215" y="-12"/>
      <point x="244" y="-12" type="curve" smooth="yes"/>
      <point x="291" y="-12"/>
      <point x="341" y="8"/>
      <point x="385" y="40" type="curve"/>
      <point x="404" y="12"/>
      <point x="442" y="-10"/>
      <point x="526" y="-11" type="curve"/>
      <point x="575" y="113" type="line"/>
      <point x="496" y="118"/>
      <point x="509" y="162"/>
      <point x="526" y="227" type="curve" smooth="yes"/>
      <point x="597" y="526" type="line"/>
      <point x="448" y="526" type="line"/>
      <point x="383" y="253" type="line" smooth="yes"/>
      <point x="376" y="224"/>
      <point x="370" y="184"/>
      <point x="367" y="151" type="curve"/>
      <point x="328" y="116"/>
      <point x="300" y="112"/>
      <point x="283" y="112" type="curve" smooth="yes"/>
      <point x="199" y="112"/>
      <point x="210" y="168"/>
      <point x="227" y="244" type="curve" smooth="yes"/>
      <point x="294" y="526" type="line"/>
      <point x="145" y="526" type="line"/>
    </contour>
  </outline>
</glyph>
<glyph name="AE" format="2">
  <advance width="987"/>
  <unicode hex="00C6"/>
  <anchor x="371" y="0" name="bottom"/>
  <anchor x="728" y="687" name="top"/>
  <outline>
    <contour>
      <point x="-55" y="0" type="curve"/>
      <point x="105" y="0" type="line"/>
      <point x="141" y="51"/>
      <point x="188" y="113"/>
      <point x="229" y="164" type="curve"/>
      <point x="453" y="164" type="line"/>
      <point x="413" y="0" type="line"/>
      <point x="878" y="0" type="line"/>
      <point x="910" y="131" type="line"/>
      <point x="591" y="131" type="line"/>
      <point x="631" y="298" type="line"/>
      <point x="892" y="298" type="line"/>
      <point x="923" y="426" type="line"/>
      <point x="662" y="426" type="line"/>
      <point x="694" y="562" type="line"/>
      <point x="990" y="562" type="line"/>
      <point x="1022" y="693" type="line"/>
      <point x="527" y="693" type="line"/>
      <point x="321" y="479"/>
      <point x="168" y="289"/>
    </contour>
    <contour>
      <point x="321" y="288" type="line"/>
      <point x="385" y="363"/>
      <point x="488" y="485"/>
      <point x="544" y="546" type="curve"/>
      <point x="482" y="288" type="line"/>
    </contour>
  </outline>
</glyph>
<glyph name="Ccedilla" format="2">
  <advance width="648"/>
  <unicode hex="00C7"/>
  <outline>
    <contour>
      <point x="236" y="-221" type="curve" smooth="yes"/>
      <point x="306" y="-221"/>
      <point x="374" y="-189"/>
      <point x="374" y="-111" type="curve" smooth="yes"/>
      <point x="374" y="-84"/>
      <point x="359" y="-59"/>
      <point x="330" y="-44" type="curve"/>
      <point x="335" y="-36"/>
      <point x="342" y="-25"/>
      <point x="350" y="-14" type="curve"/>
      <point x="445" y="-13"/>
      <point x="504" y="3"/>
      <point x="559" y="30" type="curve"/>
      <point x="542" y="157" type="line"/>
      <point x="495" y="136"/>
      <point x="442" y="121"/>
      <point x="378" y="121" type="curve" smooth="yes"/>
      <point x="282" y="121"/>
      <point x="229" y="173"/>
      <point x="229" y="289" type="curve" smooth="yes"/>
      <point x="229" y="444"/>
      <point x="324" y="576"/>
      <point x="476" y="576" type="curve" smooth="yes"/>
      <point x="527" y="576"/>
      <point x="566" y="567"/>
      <point x="622" y="538" type="curve"/>
      <point x="678" y="659" type="line"/>
      <point x="611" y="696"/>
      <point x="550" y="709"/>
      <point x="486" y="709" type="curve" smooth="yes"/>
      <point x="218" y="709"/>
      <point x="68" y="488"/>
      <point x="68" y="280" type="curve" smooth="yes"/>
      <point x="68" y="131"/>
      <point x="143" y="27"/>
      <point x="263" y="-4" type="curve"/>
      <point x="249" y="-24"/>
      <point x="236" y="-45"/>
      <point x="222" y="-65" type="curve"/>
      <point x="263" y="-80"/>
      <point x="272" y="-91"/>
      <point x="272" y="-106" type="curve" smooth="yes"/>
      <point x="272" y="-122"/>
      <point x="259" y="-130"/>
      <point x="232" y="-130" type="curve" smooth="yes"/>
      <point x="212" y="-130"/>
      <point x="188" y="-124"/>
      <point x="171" y="-116" type="curve"/>
      <point x="135" y="-198" type="line"/>
      <point x="163" y="-213"/>
      <point x="200" y="-221"/>
    </contour>
  </outline>
</glyph>
<glyph name="Eth" format="2">
  <advance width="728"/>
  <unicode hex="00D0"/>
  <outline>
    <contour>
      <point x="223" y="-9" type="curve" smooth="yes"/>
      <point x="518" y="-9"/>
      <point x="699" y="155"/>
      <point x="699" y="423" type="curve" smooth="yes"/>
      <point x="699" y="588"/>
      <point x="583" y="701"/>
      <point x="385" y="701" type="curve" smooth="yes"/>
      <point x="329" y="701"/>
      <point x="257" y="696"/>
      <point x="181" y="681" type="curve"/>
      <point x="117" y="417" type="line"/>
      <point x="36" y="417" type="line"/>
      <point x="10" y="302" type="line"/>
      <point x="90" y="302" type="line"/>
      <point x="20" y="12" type="line"/>
      <point x="88" y="-3"/>
      <point x="167" y="-9"/>
    </contour>
    <contour>
      <point x="256" y="123" type="curve" smooth="yes"/>
      <point x="229" y="123"/>
      <point x="217" y="124"/>
      <point x="202" y="125" type="curve"/>
      <point x="244" y="302" type="line"/>
      <point x="372" y="302" type="line"/>
      <point x="399" y="417" type="line"/>
      <point x="272" y="417" type="line"/>
      <point x="308" y="567" type="line"/>
      <point x="329" y="569"/>
      <point x="349" y="570"/>
      <point x="369" y="570" type="curve" smooth="yes"/>
      <point x="493" y="570"/>
      <point x="539" y="508"/>
      <point x="539" y="415" type="curve" smooth="yes"/>
      <point x="539" y="233"/>
      <point x="429" y="123"/>
    </contour>
  </outline>
</glyph>
<glyph name="Thorn" format="2">
  <advance width="660"/>
  <unicode hex="00DE"/>
  <outline>
    <contour>
      <point x="20" y="0" type="line"/>
      <point x="175" y="0" type="line"/>
      <point x="206" y="128" type="line"/>
      <point x="275" y="128" type="line" smooth="yes"/>
      <point x="540" y="128"/>
      <point x="639" y="279"/>
      <point x="639" y="402" type="curve" smooth="yes"/>
      <point x="639" y="503"/>
      <point x="566" y="596"/>
      <point x="399" y="596" type="curve" smooth="yes"/>
      <point x="384" y="596"/>
      <point x="337" y="596"/>
      <point x="318" y="593" type="curve"/>
      <point x="342" y="693" type="line"/>
      <point x="186" y="693" type="line"/>
    </contour>
    <contour>
      <point x="238" y="261" type="line"/>
      <point x="286" y="461" type="line"/>
      <point x="302" y="462"/>
      <point x="326" y="464"/>
      <point x="349" y="464" type="curve" smooth="yes"/>
      <point x="428" y="464"/>
      <point x="478" y="447"/>
      <point x="478" y="392" type="curve" smooth="yes"/>
      <point x="478" y="292"/>
      <point x="399" y="261"/>
      <point x="287" y="261" type="curve" smooth="yes"/>
    </contour>
  </outline>
</glyph>
<glyph name="divide" format="2">
  <advance width="564"/>
  <unicode hex="00F7"/>
  <outline>
    <contour>
      <point x="28" y="236" type="line"/>
      <point x="498" y="236" type="line"/>
      <point x="529" y="361" type="line"/>
      <point x="59" y="361" type="line"/>
    </contour>
    <contour>
      <point x="216" y="11" type="curve" smooth="yes"/>
      <point x="264" y="11"/>
      <point x="309" y="47"/>
      <point x="309" y="107" type="curve" smooth="yes"/>
      <point x="309" y="158"/>
      <point x="277" y="181"/>
      <point x="234" y="181" type="curve" smooth="yes"/>
      <point x="186" y="181"/>
      <point x="141" y="145"/>
      <point x="141" y="85" type="curve" smooth="yes"/>
      <point x="141" y="34"/>
      <point x="173" y="11"/>
    </contour>
    <contour>
      <point x="313" y="415" type="curve" smooth="yes"/>
      <point x="361" y="415"/>
      <point x="406" y="451"/>
      <point x="406" y="511" type="curve" smooth="yes"/>
      <point x="406" y="562"/>
      <point x="374" y="585"/>
      <point x="331" y="585" type="curve" smooth="yes"/>
      <point x="283" y="585"/>
      <point x="238" y="549"/>
      <point x="238" y="489" type="curve" smooth="yes"/>
      <point x="238" y="438"/>
      <point x="270" y="415"/>
    </contour>
  </outline>
</glyph>
<glyph name="aogonek" format="2">
  <advance width="598"/>
  <unicode hex="0105"/>
  <outline>
    <contour>
      <point x="386" y="-221" type="curve" smooth="yes"/>
      <point x="421" y="-221"/>
      <point x="454" y="-213"/>
      <point x="481" y="-201" type="curve"/>
      <point x="491" y="-102" type="line"/>
      <point x="482" y="-105"/>
      <point x="457" y="-113"/>
      <point x="438" y="-113" type="curve" smooth="yes"/>
      <point x="421" y="-113"/>
      <point x="413" y="-108"/>
      <point x="413" y="-97" type="curve" smooth="yes"/>
      <point x="413" y="-80"/>
      <point x="436" y="-50"/>
      <point x="523" y="10" type="curve"/>
      <point x="508" y="48"/>
      <point x="498" y="96"/>
      <point x="498" y="145" type="curve" smooth="yes"/>
      <point x="498" y="172"/>
      <point x="501" y="200"/>
      <point x="508" y="227" type="curve"/>
      <point x="573" y="499" type="line"/>
      <point x="496" y="536"/>
      <point x="393" y="538"/>
      <point x="368" y="538" type="curve" smooth="yes"/>
      <point x="184" y="538"/>
      <point x="45" y="389"/>
      <point x="45" y="204" type="curve" smooth="yes"/>
      <point x="45" y="85"/>
      <point x="97" y="-14"/>
      <point x="231" y="-14" type="curve" smooth="yes"/>
      <point x="287" y="-14"/>
      <point x="332" y="8"/>
      <point x="369" y="39" type="curve"/>
      <point x="374" y="24"/>
      <point x="379" y="11"/>
      <point x="386" y="-1" type="curve"/>
      <point x="302" y="-48"/>
      <point x="276" y="-96"/>
      <point x="276" y="-136" type="curve" smooth="yes"/>
      <point x="276" y="-199"/>
      <point x="329" y="-221"/>
    </contour>
    <contour>
      <point x="268" y="111" type="curve" smooth="yes"/>
      <point x="211" y="111"/>
      <point x="193" y="151"/>
      <point x="193" y="215" type="curve" smooth="yes"/>
      <point x="193" y="318"/>
      <point x="264" y="415"/>
      <point x="355" y="415" type="curve" smooth="yes"/>
      <point x="375" y="415"/>
      <point x="387" y="414"/>
      <point x="404" y="411" type="curve"/>
      <point x="365" y="253" type="line"/>
      <point x="358" y="222"/>
      <point x="352" y="183"/>
      <point x="349" y="150" type="curve"/>
      <point x="321" y="122"/>
      <point x="299" y="111"/>
    </contour>
  </outline>
</glyph>
<glyph name="Eogonek" format="2">
  <advance width="604"/>
  <unicode hex="0118"/>
  <outline>
    <contour>
      <point x="373" y="-221" type="curve" smooth="yes"/>
      <point x="408" y="-221"/>
      <point x="441" y="-213"/>
      <point x="468" y="-201" type="curve"/>
      <point x="478" y="-102" type="line"/>
      <point x="469" y="-105"/>
      <point x="444" y="-113"/>
      <point x="425" y="-113" type="curve" smooth="yes"/>
      <point x="408" y="-113"/>
      <point x="400" y="-108"/>
      <point x="400" y="-97" type="curve" smooth="yes"/>
      <point x="400" y="-80"/>
      <point x="425" y="-47"/>
      <point x="495" y="0" type="curve"/>
      <point x="527" y="129" type="line"/>
      <point x="207" y="129" type="line"/>
      <point x="247" y="299" type="line"/>
      <point x="509" y="299" type="line"/>
      <point x="540" y="425" type="line"/>
      <point x="278" y="425" type="line"/>
      <point x="310" y="565" type="line"/>
      <point x="607" y="565" type="line"/>
      <point x="639" y="693" type="line"/>
      <point x="186" y="693" type="line"/>
      <point x="20" y="0" type="line"/>
      <point x="375" y="0" type="line"/>
      <point x="289" y="-46"/>
      <point x="263" y="-96"/>
      <point x="263" y="-136" type="curve" smooth="yes"/>
      <point x="263" y="-199"/>
      <point x="316" y="-221"/>
    </contour>
  </outline>
</glyph>
<glyph name="hbar" format="2">
  <advance width="575"/>
  <unicode hex="0127"/>
  <outline>
    <contour>
      <point x="15" y="0" type="line"/>
      <point x="164" y="0" type="line"/>
      <point x="259" y="394" type="line"/>
      <point x="278" y="398"/>
      <point x="297" y="401"/>
      <point x="318" y="401" type="curve" smooth="yes"/>
      <point x="369" y="401"/>
      <point x="382" y="369"/>
      <point x="382" y="332" type="curve" smooth="yes"/>
      <point x="382" y="309"/>
      <point x="376" y="285"/>
      <point x="372" y="266" type="curve" smooth="yes"/>
      <point x="308" y="0" type="line"/>
      <point x="457" y="0" type="line"/>
      <point x="523" y="272" type="line" smooth="yes"/>
      <point x="530" y="299"/>
      <point x="533" y="326"/>
      <point x="533" y="350" type="curve" smooth="yes"/>
      <point x="533" y="449"/>
      <point x="477" y="523"/>
      <point x="368" y="523" type="curve" smooth="yes"/>
      <point x="341" y="523"/>
      <point x="314" y="518"/>
      <point x="287" y="513" type="curve"/>
      <point x="307" y="596" type="line"/>
      <point x="449" y="596" type="line"/>
      <point x="472" y="689" type="line"/>
      <point x="329" y="689" type="line"/>
      <point x="350" y="776" type="line"/>
      <point x="195" y="752" type="line"/>
      <point x="180" y="689" type="line"/>
      <point x="118" y="689" type="line"/>
      <point x="95" y="596" type="line"/>
      <point x="157" y="596" type="line"/>
    </contour>
  </outline>
</glyph>
<glyph name="Lslash" format="2">
  <advance width="574"/>
  <unicode hex="0141"/>
  <outline>
    <contour>
      <point x="20" y="0" type="line"/>
      <point x="482" y="0" type="line"/>
      <point x="514" y="132" type="line"/>
      <point x="207" y="132" type="line"/>
      <point x="256" y="335" type="line"/>
      <point x="443" y="419" type="line"/>
      <point x="418" y="520" type="line"/>
      <point x="286" y="460" type="line"/>
      <point x="342" y="693" type="line"/>
      <point x="186" y="693" type="line"/>
      <point x="111" y="382" type="line"/>
      <point x="-17" y="324" type="line"/>
      <point x="7" y="223" type="line"/>
      <point x="81" y="256" type="line"/>
    </contour>
  </outline>
</glyph>
<glyph name="OE" format="2">
  <advance width="996"/>
  <unicode hex="0152"/>
  <outline>
    <contour>
      <point x="383" y="-8" type="curve" smooth="yes"/>
      <point x="420" y="-8"/>
      <point x="457" y="-5"/>
      <point x="492" y="0" type="curve"/>
      <point x="887" y="0" type="line"/>
      <point x="919" y="131" type="line"/>
      <point x="611" y="131" type="line"/>
      <point x="651" y="298" type="line"/>
      <point x="901" y="298" type="line"/>
      <point x="932" y="426" type="line"/>
      <point x="682" y="426" type="line"/>
      <point x="714" y="562" type="line"/>
      <point x="999" y="562" type="line"/>
      <point x="1031" y="693" type="line"/>
      <point x="648" y="693" type="line"/>
      <point x="612" y="698"/>
      <point x="567" y="700"/>
      <point x="532" y="700" type="curve" smooth="yes"/>
      <point x="264" y="700"/>
      <point x="69" y="547"/>
      <point x="69" y="274" type="curve" smooth="yes"/>
      <point x="69" y="48"/>
      <point x="227" y="-8"/>
    </contour>
    <contour>
      <point x="391" y="121" type="curve" smooth="yes"/>
      <point x="276" y="121"/>
      <point x="227" y="196"/>
      <point x="227" y="285" type="curve" smooth="yes"/>
      <point x="227" y="414"/>
      <point x="315" y="570"/>
      <point x="504" y="570" type="curve" smooth="yes"/>
      <point x="523" y="570"/>
      <point x="543" y="569"/>
      <point x="564" y="566" type="curve"/>
      <point x="459" y="127" type="line"/>
      <point x="435" y="123"/>
      <point x="412" y="121"/>
    </contour>
  </outline>
</glyph>
<glyph name="oe" format="2">
  <advance width="879"/>
  <unicode hex="0153"/>
  <outline>
    <contour>
      <point x="253" y="-14" type="curve" smooth="yes"/>
      <point x="328" y="-14"/>
      <point x="393" y="21"/>
      <point x="433" y="68" type="curve"/>
      <point x="468" y="21"/>
      <point x="524" y="-14"/>
      <point x="608" y="-14" type="curve" smooth="yes"/>
      <point x="676" y="-14"/>
      <point x="737" y="0"/>
      <point x="774" y="15" type="curve"/>
      <point x="763" y="132" type="line"/>
      <point x="724" y="117"/>
      <point x="679" y="110"/>
      <point x="636" y="110" type="curve" smooth="yes"/>
      <point x="569" y="110"/>
      <point x="540" y="131"/>
      <point x="531" y="188" type="curve"/>
      <point x="531" y="188"/>
      <point x="531" y="188"/>
      <point x="531" y="188" type="curve"/>
      <point x="723" y="188"/>
      <point x="864" y="243"/>
      <point x="864" y="392" type="curve" smooth="yes"/>
      <point x="864" y="485"/>
      <point x="792" y="540"/>
      <point x="699" y="540" type="curve" smooth="yes"/>
      <point x="622" y="540"/>
      <point x="558" y="509"/>
      <point x="505" y="454" type="curve"/>
      <point x="472" y="511"/>
      <point x="411" y="540"/>
      <point x="343" y="540" type="curve" smooth="yes"/>
      <point x="151" y="540"/>
      <point x="45" y="360"/>
      <point x="45" y="200" type="curve" smooth="yes"/>
      <point x="45" y="76"/>
      <point x="114" y="-14"/>
    </contour>
    <contour>
      <point x="267" y="112" type="curve" smooth="yes"/>
      <point x="211" y="112"/>
      <point x="193" y="151"/>
      <point x="193" y="218" type="curve" smooth="yes"/>
      <point x="193" y="301"/>
      <point x="239" y="414"/>
      <point x="327" y="414" type="curve" smooth="yes"/>
      <point x="383" y="414"/>
      <point x="401" y="375"/>
      <point x="401" y="308" type="curve" smooth="yes"/>
      <point x="401" y="225"/>
      <point x="355" y="112"/>
    </contour>
    <contour>
      <point x="535" y="289" type="curve"/>
      <point x="551" y="369"/>
      <point x="607" y="422"/>
      <point x="675" y="422" type="curve" smooth="yes"/>
      <point x="710" y="422"/>
      <point x="729" y="405"/>
      <point x="729" y="374" type="curve" smooth="yes"/>
      <point x="729" y="338"/>
      <point x="700" y="294"/>
    </contour>
  </outline>
</glyph>
<glyph name="Scedilla" format="2">
  <advance width="569"/>
  <unicode hex="015E"/>
  <outline>
    <contour>
      <point x="122" y="-221" type="curve" smooth="yes"/>
      <point x="192" y="-221"/>
      <point x="260" y="-189"/>
      <point x="260" y="-111" type="curve" smooth="yes"/>
      <point x="260" y="-84"/>
      <point x="245" y="-59"/>
      <point x="216" y="-44" type="curve"/>
      <point x="223" y="-34"/>
      <point x="229" y="-23"/>
      <point x="236" y="-13" type="curve"/>
      <point x="393" y="-8"/>
      <point x="502" y="64"/>
      <point x="502" y="210" type="curve" smooth="yes"/>
      <point x="502" y="319"/>
      <point x="427" y="367"/>
      <point x="343" y="410" type="curve" smooth="yes"/>
      <point x="296" y="434"/>
      <point x="254" y="449"/>
      <point x="254" y="502" type="curve" smooth="yes"/>
      <point x="254" y="561"/>
      <point x="309" y="581"/>
      <point x="370" y="581" type="curve" smooth="yes"/>
      <point x="425" y="581"/>
      <point x="476" y="561"/>
      <point x="509" y="536" type="curve"/>
      <point x="574" y="651" type="line"/>
      <point x="534" y="678"/>
      <point x="458" y="709"/>
      <point x="372" y="709" type="curve" smooth="yes"/>
      <point x="186" y="709"/>
      <point x="94" y="616"/>
      <point x="94" y="493" type="curve" smooth="yes"/>
      <point x="94" y="398"/>
      <point x="150" y="348"/>
      <point x="223" y="305" type="curve"/>
      <point x="278" y="274"/>
      <point x="342" y="254"/>
      <point x="342" y="200" type="curve" smooth="yes"/>
      <point x="342" y="131"/>
      <point x="275" y="116"/>
      <point x="214" y="116" type="curve" smooth="yes"/>
      <point x="146" y="116"/>
      <point x="82" y="148"/>
      <point x="51" y="169" type="curve"/>
      <point x="-15" y="50" type="line"/>
      <point x="12" y="31"/>
      <point x="69" y="3"/>
      <point x="146" y="-9" type="curve"/>
      <point x="133" y="-28"/>
      <point x="117" y="-50"/>
      <point x="108" y="-65" type="curve"/>
      <point x="149" y="-81"/>
      <point x="158" y="-91"/>
      <point x="158" y="-106" type="curve" smooth="yes"/>
      <point x="158" y="-122"/>
      <point x="145" y="-130"/>
      <point x="118" y="-130" type="curve" smooth="yes"/>
      <point x="98" y="-130"/>
      <point x="74" y="-124"/>
      <point x="57" y="-116" type="curve"/>
      <point x="21" y="-198" type="line"/>
      <point x="49" y="-213"/>
      <point x="86" y="-221"/>
    </contour>
  </outline>
</glyph>
<glyph name="scedilla" format="2">
  <advance width="493"/>
  <unicode hex="015F"/>
  <outline>
    <contour>
      <point x="129" y="-221" type="curve" smooth="yes"/>
      <point x="199" y="-221"/>
      <point x="267" y="-189"/>
      <point x="267" y="-111" type="curve" smooth="yes"/>
      <point x="267" y="-84"/>
      <point x="252" y="-59"/>
      <point x="223" y="-44" type="curve"/>
      <point x="228" y="-35"/>
      <point x="237" y="-22"/>
      <point x="246" y="-10" type="curve"/>
      <point x="371" y="9"/>
      <point x="425" y="83"/>
      <point x="425" y="158" type="curve" smooth="yes"/>
      <point x="425" y="242"/>
      <point x="392" y="272"/>
      <point x="289" y="322" type="curve"/>
      <point x="252" y="341"/>
      <point x="230" y="349"/>
      <point x="230" y="376" type="curve" smooth="yes"/>
      <point x="230" y="416"/>
      <point x="272" y="422"/>
      <point x="308" y="422" type="curve" smooth="yes"/>
      <point x="351" y="422"/>
      <point x="399" y="406"/>
      <point x="427" y="391" type="curve"/>
      <point x="478" y="502" type="line"/>
      <point x="443" y="521"/>
      <point x="385" y="540"/>
      <point x="314" y="540" type="curve" smooth="yes"/>
      <point x="163" y="540"/>
      <point x="81" y="473"/>
      <point x="81" y="365" type="curve" smooth="yes"/>
      <point x="81" y="283"/>
      <point x="135" y="247"/>
      <point x="202" y="218" type="curve" smooth="yes"/>
      <point x="260" y="192"/>
      <point x="275" y="181"/>
      <point x="275" y="152" type="curve" smooth="yes"/>
      <point x="275" y="129"/>
      <point x="254" y="106"/>
      <point x="186" y="106" type="curve" smooth="yes"/>
      <point x="118" y="106"/>
      <point x="69" y="133"/>
      <point x="46" y="146" type="curve"/>
      <point x="-5" y="32" type="line"/>
      <point x="18" y="19"/>
      <point x="67" y="-5"/>
      <point x="150" y="-12" type="curve"/>
      <point x="138" y="-31"/>
      <point x="124" y="-50"/>
      <point x="115" y="-65" type="curve"/>
      <point x="156" y="-80"/>
      <point x="165" y="-91"/>
      <point x="165" y="-106" type="curve" smooth="yes"/>
      <point x="165" y="-122"/>
      <point x="152" y="-130"/>
      <point x="125" y="-130" type="curve" smooth="yes"/>
      <point x="105" y="-130"/>
      <point x="81" y="-124"/>
      <point x="64" y="-116" type="curve"/>
      <point x="28" y="-198" type="line"/>
      <point x="56" y="-213"/>
      <point x="93" y="-221"/>
    </contour>
  </outline>
</glyph>
<glyph name="tcedilla" format="2">
  <advance width="426"/>
  <unicode hex="0163"/>
  <outline>
    <contour>
      <point x="142" y="-221" type="curve" smooth="yes"/>
      <point x="212" y="-221"/>
      <point x="280" y="-189"/>
      <point x="280" y="-111" type="curve" smooth="yes"/>
      <point x="280" y="-84"/>
      <point x="265" y="-59"/>
      <point x="236" y="-44" type="curve"/>
      <point x="244" y="-33"/>
      <point x="251" y="-21"/>
      <point x="259" y="-10" type="curve"/>
      <point x="303" y="-7"/>
      <point x="337" y="3"/>
      <point x="369" y="15" type="curve"/>
      <point x="358" y="129" type="line"/>
      <point x="327" y="118"/>
      <point x="298" y="112"/>
      <point x="266" y="112" type="curve" smooth="yes"/>
      <point x="191" y="112"/>
      <point x="186" y="158"/>
      <point x="202" y="220" type="curve"/>
      <point x="246" y="404" type="line"/>
      <point x="411" y="404" type="line"/>
      <point x="441" y="526" type="line"/>
      <point x="275" y="526" type="line"/>
      <point x="313" y="681" type="line"/>
      <point x="158" y="657" type="line"/>
      <point x="60" y="243" type="line"/>
      <point x="30" y="122"/>
      <point x="37" y="14"/>
      <point x="167" y="-7" type="curve"/>
      <point x="152" y="-26"/>
      <point x="137" y="-49"/>
      <point x="128" y="-65" type="curve"/>
      <point x="169" y="-80"/>
      <point x="178" y="-91"/>
      <point x="178" y="-106" type="curve" smooth="yes"/>
      <point x="178" y="-122"/>
      <point x="165" y="-130"/>
      <point x="138" y="-130" type="curve" smooth="yes"/>
      <point x="118" y="-130"/>
      <point x="94" y="-124"/>
      <point x="77" y="-116" type="curve"/>
      <point x="41" y="-198" type="line"/>
      <point x="69" y="-213"/>
      <point x="106" y="-221"/>
    </contour>
  </outline>
</glyph>
<glyph name="Tonesix" format="2">
  <advance width="585"/>
  <unicode hex="0184"/>
  <outline>
    <contour>
      <point x="221" y="-14" type="curve" smooth="yes"/>
      <point x="407" y="-14"/>
      <point x="550" y="137"/>
      <point x="550" y="322" type="curve" smooth="yes"/>
      <point x="550" y="441"/>
      <point x="492" y="537"/>
      <point x="364" y="537" type="curve" smooth="yes"/>
      <point x="333" y="537"/>
      <point x="308" y="530"/>
      <point x="281" y="518" type="curve"/>
      <point x="343" y="776" type="line"/>
      <point x="251" y="753"/>
      <point x="161" y="713"/>
      <point x="85" y="676" type="curve"/>
      <point x="148" y="587" type="line"/>
      <point x="15" y="25" type="line"/>
      <point x="93" y="-13"/>
      <point x="196" y="-14"/>
    </contour>
    <contour>
      <point x="234" y="109" type="curve" smooth="yes"/>
      <point x="207" y="109"/>
      <point x="199" y="110"/>
      <point x="184" y="113" type="curve"/>
      <point x="250" y="387" type="line"/>
      <point x="274" y="408"/>
      <point x="308" y="413"/>
      <point x="327" y="413" type="curve" smooth="yes"/>
      <point x="384" y="413"/>
      <point x="402" y="375"/>
      <point x="402" y="311" type="curve" smooth="yes"/>
      <point x="402" y="208"/>
      <point x="328" y="109"/>
    </contour>
  </outline>
</glyph>
<glyph name="tonesix" format="2">
  <advance width="660"/>
  <unicode hex="0185"/>
  <outline>
    <contour>
      <point x="241" y="-7" type="curve" smooth="yes"/>
      <point x="421" y="-7"/>
      <point x="605" y="53"/>
      <point x="605" y="253" type="curve" smooth="yes"/>
      <point x="605" y="381"/>
      <point x="536" y="452"/>
      <point x="344" y="452" type="curve" smooth="yes"/>
      <point x="328" y="452"/>
      <point x="311" y="450"/>
      <point x="295" y="447" type="curve"/>
      <point x="357" y="703" type="line"/>
      <point x="265" y="680"/>
      <point x="167" y="640"/>
      <point x="91" y="603" type="curve"/>
      <point x="155" y="514" type="line"/>
      <point x="35" y="16" type="line"/>
      <point x="94" y="1"/>
      <point x="170" y="-7"/>
    </contour>
    <contour>
      <point x="280" y="124" type="curve" smooth="yes"/>
      <point x="257" y="124"/>
      <point x="236" y="125"/>
      <point x="219" y="128" type="curve"/>
      <point x="264" y="318" type="line"/>
      <point x="282" y="321"/>
      <point x="301" y="323"/>
      <point x="319" y="323" type="curve" smooth="yes"/>
      <point x="416" y="323"/>
      <point x="444" y="287"/>
      <point x="444" y="238" type="curve" smooth="yes"/>
      <point x="444" y="183"/>
      <point x="413" y="124"/>
    </contour>
  </outline>
</glyph>
<glyph name="Chook" format="2">
  <advance width="708"/>
  <unicode hex="0187"/>
  <outline>
    <contour>
      <point x="346" y="-14" type="curve" smooth="yes"/>
      <point x="442" y="-14"/>
      <point x="504" y="3"/>
      <point x="559" y="30" type="curve"/>
      <point x="542" y="157" type="line"/>
      <point x="495" y="136"/>
      <point x="442" y="121"/>
      <point x="378" y="121" type="curve" smooth="yes"/>
      <point x="282" y="121"/>
      <point x="229" y="173"/>
      <point x="229" y="289" type="curve" smooth="yes"/>
      <point x="229" y="444"/>
      <point x="324" y="576"/>
      <point x="476" y="576" type="curve" smooth="yes"/>
      <point x="527" y="576"/>
      <point x="566" y="567"/>
      <point x="622" y="538" type="curve"/>
      <point x="653" y="605" type="line" smooth="yes"/>
      <point x="670" y="641"/>
      <point x="696" y="659"/>
      <point x="730" y="659" type="curve" smooth="yes"/>
      <point x="747" y="659"/>
      <point x="765" y="654"/>
      <point x="786" y="645" type="curve"/>
      <point x="843" y="764" type="line"/>
      <point x="810" y="779"/>
      <point x="775" y="786"/>
      <point x="739" y="786" type="curve" smooth="yes"/>
      <point x="675" y="786"/>
      <point x="614" y="762"/>
      <point x="579" y="698" type="curve"/>
      <point x="548" y="706"/>
      <point x="517" y="709"/>
      <point x="486" y="709" type="curve" smooth="yes"/>
      <point x="218" y="709"/>
      <point x="68" y="488"/>
      <point x="68" y="280" type="curve" smooth="yes"/>
      <point x="68" y="99"/>
      <point x="180" y="-14"/>
    </contour>
  </outline>
</glyph>
<glyph name="deltaturned" format="2">
  <advance width="565"/>
  <unicode hex="018D"/>
  <outline>
    <contour>
      <point x="158" y="-188" type="curve" smooth="yes"/>
      <point x="271" y="-188"/>
      <point x="382" y="-145"/>
      <point x="382" y="-28" type="curve" smooth="yes"/>
      <point x="382" y="9"/>
      <point x="369" y="35"/>
      <point x="350" y="56" type="curve"/>
      <point x="479" y="112"/>
      <point x="547" y="236"/>
      <point x="547" y="345" type="curve" smooth="yes"/>
      <point x="547" y="450"/>
      <point x="482" y="540"/>
      <point x="347" y="540" type="curve" smooth="yes"/>
      <point x="208" y="540"/>
      <point x="49" y="453"/>
      <point x="49" y="241" type="curve" smooth="yes"/>
      <point x="49" y="49"/>
      <point x="240" y="40"/>
      <point x="240" y="-29" type="curve" smooth="yes"/>
      <point x="240" y="-60"/>
      <point x="209" y="-71"/>
      <point x="168" y="-71" type="curve" smooth="yes"/>
      <point x="124" y="-71"/>
      <point x="69" y="-56"/>
      <point x="33" y="-35" type="curve"/>
      <point x="-25" y="-146" type="line"/>
      <point x="19" y="-171"/>
      <point x="89" y="-188"/>
    </contour>
    <contour>
      <point x="260" y="126" type="curve"/>
      <point x="221" y="154"/>
      <point x="189" y="189"/>
      <point x="189" y="252" type="curve" smooth="yes"/>
      <point x="189" y="371"/>
      <point x="270" y="413"/>
      <point x="329" y="413" type="curve" smooth="yes"/>
      <point x="381" y="413"/>
      <point x="406" y="377"/>
      <point x="406" y="330" type="curve" smooth="yes"/>
      <point x="406" y="263"/>
      <point x="355" y="171"/>
    </contour>
  </outline>
</glyph>
<glyph name="Gamma-latin" format="2">
  <advance width="716"/>
  <unicode hex="0194"/>
  <outline>
    <contour>
      <point x="265" y="-185" type="curve" smooth="yes"/>
      <point x="387" y="-185"/>
      <point x="457" y="-95"/>
      <point x="457" y="10" type="curve" smooth="yes"/>
      <point x="457" y="38"/>
      <point x="452" y="67"/>
      <point x="442" y="96" type="curve" smooth="yes"/>
      <point x="421" y="157" type="line"/>
      <point x="550" y="326"/>
      <point x="673" y="494"/>
      <point x="813" y="693" type="curve"/>
      <point x="653" y="693" type="line"/>
      <point x="547" y="537"/>
      <point x="461" y="420"/>
      <point x="365" y="292" type="curve"/>
      <point x="319" y="439"/>
      <point x="301" y="527"/>
      <point x="255" y="693" type="curve"/>
      <point x="96" y="693" type="line"/>
      <point x="152" y="496"/>
      <point x="201" y="340"/>
      <point x="249" y="176" type="curve"/>
      <point x="185" y="97" type="line"/>
      <point x="145" y="48"/>
      <point x="125" y="-6"/>
      <point x="125" y="-54" type="curve" smooth="yes"/>
      <point x="125" y="-127"/>
      <point x="173" y="-185"/>
    </contour>
    <contour>
      <point x="278" y="-65" type="curve" smooth="yes"/>
      <point x="250" y="-65"/>
      <point x="239" y="-52"/>
      <point x="239" y="-35" type="curve" smooth="yes"/>
      <point x="239" y="-16"/>
      <point x="251" y="9"/>
      <point x="270" y="30" type="curve" smooth="yes"/>
      <point x="315" y="81" type="line"/>
      <point x="326" y="39" type="line" smooth="yes"/>
      <point x="330" y="22"/>
      <point x="333" y="6"/>
      <point x="333" y="-9" type="curve" smooth="yes"/>
      <point x="333" y="-41"/>
      <point x="321" y="-65"/>
    </contour>
  </outline>
</glyph>
<glyph name="hv" format="2">
  <advance width="880"/>
  <unicode hex="0195"/>
  <outline>
    <contour>
      <point x="531" y="-14" type="curve" smooth="yes"/>
      <point x="680" y="-14"/>
      <point x="764" y="60"/>
      <point x="804" y="227" type="curve" smooth="yes"/>
      <point x="875" y="526" type="line"/>
      <point x="726" y="526" type="line"/>
      <point x="659" y="244" type="line"/>
      <point x="638" y="151"/>
      <point x="621" y="114"/>
      <point x="561" y="114" type="curve" smooth="yes"/>
      <point x="514" y="114"/>
      <point x="499" y="128"/>
      <point x="499" y="159" type="curve" smooth="yes"/>
      <point x="499" y="180"/>
      <point x="506" y="208"/>
      <point x="515" y="244" type="curve" smooth="yes"/>
      <point x="533" y="321" type="line"/>
      <point x="538" y="346"/>
      <point x="541" y="369"/>
      <point x="541" y="389" type="curve" smooth="yes"/>
      <point x="541" y="477"/>
      <point x="490" y="535"/>
      <point x="370" y="535" type="curve" smooth="yes"/>
      <point x="343" y="535"/>
      <point x="316" y="530"/>
      <point x="289" y="525" type="curve"/>
      <point x="350" y="776" type="line"/>
      <point x="195" y="752" type="line"/>
      <point x="15" y="0" type="line"/>
      <point x="164" y="0" type="line"/>
      <point x="261" y="406" type="line"/>
      <point x="280" y="410"/>
      <point x="299" y="413"/>
      <point x="320" y="413" type="curve" smooth="yes"/>
      <point x="371" y="413"/>
      <point x="386" y="390"/>
      <point x="386" y="353" type="curve" smooth="yes"/>
      <point x="386" y="337"/>
      <point x="383" y="318"/>
      <point x="378" y="295" type="curve" smooth="yes"/>
      <point x="356" y="202" type="line" smooth="yes"/>
      <point x="351" y="179"/>
      <point x="348" y="158"/>
      <point x="348" y="140" type="curve" smooth="yes"/>
      <point x="348" y="47"/>
      <point x="407" y="-14"/>
    </contour>
  </outline>
</glyph>
<glyph name="Iota-latin" format="2">
  <advance width="422"/>
  <unicode hex="0196"/>
  <outline>
    <contour>
      <point x="233" y="-16" type="curve" smooth="yes"/>
      <point x="272" y="-16"/>
      <point x="314" y="-8"/>
      <point x="357" y="8" type="curve"/>
      <point x="352" y="127" type="line"/>
      <point x="332" y="120"/>
      <point x="302" y="113"/>
      <point x="275" y="113" type="curve" smooth="yes"/>
      <point x="244" y="113"/>
      <point x="218" y="122"/>
      <point x="218" y="157" type="curve" smooth="yes"/>
      <point x="218" y="171"/>
      <point x="221" y="190"/>
      <point x="227" y="213" type="curve" smooth="yes"/>
      <point x="342" y="693" type="line"/>
      <point x="186" y="693" type="line"/>
      <point x="68" y="198" type="line"/>
      <point x="62" y="172"/>
      <point x="59" y="148"/>
      <point x="59" y="127" type="curve" smooth="yes"/>
      <point x="59" y="30"/>
      <point x="121" y="-16"/>
    </contour>
  </outline>
</glyph>
<glyph name="Khook" format="2">
  <advance width="706"/>
  <unicode hex="0198"/>
  <outline>
    <contour>
      <point x="20" y="0" type="line"/>
      <point x="175" y="0" type="line"/>
      <point x="246" y="290" type="line"/>
      <point x="321" y="215"/>
      <point x="391" y="91"/>
      <point x="428" y="0" type="curve"/>
      <point x="598" y="0" type="line"/>
      <point x="537" y="153"/>
      <point x="457" y="270"/>
      <point x="373" y="362" type="curve"/>
      <point x="569" y="542" type="line"/>
      <point x="592" y="562"/>
      <point x="617" y="572"/>
      <point x="640" y="573" type="curve" smooth="yes"/>
      <point x="661" y="573"/>
      <point x="678" y="565"/>
      <point x="691" y="549" type="curve"/>
      <point x="771" y="653" type="line"/>
      <point x="736" y="688"/>
      <point x="694" y="709"/>
      <point x="647" y="709" type="curve" smooth="yes"/>
      <point x="599" y="709"/>
      <point x="547" y="689"/>
      <point x="492" y="638" type="curve" smooth="yes"/>
      <point x="281" y="443" type="line"/>
      <point x="342" y="693" type="line"/>
      <point x="186" y="693" type="line"/>
    </contour>
  </outline>
</glyph>
<glyph name="lbar" format="2">
  <advance width="375"/>
  <unicode hex="019A"/>
  <outline>
    <contour>
      <point x="243" y="-10" type="curve"/>
      <point x="273" y="113" type="line"/>
      <point x="222" y="117"/>
      <point x="206" y="136"/>
      <point x="206" y="166" type="curve" smooth="yes"/>
      <point x="206" y="176"/>
      <point x="208" y="188"/>
      <point x="211" y="200" type="curve" smooth="yes"/>
      <point x="248" y="353" type="line"/>
      <point x="358" y="353" type="line"/>
      <point x="381" y="448" type="line"/>
      <point x="271" y="448" type="line"/>
      <point x="350" y="776" type="line"/>
      <point x="195" y="752" type="line"/>
      <point x="122" y="448" type="line"/>
      <point x="62" y="448" type="line"/>
      <point x="39" y="353" type="line"/>
      <point x="99" y="353" type="line"/>
      <point x="68" y="221" type="line" smooth="yes"/>
      <point x="61" y="191"/>
      <point x="56" y="161"/>
      <point x="56" y="134" type="curve" smooth="yes"/>
      <point x="56" y="51"/>
      <point x="99" y="-10"/>
    </contour>
  </outline>
</glyph>
<glyph name="Ocenteredtilde" format="2">
  <advance width="767"/>
  <unicode hex="019F"/>
  <outline>
    <contour>
      <point x="346" y="-14" type="curve" smooth="yes"/>
      <point x="594" y="-14"/>
      <point x="739" y="209"/>
      <point x="739" y="418" type="curve" smooth="yes"/>
      <point x="739" y="599"/>
      <point x="624" y="709"/>
      <point x="461" y="709" type="curve" smooth="yes"/>
      <point x="216" y="709"/>
      <point x="68" y="484"/>
      <point x="68" y="277" type="curve" smooth="yes"/>
      <point x="68" y="96"/>
      <point x="183" y="-14"/>
    </contour>
    <contour>
      <point x="362" y="120" type="curve" smooth="yes"/>
      <point x="271" y="120"/>
      <point x="231" y="182"/>
      <point x="228" y="282" type="curve" smooth="yes"/>
      <point x="228" y="286"/>
      <point x="228" y="290"/>
      <point x="228" y="294" type="curve"/>
      <point x="560" y="294" type="line"/>
      <point x="528" y="195"/>
      <point x="452" y="120"/>
    </contour>
    <contour>
      <point x="247" y="404" type="line"/>
      <point x="282" y="501"/>
      <point x="353" y="575"/>
      <point x="445" y="575" type="curve" smooth="yes"/>
      <point x="537" y="575"/>
      <point x="576" y="512"/>
      <point x="579" y="414" type="curve" smooth="yes"/>
      <point x="579" y="411"/>
      <point x="579" y="407"/>
      <point x="579" y="404" type="curve"/>
    </contour>
  </outline>
</glyph>
<glyph name="phook" format="2">
  <advance width="589"/>
  <unicode hex="01A5"/>
  <outline>
    <contour>
      <point x="-29" y="-185" type="line"/>
      <point x="119" y="-185" type="line"/>
      <point x="164" y="-4" type="line"/>
      <point x="187" y="-8"/>
      <point x="209" y="-10"/>
      <point x="232" y="-10" type="curve" smooth="yes"/>
      <point x="420" y="-10"/>
      <point x="554" y="127"/>
      <point x="554" y="321" type="curve" smooth="yes"/>
      <point x="554" y="441"/>
      <point x="489" y="538"/>
      <point x="340" y="538" type="curve" smooth="yes"/>
      <point x="323" y="538"/>
      <point x="307" y="537"/>
      <point x="292" y="536" type="curve"/>
      <point x="308" y="603" type="line" smooth="yes"/>
      <point x="319" y="646"/>
      <point x="340" y="664"/>
      <point x="368" y="664" type="curve" smooth="yes"/>
      <point x="380" y="664"/>
      <point x="394" y="660"/>
      <point x="410" y="653" type="curve"/>
      <point x="448" y="760" type="line"/>
      <point x="417" y="771"/>
      <point x="386" y="776"/>
      <point x="355" y="776" type="curve" smooth="yes"/>
      <point x="265" y="776"/>
      <point x="189" y="726"/>
      <point x="162" y="613" type="curve" smooth="yes"/>
    </contour>
    <contour>
      <point x="233" y="112" type="curve" smooth="yes"/>
      <point x="218" y="112"/>
      <point x="204" y="113"/>
      <point x="191" y="116" type="curve"/>
      <point x="261" y="407" type="line"/>
      <point x="280" y="411"/>
      <point x="300" y="413"/>
      <point x="321" y="413" type="curve" smooth="yes"/>
      <point x="384" y="413"/>
      <point x="406" y="367"/>
      <point x="406" y="310" type="curve" smooth="yes"/>
      <point x="406" y="193"/>
      <point x="337" y="112"/>
    </contour>
  </outline>
</glyph>
<glyph name="Tonetwo" format="2">
  <advance width="559"/>
  <unicode hex="01A7"/>
  <outline>
    <contour>
      <point x="243" y="-14" type="curve" smooth="yes"/>
      <point x="320" y="-14"/>
      <point x="400" y="-1"/>
      <point x="472" y="30" type="curve"/>
      <point x="460" y="163" type="line"/>
      <point x="420" y="142"/>
      <point x="334" y="119"/>
      <point x="264" y="119" type="curve" smooth="yes"/>
      <point x="208" y="119"/>
      <point x="164" y="132"/>
      <point x="164" y="171" type="curve" smooth="yes"/>
      <point x="164" y="249"/>
      <point x="259" y="270"/>
      <point x="357" y="305" type="curve" smooth="yes"/>
      <point x="466" y="342"/>
      <point x="579" y="395"/>
      <point x="579" y="553" type="curve" smooth="yes"/>
      <point x="579" y="660"/>
      <point x="488" y="709"/>
      <point x="373" y="709" type="curve" smooth="yes"/>
      <point x="302" y="709"/>
      <point x="224" y="692"/>
      <point x="152" y="657" type="curve"/>
      <point x="172" y="534" type="line"/>
      <point x="220" y="562"/>
      <point x="280" y="577"/>
      <point x="329" y="577" type="curve" smooth="yes"/>
      <point x="380" y="577"/>
      <point x="418" y="561"/>
      <point x="418" y="529" type="curve" smooth="yes"/>
      <point x="418" y="460"/>
      <point x="321" y="438"/>
      <point x="221" y="402" type="curve" smooth="yes"/>
      <point x="115" y="364"/>
      <point x="5" y="310"/>
      <point x="5" y="168" type="curve" smooth="yes"/>
      <point x="5" y="37"/>
      <point x="116" y="-14"/>
    </contour>
  </outline>
</glyph>
<glyph name="tpalatalhook" format="2">
  <advance width="426"/>
  <unicode hex="01AB"/>
  <outline>
    <contour>
      <point x="162" y="-190" type="curve" smooth="yes"/>
      <point x="305" y="-190"/>
      <point x="350" y="-51"/>
      <point x="358" y="129" type="curve"/>
      <point x="333" y="120"/>
      <point x="298" y="112"/>
      <point x="267" y="112" type="curve" smooth="yes"/>
      <point x="211" y="112"/>
      <point x="195" y="138"/>
      <point x="195" y="174" type="curve" smooth="yes"/>
      <point x="195" y="189"/>
      <point x="198" y="204"/>
      <point x="202" y="220" type="curve" smooth="yes"/>
      <point x="246" y="404" type="line"/>
      <point x="411" y="404" type="line"/>
      <point x="441" y="526" type="line"/>
      <point x="275" y="526" type="line"/>
      <point x="313" y="681" type="line"/>
      <point x="158" y="657" type="line"/>
      <point x="60" y="243" type="line" smooth="yes"/>
      <point x="51" y="206"/>
      <point x="46" y="172"/>
      <point x="46" y="142" type="curve" smooth="yes"/>
      <point x="46" y="53"/>
      <point x="87" y="-9"/>
      <point x="206" y="-11" type="curve" smooth="yes"/>
      <point x="208" y="-11"/>
      <point x="211" y="-11"/>
      <point x="213" y="-11" type="curve"/>
      <point x="209" y="-55"/>
      <point x="183" y="-72"/>
      <point x="151" y="-72" type="curve" smooth="yes"/>
      <point x="138" y="-72"/>
      <point x="123" y="-69"/>
      <point x="107" y="-64" type="curve"/>
      <point x="66" y="-173" type="line"/>
      <point x="99" y="-185"/>
      <point x="123" y="-190"/>
    </contour>
  </outline>
</glyph>
<glyph name="thook" format="2">
  <advance width="426"/>
  <unicode hex="01AD"/>
  <outline>
    <contour>
      <point x="218" y="-12" type="curve" smooth="yes"/>
      <point x="285" y="-12"/>
      <point x="353" y="7"/>
      <point x="369" y="15" type="curve"/>
      <point x="358" y="129" type="line"/>
      <point x="321" y="114"/>
      <point x="285" y="112"/>
      <point x="257" y="112" type="curve" smooth="yes"/>
      <point x="221" y="112"/>
      <point x="195" y="130"/>
      <point x="195" y="174" type="curve" smooth="yes"/>
      <point x="195" y="187"/>
      <point x="198" y="201"/>
      <point x="202" y="217" type="curve" smooth="yes"/>
      <point x="246" y="404" type="line"/>
      <point x="411" y="404" type="line"/>
      <point x="441" y="526" type="line"/>
      <point x="276" y="526" type="line"/>
      <point x="285" y="564" type="line" smooth="yes"/>
      <point x="301" y="631"/>
      <point x="347" y="652"/>
      <point x="398" y="652" type="curve" smooth="yes"/>
      <point x="421" y="652"/>
      <point x="446" y="647"/>
      <point x="471" y="636" type="curve"/>
      <point x="526" y="752" type="line"/>
      <point x="482" y="767"/>
      <point x="433" y="776"/>
      <point x="385" y="776" type="curve" smooth="yes"/>
      <point x="280" y="776"/>
      <point x="174" y="729"/>
      <point x="139" y="577" type="curve"/>
      <point x="59" y="241" type="line" smooth="yes"/>
      <point x="50" y="202"/>
      <point x="45" y="169"/>
      <point x="45" y="141" type="curve" smooth="yes"/>
      <point x="45" y="42"/>
      <point x="97" y="-12"/>
    </contour>
  </outline>
</glyph>
<glyph name="Tretroflexhook" format="2">
  <advance width="603"/>
  <unicode hex="01AE"/>
  <outline>
    <contour>
      <point x="295" y="-186" type="curve" smooth="yes"/>
      <point x="322" y="-186"/>
      <point x="354" y="-182"/>
      <point x="389" y="-174" type="curve"/>
      <point x="400" y="-53" type="line"/>
      <point x="380" y="-58"/>
      <point x="365" y="-61"/>
      <point x="354" y="-61" type="curve" smooth="yes"/>
      <point x="325" y="-61"/>
      <point x="314" y="-46"/>
      <point x="314" y="-21" type="curve" smooth="yes"/>
      <point x="314" y="-9"/>
      <point x="316" y="5"/>
      <point x="320" y="21" type="curve" smooth="yes"/>
      <point x="449" y="562" type="line"/>
      <point x="652" y="562" type="line"/>
      <point x="683" y="693" type="line"/>
      <point x="122" y="693" type="line"/>
      <point x="90" y="562" type="line"/>
      <point x="293" y="562" type="line"/>
      <point x="158" y="1" type="line" smooth="yes"/>
      <point x="153" y="-22"/>
      <point x="150" y="-43"/>
      <point x="150" y="-60" type="curve" smooth="yes"/>
      <point x="150" y="-144"/>
      <point x="203" y="-186"/>
    </contour>
  </outline>
</glyph>
<glyph name="uhorn" format="2">
  <advance width="621"/>
  <unicode hex="01B0"/>
  <outline>
    <contour>
      <point x="215" y="-12" type="curve" smooth="yes"/>
      <point x="272" y="-12"/>
      <point x="319" y="11"/>
      <point x="356" y="40" type="curve"/>
      <point x="363" y="21"/>
      <point x="369" y="7"/>
      <point x="377" y="-9" type="curve"/>
      <point x="510" y="10" type="line"/>
      <point x="487" y="69"/>
      <point x="476" y="151"/>
      <point x="495" y="227" type="curve"/>
      <point x="545" y="439" type="line"/>
      <point x="673" y="455"/>
      <point x="710" y="553"/>
      <point x="715" y="632" type="curve"/>
      <point x="595" y="632" type="line"/>
      <point x="592" y="567"/>
      <point x="568" y="529"/>
      <point x="508" y="526" type="curve"/>
      <point x="417" y="526" type="line"/>
      <point x="352" y="253" type="line"/>
      <point x="345" y="222"/>
      <point x="339" y="183"/>
      <point x="336" y="150" type="curve"/>
      <point x="307" y="122"/>
      <point x="283" y="112"/>
      <point x="252" y="112" type="curve" smooth="yes"/>
      <point x="180" y="112"/>
      <point x="193" y="186"/>
      <point x="206" y="244" type="curve"/>
      <point x="273" y="526" type="line"/>
      <point x="124" y="526" type="line"/>
      <point x="56" y="242" type="line"/>
      <point x="24" y="113"/>
      <point x="59" y="-12"/>
    </contour>
  </outline>
</glyph>
<glyph name="Vhook" format="2">
  <advance width="726"/>
  <unicode hex="01B2"/>
  <outline>
    <contour>
      <point x="285" y="-14" type="curve" smooth="yes"/>
      <point x="568" y="-14"/>
      <point x="691" y="229"/>
      <point x="691" y="450" type="curve" smooth="yes"/>
      <point x="691" y="605"/>
      <point x="655" y="701"/>
      <point x="510" y="701" type="curve" smooth="yes"/>
      <point x="483" y="701"/>
      <point x="446" y="699"/>
      <point x="415" y="692" type="curve"/>
      <point x="400" y="562" type="line"/>
      <point x="417" y="566"/>
      <point x="432" y="568"/>
      <point x="445" y="568" type="curve" smooth="yes"/>
      <point x="505" y="568"/>
      <point x="530" y="528"/>
      <point x="530" y="437" type="curve" smooth="yes"/>
      <point x="530" y="278"/>
      <point x="446" y="121"/>
      <point x="317" y="121" type="curve" smooth="yes"/>
      <point x="241" y="121"/>
      <point x="216" y="153"/>
      <point x="216" y="208" type="curve" smooth="yes"/>
      <point x="216" y="231"/>
      <point x="220" y="256"/>
      <point x="227" y="285" type="curve" smooth="yes"/>
      <point x="325" y="693" type="line"/>
      <point x="169" y="693" type="line"/>
      <point x="68" y="272" type="line" smooth="yes"/>
      <point x="62" y="247"/>
      <point x="59" y="221"/>
      <point x="59" y="196" type="curve" smooth="yes"/>
      <point x="59" y="89"/>
      <point x="117" y="-14"/>
    </contour>
  </outline>
</glyph>
<glyph name="Yhook" format="2">
  <advance width="704"/>
  <unicode hex="01B3"/>
  <outline>
    <contour>
      <point x="189" y="0" type="line"/>
      <point x="345" y="0" type="line"/>
      <point x="411" y="274" type="line"/>
      <point x="480" y="362"/>
      <point x="542" y="444"/>
      <point x="612" y="530" type="curve" smooth="yes"/>
      <point x="633" y="557"/>
      <point x="647" y="568"/>
      <point x="674" y="568" type="curve" smooth="yes"/>
      <point x="698" y="568"/>
      <point x="710" y="559"/>
      <point x="722" y="544" type="curve"/>
      <point x="810" y="646" type="line"/>
      <point x="776" y="690"/>
      <point x="733" y="703"/>
      <point x="680" y="703" type="curve" smooth="yes"/>
      <point x="580" y="703"/>
      <point x="534" y="639"/>
      <point x="483" y="572" type="curve" smooth="yes"/>
      <point x="441" y="517"/>
      <point x="400" y="463"/>
      <point x="358" y="408" type="curve"/>
      <point x="330" y="501"/>
      <point x="302" y="597"/>
      <point x="281" y="693" type="curve"/>
      <point x="115" y="693" type="line"/>
      <point x="157" y="544"/>
      <point x="197" y="415"/>
      <point x="255" y="274" type="curve"/>
    </contour>
  </outline>
</glyph>
<glyph name="Zstroke" format="2">
  <advance width="648"/>
  <unicode hex="01B5"/>
  <outline>
    <contour>
      <point x="-10" y="0" type="line"/>
      <point x="527" y="0" type="line"/>
      <point x="559" y="131" type="line"/>
      <point x="211" y="131" type="line"/>
      <point x="255" y="184"/>
      <point x="306" y="242"/>
      <point x="361" y="299" type="curve"/>
      <point x="563" y="299" type="line"/>
      <point x="590" y="409" type="line"/>
      <point x="469" y="409" type="line"/>
      <point x="541" y="481"/>
      <point x="609" y="544"/>
      <point x="657" y="585" type="curve"/>
      <point x="683" y="693" type="line"/>
      <point x="172" y="693" type="line"/>
      <point x="140" y="562" type="line"/>
      <point x="446" y="562" type="line"/>
      <point x="399" y="518"/>
      <point x="346" y="465"/>
      <point x="290" y="409" type="curve"/>
      <point x="135" y="409" type="line"/>
      <point x="108" y="299" type="line"/>
      <point x="187" y="299" type="line"/>
      <point x="120" y="226"/>
      <point x="60" y="154"/>
      <point x="13" y="93" type="curve"/>
    </contour>
  </outline>
</glyph>
<glyph name="zstroke" format="2">
  <advance width="536"/>
  <unicode hex="01B6"/>
  <outline>
    <contour>
      <point x="5" y="0" type="line"/>
      <point x="429" y="0" type="line"/>
      <point x="459" y="122" type="line"/>
      <point x="215" y="122" type="line"/>
      <point x="244" y="153"/>
      <point x="278" y="187"/>
      <point x="311" y="222" type="curve"/>
      <point x="465" y="222" type="line"/>
      <point x="486" y="310" type="line"/>
      <point x="400" y="310" type="line"/>
      <point x="452" y="361"/>
      <point x="499" y="403"/>
      <point x="527" y="427" type="curve"/>
      <point x="551" y="526" type="line"/>
      <point x="143" y="526" type="line"/>
      <point x="113" y="404" type="line"/>
      <point x="327" y="404" type="line"/>
      <point x="296" y="377"/>
      <point x="265" y="345"/>
      <point x="230" y="310" type="curve"/>
      <point x="113" y="310" type="line"/>
      <point x="92" y="222" type="line"/>
      <point x="145" y="222" type="line"/>
      <point x="101" y="174"/>
      <point x="59" y="127"/>
      <point x="26" y="87" type="curve"/>
    </contour>
  </outline>
</glyph>
<glyph name="ezhtail" format="2">
  <advance width="510"/>
  <unicode hex="01BA"/>
  <outline>
    <contour>
      <point x="-53" y="-195" type="curve"/>
      <point x="75" y="-169" type="line"/>
      <point x="72" y="-158"/>
      <point x="69" y="-148"/>
      <point x="69" y="-137" type="curve" smooth="yes"/>
      <point x="69" y="-108"/>
      <point x="81" y="-80"/>
      <point x="212" y="-54" type="curve" smooth="yes"/>
      <point x="403" y="-16"/>
      <point x="452" y="41"/>
      <point x="452" y="138" type="curve" smooth="yes"/>
      <point x="452" y="201"/>
      <point x="408" y="262"/>
      <point x="308" y="285" type="curve"/>
      <point x="366" y="325"/>
      <point x="451" y="386"/>
      <point x="500" y="424" type="curve"/>
      <point x="525" y="526" type="line"/>
      <point x="102" y="526" type="line"/>
      <point x="72" y="402" type="line"/>
      <point x="313" y="402" type="line"/>
      <point x="275" y="372"/>
      <point x="203" y="322"/>
      <point x="150" y="283" type="curve"/>
      <point x="131" y="200" type="line"/>
      <point x="263" y="195"/>
      <point x="298" y="183"/>
      <point x="298" y="139" type="curve" smooth="yes"/>
      <point x="298" y="89"/>
      <point x="252" y="76"/>
      <point x="128" y="48" type="curve" smooth="yes"/>
      <point x="11" y="22"/>
      <point x="-66" y="-24"/>
      <point x="-66" y="-122" type="curve" smooth="yes"/>
      <point x="-66" y="-145"/>
      <point x="-60" y="-168"/>
    </contour>
  </outline>
</glyph>
<glyph name="tonefive" format="2">
  <advance width="518"/>
  <unicode hex="01BD"/>
  <outline>
    <contour>
      <point x="184" y="-14" type="curve" smooth="yes"/>
      <point x="318" y="-14"/>
      <point x="456" y="41"/>
      <point x="456" y="181" type="curve" smooth="yes"/>
      <point x="456" y="295"/>
      <point x="342" y="332"/>
      <point x="245" y="332" type="curve" smooth="yes"/>
      <point x="245" y="332" type="line"/>
      <point x="253" y="355"/>
      <point x="263" y="383"/>
      <point x="270" y="406" type="curve"/>
      <point x="480" y="406" type="line"/>
      <point x="508" y="526" type="line"/>
      <point x="91" y="526" type="line"/>
      <point x="63" y="406" type="line"/>
      <point x="137" y="406" type="line"/>
      <point x="118" y="349"/>
      <point x="98" y="291"/>
      <point x="75" y="226" type="curve"/>
      <point x="140" y="226" type="line" smooth="yes"/>
      <point x="267" y="226"/>
      <point x="315" y="216"/>
      <point x="315" y="179" type="curve" smooth="yes"/>
      <point x="315" y="134"/>
      <point x="277" y="112"/>
      <point x="202" y="112" type="curve" smooth="yes"/>
      <point x="130" y="112"/>
      <point x="71" y="130"/>
      <point x="48" y="139" type="curve"/>
      <point x="5" y="21" type="line"/>
      <point x="53" y="-2"/>
      <point x="117" y="-14"/>
    </contour>
  </outline>
</glyph>
<glyph name="wynn" format="2">
  <advance width="581"/>
  <unicode hex="01BF"/>
  <outline>
    <contour>
      <point x="-28" y="-185" type="line"/>
      <point x="120" y="-185" type="line"/>
      <point x="151" y="-53" type="line"/>
      <point x="423" y="8"/>
      <point x="554" y="177"/>
      <point x="554" y="348" type="curve" smooth="yes"/>
      <point x="554" y="469"/>
      <point x="491" y="537"/>
      <point x="358" y="537" type="curve" smooth="yes"/>
      <point x="291" y="537"/>
      <point x="201" y="521"/>
      <point x="134" y="496" type="curve"/>
    </contour>
    <contour>
      <point x="185" y="88" type="curve"/>
      <point x="260" y="397" type="line"/>
      <point x="281" y="406"/>
      <point x="302" y="410"/>
      <point x="323" y="410" type="curve" smooth="yes"/>
      <point x="378" y="410"/>
      <point x="404" y="374"/>
      <point x="404" y="325" type="curve" smooth="yes"/>
      <point x="404" y="244"/>
      <point x="328" y="122"/>
    </contour>
  </outline>
</glyph>
<glyph name="gstroke" format="2">
  <advance width="599"/>
  <unicode hex="01E5"/>
  <outline>
    <contour>
      <point x="162" y="-188" type="curve" smooth="yes"/>
      <point x="344" y="-188"/>
      <point x="429" y="-106"/>
      <point x="469" y="66" type="curve" smooth="yes"/>
      <point x="512" y="246" type="line"/>
      <point x="597" y="246" type="line"/>
      <point x="618" y="336" type="line"/>
      <point x="533" y="336" type="line"/>
      <point x="572" y="499" type="line"/>
      <point x="512" y="527"/>
      <point x="449" y="540"/>
      <point x="385" y="540" type="curve" smooth="yes"/>
      <point x="210" y="540"/>
      <point x="49" y="433"/>
      <point x="49" y="229" type="curve" smooth="yes"/>
      <point x="49" y="117"/>
      <point x="103" y="35"/>
      <point x="228" y="35" type="curve" smooth="yes"/>
      <point x="261" y="35"/>
      <point x="291" y="44"/>
      <point x="318" y="57" type="curve"/>
      <point x="314" y="38" type="line" smooth="yes"/>
      <point x="301" y="-22"/>
      <point x="260" y="-64"/>
      <point x="175" y="-64" type="curve" smooth="yes"/>
      <point x="110" y="-64"/>
      <point x="69" y="-49"/>
      <point x="28" y="-30" type="curve"/>
      <point x="-22" y="-148" type="line"/>
      <point x="25" y="-171"/>
      <point x="78" y="-188"/>
    </contour>
    <contour>
      <point x="268" y="154" type="curve" smooth="yes"/>
      <point x="211" y="154"/>
      <point x="197" y="193"/>
      <point x="197" y="240" type="curve" smooth="yes"/>
      <point x="197" y="340"/>
      <point x="261" y="415"/>
      <point x="361" y="415" type="curve" smooth="yes"/>
      <point x="376" y="415"/>
      <point x="390" y="414"/>
      <point x="403" y="411" type="curve"/>
      <point x="385" y="336" type="line"/>
      <point x="326" y="336" type="line"/>
      <point x="305" y="246" type="line"/>
      <point x="363" y="246" type="line"/>
      <point x="348" y="182" type="line"/>
      <point x="323" y="158"/>
      <point x="287" y="154"/>
    </contour>
  </outline>
</glyph>
<glyph name="Oogonek" format="2">
  <advance width="767"/>
  <unicode hex="01EA"/>
  <anchor x="444" y="687" name="top"/>
  <outline>
    <contour>
      <point x="298" y="-221" type="curve" smooth="yes"/>
      <point x="333" y="-221"/>
      <point x="366" y="-213"/>
      <point x="393" y="-201" type="curve"/>
      <point x="403" y="-102" type="line"/>
      <point x="394" y="-105"/>
      <point x="369" y="-113"/>
      <point x="350" y="-113" type="curve" smooth="yes"/>
      <point x="333" y="-113"/>
      <point x="325" y="-108"/>
      <point x="325" y="-97" type="curve" smooth="yes"/>
      <point x="325" y="-81"/>
      <point x="346" y="-53"/>
      <point x="407" y="-9" type="curve"/>
      <point x="617" y="23"/>
      <point x="739" y="227"/>
      <point x="739" y="418" type="curve" smooth="yes"/>
      <point x="739" y="599"/>
      <point x="624" y="709"/>
      <point x="461" y="709" type="curve" smooth="yes"/>
      <point x="216" y="709"/>
      <point x="68" y="484"/>
      <point x="68" y="277" type="curve" smooth="yes"/>
      <point x="68" y="117"/>
      <point x="154" y="16"/>
      <point x="285" y="-8" type="curve" smooth="yes"/>
      <point x="285" y="-8"/>
      <point x="285" y="-8"/>
      <point x="285" y="-8" type="curve"/>
      <point x="214" y="-51"/>
      <point x="188" y="-96"/>
      <point x="188" y="-136" type="curve" smooth="yes"/>
      <point x="188" y="-199"/>
      <point x="241" y="-221"/>
    </contour>
    <contour>
      <point x="362" y="120" type="curve" smooth="yes"/>
      <point x="267" y="120"/>
      <point x="228" y="188"/>
      <point x="228" y="288" type="curve" smooth="yes"/>
      <point x="228" y="436"/>
      <point x="322" y="575"/>
      <point x="445" y="575" type="curve" smooth="yes"/>
      <point x="540" y="575"/>
      <point x="579" y="507"/>
      <point x="579" y="407" type="curve" smooth="yes"/>
      <point x="579" y="259"/>
      <point x="485" y="120"/>
    </contour>
  </outline>
</glyph>
<glyph name="Hwair" format="2">
  <advance width="1029"/>
  <unicode hex="01F6"/>
  <outline>
    <contour>
      <point x="691" y="-14" type="curve" smooth="yes"/>
      <point x="827" y="-14"/>
      <point x="930" y="58"/>
      <point x="973" y="234" type="curve"/>
      <point x="1044" y="534" type="line"/>
      <point x="889" y="534" type="line"/>
      <point x="825" y="266" type="line" smooth="yes"/>
      <point x="801" y="166"/>
      <point x="768" y="120"/>
      <point x="700" y="120" type="curve" smooth="yes"/>
      <point x="644" y="120"/>
      <point x="627" y="142"/>
      <point x="627" y="182" type="curve" smooth="yes"/>
      <point x="627" y="211"/>
      <point x="636" y="248"/>
      <point x="647" y="293" type="curve" smooth="yes"/>
      <point x="743" y="693" type="line"/>
      <point x="587" y="693" type="line"/>
      <point x="524" y="428" type="line"/>
      <point x="279" y="428" type="line"/>
      <point x="342" y="693" type="line"/>
      <point x="186" y="693" type="line"/>
      <point x="21" y="0" type="line"/>
      <point x="176" y="0" type="line"/>
      <point x="247" y="294" type="line"/>
      <point x="492" y="294" type="line"/>
      <point x="482" y="250" type="line" smooth="yes"/>
      <point x="475" y="223"/>
      <point x="472" y="196"/>
      <point x="472" y="169" type="curve" smooth="yes"/>
      <point x="472" y="66"/>
      <point x="529" y="-14"/>
    </contour>
  </outline>
</glyph>
<glyph name="Yogh" format="2">
  <advance width="604"/>
  <unicode hex="021C"/>
  <outline>
    <contour>
      <point x="39" y="-186" type="curve" smooth="yes"/>
      <point x="383" y="-186"/>
      <point x="513" y="-11"/>
      <point x="513" y="133" type="curve" smooth="yes"/>
      <point x="513" y="205"/>
      <point x="480" y="267"/>
      <point x="419" y="299" type="curve"/>
      <point x="521" y="339"/>
      <point x="579" y="435"/>
      <point x="579" y="524" type="curve" smooth="yes"/>
      <point x="579" y="651"/>
      <point x="484" y="708"/>
      <point x="351" y="708" type="curve" smooth="yes"/>
      <point x="284" y="708"/>
      <point x="212" y="694"/>
      <point x="143" y="663" type="curve"/>
      <point x="156" y="539" type="line"/>
      <point x="201" y="559"/>
      <point x="270" y="574"/>
      <point x="322" y="574" type="curve" smooth="yes"/>
      <point x="381" y="574"/>
      <point x="415" y="549"/>
      <point x="415" y="502" type="curve" smooth="yes"/>
      <point x="415" y="409"/>
      <point x="309" y="363"/>
      <point x="208" y="363" type="curve" smooth="yes"/>
      <point x="167" y="363" type="line"/>
      <point x="135" y="232" type="line"/>
      <point x="200" y="232" type="line" smooth="yes"/>
      <point x="280" y="232"/>
      <point x="352" y="208"/>
      <point x="352" y="133" type="curve" smooth="yes"/>
      <point x="352" y="-16"/>
      <point x="185" y="-49"/>
      <point x="60" y="-49" type="curve" smooth="yes"/>
      <point x="32" y="-49"/>
      <point x="8" y="-50"/>
      <point x="-15" y="-47" type="curve"/>
      <point x="-55" y="-181" type="line"/>
      <point x="-28" y="-184"/>
      <point x="8" y="-186"/>
    </contour>
  </outline>
</glyph>
<glyph name="Nlongrightleg" format="2">
  <advance width="708"/>
  <unicode hex="0220"/>
  <outline>
    <contour>
      <point x="359" y="-185" type="line"/>
      <point x="515" y="-185" type="line"/>
      <point x="659" y="412" type="line" smooth="yes"/>
      <point x="668" y="449"/>
      <point x="673" y="484"/>
      <point x="673" y="516" type="curve" smooth="yes"/>
      <point x="673" y="669"/>
      <point x="559" y="709"/>
      <point x="429" y="709" type="curve" smooth="yes"/>
      <point x="345" y="709"/>
      <point x="255" y="693"/>
      <point x="183" y="678" type="curve"/>
      <point x="21" y="0" type="line"/>
      <point x="177" y="0" type="line"/>
      <point x="313" y="567" type="line"/>
      <point x="337" y="570"/>
      <point x="367" y="574"/>
      <point x="398" y="574" type="curve" smooth="yes"/>
      <point x="457" y="574"/>
      <point x="514" y="558"/>
      <point x="514" y="490" type="curve" smooth="yes"/>
      <point x="514" y="469"/>
      <point x="510" y="443"/>
      <point x="503" y="414" type="curve" smooth="yes"/>
    </contour>
  </outline>
</glyph>
<glyph name="OU" format="2">
  <advance width="732"/>
  <unicode hex="0222"/>
  <outline>
    <contour>
      <point x="297" y="-14" type="curve" smooth="yes"/>
      <point x="565" y="-14"/>
      <point x="660" y="112"/>
      <point x="660" y="225" type="curve" smooth="yes"/>
      <point x="660" y="290"/>
      <point x="625" y="351"/>
      <point x="568" y="379" type="curve"/>
      <point x="685" y="431"/>
      <point x="707" y="559"/>
      <point x="707" y="669" type="curve" smooth="yes"/>
      <point x="707" y="677"/>
      <point x="707" y="685"/>
      <point x="707" y="693" type="curve"/>
      <point x="556" y="693" type="line"/>
      <point x="553" y="557"/>
      <point x="528" y="433"/>
      <point x="404" y="433" type="curve" smooth="yes"/>
      <point x="340" y="433"/>
      <point x="319" y="465"/>
      <point x="319" y="509" type="curve" smooth="yes"/>
      <point x="319" y="566"/>
      <point x="355" y="643"/>
      <point x="376" y="693" type="curve"/>
      <point x="225" y="693" type="line"/>
      <point x="197" y="626"/>
      <point x="165" y="552"/>
      <point x="165" y="485" type="curve" smooth="yes"/>
      <point x="165" y="442"/>
      <point x="178" y="406"/>
      <point x="214" y="379" type="curve"/>
      <point x="96" y="339"/>
      <point x="40" y="250"/>
      <point x="40" y="168" type="curve" smooth="yes"/>
      <point x="40" y="73"/>
      <point x="118" y="-14"/>
    </contour>
    <contour>
      <point x="328" y="115" type="curve" smooth="yes"/>
      <point x="259" y="115"/>
      <point x="202" y="139"/>
      <point x="202" y="191" type="curve" smooth="yes"/>
      <point x="202" y="271"/>
      <point x="282" y="306"/>
      <point x="373" y="306" type="curve" smooth="yes"/>
      <point x="449" y="306"/>
      <point x="499" y="283"/>
      <point x="499" y="232" type="curve" smooth="yes"/>
      <point x="499" y="151"/>
      <point x="411" y="115"/>
    </contour>
  </outline>
</glyph>
<glyph name="Zhook" format="2">
  <advance width="648"/>
  <unicode hex="0224"/>
  <outline>
    <contour>
      <point x="326" y="-187" type="curve" smooth="yes"/>
      <point x="418" y="-187"/>
      <point x="490" y="-152"/>
      <point x="530" y="12" type="curve" smooth="yes"/>
      <point x="559" y="131" type="line"/>
      <point x="211" y="131" type="line"/>
      <point x="345" y="292"/>
      <point x="550" y="494"/>
      <point x="657" y="585" type="curve"/>
      <point x="683" y="693" type="line"/>
      <point x="172" y="693" type="line"/>
      <point x="140" y="562" type="line"/>
      <point x="446" y="562" type="line"/>
      <point x="313" y="437"/>
      <point x="120" y="235"/>
      <point x="13" y="93" type="curve"/>
      <point x="-10" y="0" type="line"/>
      <point x="383" y="0" type="line"/>
      <point x="382" y="-4" type="line"/>
      <point x="369" y="-46"/>
      <point x="350" y="-66"/>
      <point x="316" y="-66" type="curve" smooth="yes"/>
      <point x="303" y="-66"/>
      <point x="290" y="-64"/>
      <point x="277" y="-59" type="curve"/>
      <point x="238" y="-171" type="line"/>
      <point x="265" y="-180"/>
      <point x="283" y="-187"/>
    </contour>
  </outline>
</glyph>
<glyph name="ecedilla" format="2">
  <advance width="540"/>
  <unicode hex="0229"/>
  <outline>
    <contour>
      <point x="202" y="-221" type="curve" smooth="yes"/>
      <point x="272" y="-221"/>
      <point x="340" y="-189"/>
      <point x="340" y="-111" type="curve" smooth="yes"/>
      <point x="340" y="-84"/>
      <point x="325" y="-59"/>
      <point x="296" y="-44" type="curve"/>
      <point x="301" y="-36"/>
      <point x="309" y="-23"/>
      <point x="318" y="-11" type="curve"/>
      <point x="366" y="-6"/>
      <point x="407" y="4"/>
      <point x="435" y="15" type="curve"/>
      <point x="424" y="132" type="line"/>
      <point x="385" y="117"/>
      <point x="340" y="110"/>
      <point x="297" y="110" type="curve" smooth="yes"/>
      <point x="230" y="110"/>
      <point x="201" y="132"/>
      <point x="192" y="187" type="curve"/>
      <point x="192" y="187"/>
      <point x="192" y="187"/>
      <point x="192" y="187" type="curve" smooth="yes"/>
      <point x="384" y="187"/>
      <point x="525" y="243"/>
      <point x="525" y="392" type="curve" smooth="yes"/>
      <point x="525" y="485"/>
      <point x="453" y="540"/>
      <point x="360" y="540" type="curve" smooth="yes"/>
      <point x="170" y="540"/>
      <point x="45" y="376"/>
      <point x="45" y="206" type="curve" smooth="yes"/>
      <point x="45" y="96"/>
      <point x="93" y="5"/>
      <point x="224" y="-11" type="curve"/>
      <point x="211" y="-30"/>
      <point x="197" y="-50"/>
      <point x="188" y="-65" type="curve"/>
      <point x="229" y="-81"/>
      <point x="238" y="-91"/>
      <point x="238" y="-106" type="curve" smooth="yes"/>
      <point x="238" y="-122"/>
      <point x="225" y="-130"/>
      <point x="198" y="-130" type="curve" smooth="yes"/>
      <point x="178" y="-130"/>
      <point x="154" y="-124"/>
      <point x="137" y="-116" type="curve"/>
      <point x="101" y="-198" type="line"/>
      <point x="129" y="-213"/>
      <point x="166" y="-221"/>
    </contour>
    <contour>
      <point x="196" y="289" type="curve"/>
      <point x="212" y="369"/>
      <point x="268" y="422"/>
      <point x="336" y="422" type="curve" smooth="yes"/>
      <point x="371" y="422"/>
      <point x="390" y="405"/>
      <point x="390" y="374" type="curve" smooth="yes"/>
      <point x="390" y="338"/>
      <point x="361" y="294"/>
    </contour>
  </outline>
</glyph>
<glyph name="lcurl" format="2">
  <advance width="495"/>
  <unicode hex="0234"/>
  <outline>
    <contour>
      <point x="206" y="-145" type="curve" smooth="yes"/>
      <point x="351" y="-145"/>
      <point x="430" y="-36"/>
      <point x="430" y="59" type="curve" smooth="yes"/>
      <point x="430" y="131"/>
      <point x="384" y="195"/>
      <point x="287" y="195" type="curve" smooth="yes"/>
      <point x="268" y="195"/>
      <point x="249" y="192"/>
      <point x="230" y="186" type="curve"/>
      <point x="381" y="815" type="line"/>
      <point x="226" y="791" type="line"/>
      <point x="52" y="68" type="line"/>
      <point x="-95" y="-63" type="line"/>
      <point x="-36" y="-135" type="line"/>
      <point x="78" y="-36" type="line"/>
      <point x="78" y="-36"/>
      <point x="78" y="-36"/>
      <point x="78" y="-36" type="curve"/>
      <point x="94" y="-108"/>
      <point x="148" y="-145"/>
    </contour>
    <contour>
      <point x="234" y="-35" type="curve" smooth="yes"/>
      <point x="199" y="-35"/>
      <point x="188" y="-14"/>
      <point x="188" y="10" type="curve" smooth="yes"/>
      <point x="188" y="19"/>
      <point x="190" y="28"/>
      <point x="198" y="59" type="curve"/>
      <point x="215" y="74"/>
      <point x="241" y="82"/>
      <point x="262" y="82" type="curve" smooth="yes"/>
      <point x="291" y="82"/>
      <point x="304" y="63"/>
      <point x="304" y="40" type="curve" smooth="yes"/>
      <point x="304" y="6"/>
      <point x="277" y="-35"/>
    </contour>
  </outline>
</glyph>
<glyph name="qpdigraph" format="2">
  <advance width="882"/>
  <unicode hex="0239"/>
  <outline>
    <contour>
      <point x="269" y="-185" type="line"/>
      <point x="419" y="-185" type="line"/>
      <point x="462" y="0" type="line"/>
      <point x="483" y="-5"/>
      <point x="503" y="-8"/>
      <point x="527" y="-8" type="curve" smooth="yes"/>
      <point x="739" y="-8"/>
      <point x="850" y="172"/>
      <point x="850" y="327" type="curve" smooth="yes"/>
      <point x="850" y="454"/>
      <point x="788" y="540"/>
      <point x="663" y="540" type="curve" smooth="yes"/>
      <point x="607" y="540"/>
      <point x="563" y="529"/>
      <point x="520" y="509" type="curve"/>
      <point x="468" y="529"/>
      <point x="424" y="540"/>
      <point x="371" y="540" type="curve" smooth="yes"/>
      <point x="188" y="540"/>
      <point x="46" y="399"/>
      <point x="46" y="204" type="curve" smooth="yes"/>
      <point x="46" y="85"/>
      <point x="104" y="-11"/>
      <point x="232" y="-11" type="curve" smooth="yes"/>
      <point x="263" y="-11"/>
      <point x="288" y="-4"/>
      <point x="315" y="8" type="curve"/>
    </contour>
    <contour>
      <point x="269" y="113" type="curve" smooth="yes"/>
      <point x="212" y="113"/>
      <point x="194" y="151"/>
      <point x="194" y="215" type="curve" smooth="yes"/>
      <point x="194" y="318"/>
      <point x="268" y="417"/>
      <point x="362" y="417" type="curve" smooth="yes"/>
      <point x="382" y="417"/>
      <point x="395" y="415"/>
      <point x="412" y="412" type="curve"/>
      <point x="346" y="139" type="line"/>
      <point x="322" y="118"/>
      <point x="288" y="113"/>
    </contour>
    <contour>
      <point x="540" y="115" type="curve" smooth="yes"/>
      <point x="510" y="115"/>
      <point x="508" y="116"/>
      <point x="491" y="119" type="curve"/>
      <point x="557" y="400" type="line"/>
      <point x="565" y="407"/>
      <point x="599" y="415"/>
      <point x="626" y="415" type="curve" smooth="yes"/>
      <point x="683" y="415"/>
      <point x="702" y="376"/>
      <point x="702" y="312" type="curve" smooth="yes"/>
      <point x="702" y="212"/>
      <point x="634" y="115"/>
    </contour>
  </outline>
</glyph>
<glyph name="Cstroke" format="2">
  <advance width="650"/>
  <unicode hex="023B"/>
  <outline>
    <contour>
      <point x="216" y="-102" type="line"/>
      <point x="271" y="-5" type="line"/>
      <point x="294" y="-11"/>
      <point x="319" y="-14"/>
      <point x="346" y="-14" type="curve" smooth="yes"/>
      <point x="442" y="-14"/>
      <point x="504" y="3"/>
      <point x="559" y="30" type="curve"/>
      <point x="542" y="157" type="line"/>
      <point x="495" y="134"/>
      <point x="442" y="121"/>
      <point x="378" y="121" type="curve" smooth="yes"/>
      <point x="366" y="121"/>
      <point x="356" y="122"/>
      <point x="345" y="123" type="curve"/>
      <point x="591" y="555" type="line"/>
      <point x="607" y="548"/>
      <point x="624" y="541"/>
      <point x="641" y="530" type="curve"/>
      <point x="710" y="650" type="line"/>
      <point x="695" y="659"/>
      <point x="678" y="667"/>
      <point x="660" y="674" type="curve"/>
      <point x="704" y="751" type="line"/>
      <point x="615" y="790" type="line"/>
      <point x="565" y="701" type="line"/>
      <point x="534" y="706"/>
      <point x="508" y="709"/>
      <point x="486" y="709" type="curve" smooth="yes"/>
      <point x="218" y="709"/>
      <point x="68" y="488"/>
      <point x="68" y="280" type="curve" smooth="yes"/>
      <point x="68" y="167"/>
      <point x="111" y="81"/>
      <point x="184" y="32" type="curve"/>
      <point x="130" y="-64" type="line"/>
    </contour>
    <contour>
      <point x="262" y="168" type="line"/>
      <point x="240" y="196"/>
      <point x="229" y="236"/>
      <point x="229" y="289" type="curve" smooth="yes"/>
      <point x="229" y="444"/>
      <point x="324" y="576"/>
      <point x="476" y="576" type="curve" smooth="yes"/>
      <point x="483" y="576"/>
      <point x="486" y="576"/>
      <point x="493" y="575" type="curve"/>
    </contour>
  </outline>
</glyph>
<glyph name="Ubar" format="2">
  <advance width="767"/>
  <unicode hex="0244"/>
  <outline>
    <contour>
      <point x="345" y="-14" type="curve" smooth="yes"/>
      <point x="513" y="-14"/>
      <point x="613" y="64"/>
      <point x="658" y="252" type="curve" smooth="yes"/>
      <point x="676" y="327" type="line"/>
      <point x="745" y="327" type="line"/>
      <point x="772" y="437" type="line"/>
      <point x="702" y="437" type="line"/>
      <point x="763" y="693" type="line"/>
      <point x="607" y="693" type="line"/>
      <point x="546" y="437" type="line"/>
      <point x="313" y="437" type="line"/>
      <point x="374" y="693" type="line"/>
      <point x="218" y="693" type="line"/>
      <point x="157" y="437" type="line"/>
      <point x="82" y="437" type="line"/>
      <point x="55" y="327" type="line"/>
      <point x="130" y="327" type="line"/>
      <point x="125" y="305" type="line" smooth="yes"/>
      <point x="115" y="266"/>
      <point x="110" y="229"/>
      <point x="110" y="194" type="curve" smooth="yes"/>
      <point x="110" y="73"/>
      <point x="173" y="-14"/>
    </contour>
    <contour>
      <point x="366" y="121" type="curve" smooth="yes"/>
      <point x="288" y="121"/>
      <point x="266" y="158"/>
      <point x="266" y="210" type="curve" smooth="yes"/>
      <point x="266" y="233"/>
      <point x="269" y="258"/>
      <point x="276" y="283" type="curve"/>
      <point x="286" y="327" type="line"/>
      <point x="520" y="327" type="line"/>
      <point x="505" y="265" type="line" smooth="yes"/>
      <point x="482" y="173"/>
      <point x="446" y="121"/>
    </contour>
  </outline>
</glyph>
<glyph name="Jstroke" format="2">
  <advance width="533"/>
  <unicode hex="0248"/>
  <outline>
    <contour>
      <point x="153" y="-14" type="curve" smooth="yes"/>
      <point x="331" y="-14"/>
      <point x="398" y="73"/>
      <point x="430" y="210" type="curve" smooth="yes"/>
      <point x="454" y="311" type="line"/>
      <point x="527" y="311" type="line"/>
      <point x="553" y="421" type="line"/>
      <point x="481" y="421" type="line"/>
      <point x="546" y="693" type="line"/>
      <point x="390" y="693" type="line"/>
      <point x="325" y="421" type="line"/>
      <point x="205" y="421" type="line"/>
      <point x="179" y="311" type="line"/>
      <point x="298" y="311" type="line"/>
      <point x="282" y="241" type="line" smooth="yes"/>
      <point x="261" y="153"/>
      <point x="229" y="120"/>
      <point x="154" y="120" type="curve" smooth="yes"/>
      <point x="102" y="120"/>
      <point x="66" y="140"/>
      <point x="34" y="163" type="curve"/>
      <point x="-35" y="47" type="line"/>
      <point x="14" y="10"/>
      <point x="81" y="-14"/>
    </contour>
  </outline>
</glyph>
<glyph name="qhooktail" format="2">
  <advance width="598"/>
  <unicode hex="024B"/>
  <outline>
    <contour>
      <point x="420" y="-187" type="curve" smooth="yes"/>
      <point x="459" y="-187"/>
      <point x="493" y="-181"/>
      <point x="528" y="-172" type="curve"/>
      <point x="539" y="-55" type="line"/>
      <point x="524" y="-58"/>
      <point x="505" y="-62"/>
      <point x="486" y="-62" type="curve" smooth="yes"/>
      <point x="466" y="-62"/>
      <point x="449" y="-55"/>
      <point x="449" y="-30" type="curve" smooth="yes"/>
      <point x="449" y="-17"/>
      <point x="453" y="-2"/>
      <point x="456" y="11" type="curve" smooth="yes"/>
      <point x="573" y="499" type="line"/>
      <point x="496" y="536"/>
      <point x="393" y="538"/>
      <point x="368" y="538" type="curve" smooth="yes"/>
      <point x="184" y="538"/>
      <point x="45" y="389"/>
      <point x="45" y="204" type="curve" smooth="yes"/>
      <point x="45" y="79"/>
      <point x="98" y="-14"/>
      <point x="215" y="-14" type="curve" smooth="yes"/>
      <point x="245" y="-14"/>
      <point x="279" y="-7"/>
      <point x="316" y="7" type="curve"/>
      <point x="306" y="-43" type="line"/>
      <point x="303" y="-54"/>
      <point x="302" y="-67"/>
      <point x="302" y="-80" type="curve" smooth="yes"/>
      <point x="302" y="-139"/>
      <point x="335" y="-187"/>
    </contour>
    <contour>
      <point x="268" y="111" type="curve" smooth="yes"/>
      <point x="211" y="111"/>
      <point x="193" y="151"/>
      <point x="193" y="215" type="curve" smooth="yes"/>
      <point x="193" y="318"/>
      <point x="264" y="415"/>
      <point x="355" y="415" type="curve" smooth="yes"/>
      <point x="385" y="415"/>
      <point x="387" y="414"/>
      <point x="404" y="411" type="curve"/>
      <point x="337" y="139" type="line"/>
      <point x="314" y="119"/>
      <point x="293" y="111"/>
    </contour>
  </outline>
</glyph>
<glyph name="ystroke" format="2">
  <advance width="557"/>
  <unicode hex="024F"/>
  <outline>
    <contour>
      <point x="27" y="-185" type="curve" smooth="yes"/>
      <point x="178" y="-185"/>
      <point x="255" y="-67"/>
      <point x="327" y="38" type="curve" smooth="yes"/>
      <point x="378" y="113"/>
      <point x="423" y="186"/>
      <point x="466" y="270" type="curve"/>
      <point x="551" y="270" type="line"/>
      <point x="574" y="363" type="line"/>
      <point x="511" y="363" type="line"/>
      <point x="534" y="414"/>
      <point x="554" y="466"/>
      <point x="577" y="526" type="curve"/>
      <point x="419" y="526" type="line"/>
      <point x="402" y="469"/>
      <point x="383" y="414"/>
      <point x="362" y="363" type="curve"/>
      <point x="244" y="363" type="line"/>
      <point x="239" y="422"/>
      <point x="236" y="479"/>
      <point x="235" y="526" type="curve"/>
      <point x="82" y="526" type="line"/>
      <point x="85" y="467"/>
      <point x="89" y="414"/>
      <point x="96" y="363" type="curve"/>
      <point x="51" y="363" type="line"/>
      <point x="29" y="270" type="line"/>
      <point x="108" y="270" type="line"/>
      <point x="123" y="175"/>
      <point x="140" y="94"/>
      <point x="159" y="22" type="curve"/>
      <point x="131" y="-29"/>
      <point x="87" y="-61"/>
      <point x="40" y="-61" type="curve" smooth="yes"/>
      <point x="9" y="-61"/>
      <point x="-8" y="-55"/>
      <point x="-35" y="-44" type="curve"/>
      <point x="-80" y="-161" type="line"/>
      <point x="-51" y="-176"/>
      <point x="-20" y="-185"/>
    </contour>
    <contour>
      <point x="261" y="152" type="curve"/>
      <point x="250" y="197"/>
      <point x="246" y="231"/>
      <point x="242" y="270" type="curve"/>
      <point x="331" y="270" type="line"/>
      <point x="311" y="229"/>
      <point x="286" y="187"/>
    </contour>
  </outline>
</glyph>
<glyph name="caron" format="2">
  <advance width="408"/>
  <unicode hex="02C7"/>
  <outline>
    <contour>
      <point x="340" y="585" type="line"/>
      <point x="519" y="730" type="line"/>
      <point x="473" y="791" type="line"/>
      <point x="360" y="715" type="line"/>
      <point x="277" y="793" type="line"/>
      <point x="217" y="740" type="line"/>
    </contour>
  </outline>
</glyph>
<glyph name="breveinvertedcomb" format="2">
  <unicode hex="0311"/>
  <anchor x="315" y="526" name="_top"/>
  <anchor x="376" y="776" name="top"/>
  <outline>
    <contour>
      <point x="175" y="590" type="curve"/>
      <point x="277" y="590" type="line"/>
      <point x="285" y="637"/>
      <point x="312" y="661"/>
      <point x="344" y="661" type="curve" smooth="yes"/>
      <point x="377" y="661"/>
      <point x="390" y="642"/>
      <point x="390" y="610" type="curve" smooth="yes"/>
      <point x="390" y="603"/>
      <point x="389" y="597"/>
      <point x="388" y="590" type="curve"/>
      <point x="489" y="590" type="line"/>
      <point x="492" y="601"/>
      <point x="493" y="612"/>
      <point x="493" y="624" type="curve" smooth="yes"/>
      <point x="493" y="711"/>
      <point x="426" y="756"/>
      <point x="354" y="756" type="curve" smooth="yes"/>
      <point x="272" y="756"/>
      <point x="183" y="701"/>
    </contour>
  </outline>
</glyph>
<glyph name="commaaccentcomb" format="2">
  <unicode hex="0326"/>
  <anchor x="124" y="0" name="_bottom"/>
  <anchor x="33" y="-215" name="bottom"/>
  <outline>
    <contour>
      <point x="5" y="-215" type="curve" smooth="yes"/>
      <point x="84" y="-215"/>
      <point x="154" y="-176"/>
      <point x="167" y="-50" type="curve"/>
      <point x="49" y="-50" type="line"/>
      <point x="41" y="-92"/>
      <point x="35" y="-129"/>
      <point x="-17" y="-129" type="curve" smooth="yes"/>
      <point x="-21" y="-129"/>
      <point x="-26" y="-129"/>
      <point x="-31" y="-128" type="curve"/>
      <point x="-52" y="-207" type="line"/>
      <point x="-33" y="-212"/>
      <point x="-14" y="-215"/>
    </contour>
  </outline>
</glyph>
<glyph name="dieresistonos" format="2">
  <advance width="625"/>
  <unicode hex="0385"/>
  <anchor x="368" y="526" name="_top"/>
  <outline>
    <contour>
      <point x="376" y="583" type="line"/>
      <point x="504" y="747" type="line"/>
      <point x="425" y="809" type="line"/>
      <point x="319" y="622" type="line"/>
    </contour>
    <contour>
      <point x="235" y="604" type="curve" smooth="yes"/>
      <point x="286" y="604"/>
      <point x="316" y="645"/>
      <point x="316" y="686" type="curve" smooth="yes"/>
      <point x="316" y="727"/>
      <point x="287" y="751"/>
      <point x="250" y="751" type="curve" smooth="yes"/>
      <point x="207" y="751"/>
      <point x="168" y="720"/>
      <point x="168" y="669" type="curve" smooth="yes"/>
      <point x="168" y="629"/>
      <point x="196" y="604"/>
    </contour>
    <contour>
      <point x="561" y="604" type="curve" smooth="yes"/>
      <point x="612" y="604"/>
      <point x="642" y="645"/>
      <point x="642" y="686" type="curve" smooth="yes"/>
      <point x="642" y="727"/>
      <point x="613" y="751"/>
      <point x="576" y="751" type="curve" smooth="yes"/>
      <point x="535" y="751"/>
      <point x="494" y="721"/>
      <point x="494" y="669" type="curve" smooth="yes"/>
      <point x="494" y="629"/>
      <point x="522" y="604"/>
    </contour>
  </outline>
</glyph>
<glyph name="Delta" format="2">
  <advance width="725"/>
  <unicode hex="0394"/>
  <outline>
    <contour>
      <point x="-40" y="0" type="curve"/>
      <point x="635" y="0" type="line"/>
      <point x="603" y="291"/>
      <point x="578" y="480"/>
      <point x="530" y="693" type="curve"/>
      <point x="392" y="693" type="line"/>
      <point x="240" y="480"/>
      <point x="123" y="293"/>
    </contour>
    <contour>
      <point x="186" y="130" type="line"/>
      <point x="278" y="297"/>
      <point x="359" y="432"/>
      <point x="427" y="541" type="curve"/>
      <point x="438" y="453"/>
      <point x="451" y="295"/>
      <point x="467" y="130" type="curve"/>
    </contour>
  </outline>
</glyph>
<glyph name="Theta" format="2">
  <advance width="767"/>
  <unicode hex="0398"/>
  <outline>
    <contour>
      <point x="346" y="-14" type="curve" smooth="yes"/>
      <point x="594" y="-14"/>
      <point x="739" y="209"/>
      <point x="739" y="418" type="curve" smooth="yes"/>
      <point x="739" y="599"/>
      <point x="624" y="709"/>
      <point x="461" y="709" type="curve" smooth="yes"/>
      <point x="216" y="709"/>
      <point x="68" y="484"/>
      <point x="68" y="277" type="curve" smooth="yes"/>
      <point x="68" y="96"/>
      <point x="183" y="-14"/>
    </contour>
    <contour>
      <point x="362" y="120" type="curve" smooth="yes"/>
      <point x="267" y="120"/>
      <point x="228" y="188"/>
      <point x="228" y="288" type="curve" smooth="yes"/>
      <point x="228" y="436"/>
      <point x="322" y="575"/>
      <point x="445" y="575" type="curve" smooth="yes"/>
      <point x="540" y="575"/>
      <point x="579" y="507"/>
      <point x="579" y="407" type="curve" smooth="yes"/>
      <point x="579" y="259"/>
      <point x="485" y="120"/>
    </contour>
    <contour>
      <point x="279" y="286" type="line"/>
      <point x="502" y="286" type="line"/>
      <point x="531" y="410" type="line"/>
      <point x="308" y="410" type="line"/>
    </contour>
  </outline>
</glyph>
<glyph name="Sigma" format="2">
  <advance width="590"/>
  <unicode hex="03A3"/>
  <outline>
    <contour>
      <point x="-25" y="0" type="line"/>
      <point x="478" y="0" type="line"/>
      <point x="510" y="131" type="line"/>
      <point x="207" y="131" type="line"/>
      <point x="266" y="187"/>
      <point x="386" y="289"/>
      <point x="439" y="334" type="curve"/>
      <point x="398" y="402"/>
      <point x="349" y="491"/>
      <point x="310" y="562" type="curve"/>
      <point x="613" y="562" type="line"/>
      <point x="645" y="693" type="line"/>
      <point x="156" y="693" type="line"/>
      <point x="131" y="592" type="line"/>
      <point x="179" y="505"/>
      <point x="216" y="437"/>
      <point x="261" y="358" type="curve"/>
      <point x="173" y="279"/>
      <point x="89" y="196"/>
      <point x="1" y="108" type="curve"/>
    </contour>
  </outline>
</glyph>
<glyph name="Psi" format="2">
  <advance width="829"/>
  <unicode hex="03A8"/>
  <outline>
    <contour>
      <point x="271" y="0" type="line"/>
      <point x="418" y="0" type="line"/>
      <point x="458" y="165" type="line"/>
      <point x="686" y="173"/>
      <point x="759" y="278"/>
      <point x="801" y="453" type="curve" smooth="yes"/>
      <point x="859" y="693" type="line"/>
      <point x="708" y="693" type="line"/>
      <point x="654" y="471" type="line" smooth="yes"/>
      <point x="625" y="351"/>
      <point x="580" y="299"/>
      <point x="490" y="291" type="curve"/>
      <point x="587" y="693" type="line"/>
      <point x="436" y="693" type="line"/>
      <point x="339" y="291" type="line"/>
      <point x="264" y="299"/>
      <point x="246" y="320"/>
      <point x="246" y="375" type="curve" smooth="yes"/>
      <point x="246" y="399"/>
      <point x="251" y="431"/>
      <point x="261" y="471" type="curve" smooth="yes"/>
      <point x="315" y="693" type="line"/>
      <point x="164" y="693" type="line"/>
      <point x="106" y="453" type="line" smooth="yes"/>
      <point x="99" y="422"/>
      <point x="95" y="394"/>
      <point x="95" y="371" type="curve" smooth="yes"/>
      <point x="95" y="246"/>
      <point x="172" y="180"/>
      <point x="311" y="165" type="curve"/>
    </contour>
  </outline>
</glyph>
<glyph name="Omega" format="2">
  <advance width="817"/>
  <unicode hex="03A9"/>
  <outline>
    <contour>
      <point x="5" y="0" type="line"/>
      <point x="291" y="0" type="line"/>
      <point x="319" y="116" type="line"/>
      <point x="274" y="161"/>
      <point x="242" y="227"/>
      <point x="242" y="320" type="curve" smooth="yes"/>
      <point x="242" y="489"/>
      <point x="343" y="576"/>
      <point x="453" y="576" type="curve" smooth="yes"/>
      <point x="558" y="576"/>
      <point x="613" y="523"/>
      <point x="613" y="423" type="curve" smooth="yes"/>
      <point x="613" y="307"/>
      <point x="525" y="174"/>
      <point x="419" y="116" type="curve"/>
      <point x="391" y="0" type="line"/>
      <point x="689" y="0" type="line"/>
      <point x="718" y="124" type="line"/>
      <point x="600" y="124" type="line"/>
      <point x="707" y="203"/>
      <point x="772" y="320"/>
      <point x="772" y="440" type="curve" smooth="yes"/>
      <point x="772" y="619"/>
      <point x="634" y="710"/>
      <point x="474" y="710" type="curve" smooth="yes"/>
      <point x="278" y="710"/>
      <point x="90" y="581"/>
      <point x="90" y="336" type="curve" smooth="yes"/>
      <point x="90" y="264"/>
      <point x="111" y="189"/>
      <point x="156" y="124" type="curve"/>
      <point x="34" y="124" type="line"/>
    </contour>
  </outline>
</glyph>
<glyph name="beta" format="2">
  <advance width="647"/>
  <unicode hex="03B2"/>
  <outline>
    <contour>
      <point x="-25" y="-185" type="line"/>
      <point x="123" y="-185" type="line"/>
      <point x="171" y="16" type="line"/>
      <point x="215" y="0"/>
      <point x="260" y="-8"/>
      <point x="307" y="-8" type="curve" smooth="yes"/>
      <point x="508" y="-8"/>
      <point x="597" y="119"/>
      <point x="597" y="237" type="curve" smooth="yes"/>
      <point x="597" y="313"/>
      <point x="560" y="385"/>
      <point x="492" y="417" type="curve"/>
      <point x="577" y="460"/>
      <point x="622" y="536"/>
      <point x="622" y="609" type="curve" smooth="yes"/>
      <point x="622" y="713"/>
      <point x="547" y="776"/>
      <point x="415" y="776" type="curve" smooth="yes"/>
      <point x="286" y="776"/>
      <point x="190" y="712"/>
      <point x="154" y="561" type="curve" smooth="yes"/>
    </contour>
    <contour>
      <point x="304" y="118" type="curve" smooth="yes"/>
      <point x="269" y="118"/>
      <point x="233" y="126"/>
      <point x="202" y="145" type="curve"/>
      <point x="301" y="556" type="line"/>
      <point x="316" y="617"/>
      <point x="362" y="645"/>
      <point x="403" y="645" type="curve" smooth="yes"/>
      <point x="442" y="645"/>
      <point x="472" y="622"/>
      <point x="472" y="579" type="curve" smooth="yes"/>
      <point x="472" y="527"/>
      <point x="428" y="465"/>
      <point x="359" y="465" type="curve" smooth="yes"/>
      <point x="351" y="465" type="line"/>
      <point x="323" y="345" type="line"/>
      <point x="332" y="345" type="line" smooth="yes"/>
      <point x="410" y="345"/>
      <point x="442" y="299"/>
      <point x="442" y="247" type="curve" smooth="yes"/>
      <point x="442" y="186"/>
      <point x="394" y="118"/>
    </contour>
  </outline>
</glyph>
<glyph name="delta" format="2">
  <advance width="585"/>
  <unicode hex="03B4"/>
  <outline>
    <contour>
      <point x="257" y="-14" type="curve" smooth="yes"/>
      <point x="422" y="-14"/>
      <point x="547" y="116"/>
      <point x="547" y="275" type="curve" smooth="yes"/>
      <point x="547" y="351"/>
      <point x="519" y="429"/>
      <point x="366" y="557" type="curve" smooth="yes"/>
      <point x="343" y="576"/>
      <point x="335" y="592"/>
      <point x="335" y="612" type="curve" smooth="yes"/>
      <point x="335" y="639"/>
      <point x="357" y="660"/>
      <point x="405" y="660" type="curve" smooth="yes"/>
      <point x="455" y="660"/>
      <point x="517" y="640"/>
      <point x="542" y="624" type="curve"/>
      <point x="600" y="735" type="line"/>
      <point x="555" y="762"/>
      <point x="491" y="777"/>
      <point x="427" y="777" type="curve" smooth="yes"/>
      <point x="283" y="777"/>
      <point x="193" y="719"/>
      <point x="193" y="606" type="curve" smooth="yes"/>
      <point x="193" y="567"/>
      <point x="208" y="526"/>
      <point x="241" y="487" type="curve"/>
      <point x="108" y="423"/>
      <point x="45" y="306"/>
      <point x="45" y="201" type="curve" smooth="yes"/>
      <point x="45" y="54"/>
      <point x="145" y="-14"/>
    </contour>
    <contour>
      <point x="276" y="114" type="curve" smooth="yes"/>
      <point x="229" y="114"/>
      <point x="189" y="146"/>
      <point x="189" y="221" type="curve" smooth="yes"/>
      <point x="189" y="285"/>
      <point x="228" y="360"/>
      <point x="319" y="411" type="curve"/>
      <point x="378" y="357"/>
      <point x="398" y="304"/>
      <point x="398" y="255" type="curve" smooth="yes"/>
      <point x="398" y="178"/>
      <point x="347" y="114"/>
    </contour>
  </outline>
</glyph>
<glyph name="lambda" format="2">
  <advance width="556"/>
  <unicode hex="03BB"/>
  <outline>
    <contour>
      <point x="-25" y="0" type="curve"/>
      <point x="127" y="0" type="line"/>
      <point x="175" y="120"/>
      <point x="253" y="263"/>
      <point x="311" y="358" type="curve"/>
      <point x="322" y="253"/>
      <point x="325" y="91"/>
      <point x="328" y="0" type="curve"/>
      <point x="481" y="0" type="line"/>
      <point x="476" y="195"/>
      <point x="445" y="455"/>
      <point x="405" y="645" type="curve" smooth="yes"/>
      <point x="383" y="747"/>
      <point x="323" y="776"/>
      <point x="252" y="776" type="curve" smooth="yes"/>
      <point x="221" y="776"/>
      <point x="189" y="770"/>
      <point x="157" y="763" type="curve"/>
      <point x="150" y="642" type="line"/>
      <point x="169" y="647"/>
      <point x="186" y="649"/>
      <point x="202" y="649" type="curve" smooth="yes"/>
      <point x="263" y="649"/>
      <point x="275" y="610"/>
      <point x="286" y="530" type="curve"/>
      <point x="182" y="395"/>
      <point x="66" y="221"/>
    </contour>
  </outline>
</glyph>
<glyph name="nu" format="2">
  <advance width="549"/>
  <unicode hex="03BD"/>
  <outline>
    <contour>
      <point x="85" y="0" type="curve"/>
      <point x="249" y="0" type="line"/>
      <point x="409" y="166"/>
      <point x="515" y="330"/>
      <point x="588" y="526" type="curve"/>
      <point x="430" y="526" type="line"/>
      <point x="392" y="408"/>
      <point x="330" y="293"/>
      <point x="229" y="156" type="curve"/>
      <point x="243" y="268"/>
      <point x="246" y="403"/>
      <point x="237" y="526" type="curve"/>
      <point x="86" y="526" type="line"/>
      <point x="103" y="383"/>
      <point x="103" y="152"/>
    </contour>
  </outline>
</glyph>
<glyph name="xi" format="2">
  <advance width="498"/>
  <unicode hex="03BE"/>
  <outline>
    <contour>
      <point x="325" y="-190" type="line"/>
      <point x="378" y="-142"/>
      <point x="427" y="-73"/>
      <point x="427" y="-6" type="curve" smooth="yes"/>
      <point x="427" y="76"/>
      <point x="359" y="88"/>
      <point x="296" y="104" type="curve" smooth="yes"/>
      <point x="243" y="118"/>
      <point x="194" y="135"/>
      <point x="194" y="200" type="curve" smooth="yes"/>
      <point x="194" y="259"/>
      <point x="254" y="346"/>
      <point x="391" y="346" type="curve" smooth="yes"/>
      <point x="446" y="346" type="line"/>
      <point x="477" y="474" type="line"/>
      <point x="409" y="474" type="line" smooth="yes"/>
      <point x="348" y="474"/>
      <point x="303" y="492"/>
      <point x="303" y="544" type="curve" smooth="yes"/>
      <point x="303" y="612"/>
      <point x="357" y="653"/>
      <point x="429" y="653" type="curve" smooth="yes"/>
      <point x="460" y="653"/>
      <point x="492" y="646"/>
      <point x="524" y="631" type="curve"/>
      <point x="573" y="748" type="line"/>
      <point x="526" y="767"/>
      <point x="478" y="776"/>
      <point x="428" y="776" type="curve" smooth="yes"/>
      <point x="248" y="776"/>
      <point x="158" y="659"/>
      <point x="158" y="553" type="curve" smooth="yes"/>
      <point x="158" y="502"/>
      <point x="179" y="450"/>
      <point x="231" y="421" type="curve"/>
      <point x="99" y="392"/>
      <point x="35" y="278"/>
      <point x="35" y="181" type="curve" smooth="yes"/>
      <point x="35" y="109"/>
      <point x="69" y="45"/>
      <point x="144" y="22" type="curve" smooth="yes"/>
      <point x="223" y="-2"/>
      <point x="275" y="-5"/>
      <point x="275" y="-49" type="curve" smooth="yes"/>
      <point x="275" y="-76"/>
      <point x="257" y="-105"/>
      <point x="228" y="-136" type="curve"/>
    </contour>
  </outline>
</glyph>
<glyph name="tau" format="2">
  <advance width="483"/>
  <unicode hex="03C4"/>
  <outline>
    <contour>
      <point x="257" y="-12" type="curve" smooth="yes"/>
      <point x="294" y="-12"/>
      <point x="331" y="-6"/>
      <point x="366" y="3" type="curve"/>
      <point x="377" y="121" type="line"/>
      <point x="358" y="117"/>
      <point x="338" y="114"/>
      <point x="321" y="114" type="curve" smooth="yes"/>
      <point x="282" y="114"/>
      <point x="273" y="133"/>
      <point x="273" y="156" type="curve" smooth="yes"/>
      <point x="273" y="172"/>
      <point x="278" y="188"/>
      <point x="281" y="200" type="curve" smooth="yes"/>
      <point x="329" y="402" type="line"/>
      <point x="468" y="402" type="line"/>
      <point x="498" y="526" type="line"/>
      <point x="75" y="526" type="line"/>
      <point x="45" y="402" type="line"/>
      <point x="180" y="402" type="line"/>
      <point x="135" y="212" type="line"/>
      <point x="124" y="172"/>
      <point x="119" y="137"/>
      <point x="119" y="106" type="curve" smooth="yes"/>
      <point x="119" y="14"/>
      <point x="185" y="-12"/>
    </contour>
  </outline>
</glyph>
<glyph name="phi" format="2">
  <advance width="788"/>
  <unicode hex="03C6"/>
  <outline>
    <contour>
      <point x="226" y="-185" type="line"/>
      <point x="367" y="-185" type="line"/>
      <point x="409" y="-11" type="line"/>
      <point x="631" y="-6"/>
      <point x="753" y="152"/>
      <point x="753" y="295" type="curve" smooth="yes"/>
      <point x="753" y="467"/>
      <point x="612" y="540"/>
      <point x="456" y="540" type="curve" smooth="yes"/>
      <point x="250" y="540"/>
      <point x="55" y="437"/>
      <point x="55" y="225" type="curve" smooth="yes"/>
      <point x="55" y="108"/>
      <point x="125" y="16"/>
      <point x="268" y="-8" type="curve"/>
    </contour>
    <contour>
      <point x="297" y="106" type="line"/>
      <point x="234" y="119"/>
      <point x="206" y="175"/>
      <point x="206" y="225" type="curve" smooth="yes"/>
      <point x="206" y="327"/>
      <point x="280" y="414"/>
      <point x="373" y="422" type="curve"/>
    </contour>
    <contour>
      <point x="433" y="96" type="curve"/>
      <point x="509" y="412" type="line"/>
      <point x="572" y="399"/>
      <point x="600" y="343"/>
      <point x="600" y="293" type="curve" smooth="yes"/>
      <point x="600" y="191"/>
      <point x="526" y="104"/>
    </contour>
  </outline>
</glyph>
<glyph name="omega" format="2">
  <advance width="844"/>
  <unicode hex="03C9"/>
  <anchor x="399" y="0" name="bottom"/>
  <anchor x="474" y="526" name="top"/>
  <outline>
    <contour>
      <point x="220" y="-11" type="curve" smooth="yes"/>
      <point x="285" y="-11"/>
      <point x="352" y="11"/>
      <point x="395" y="78" type="curve"/>
      <point x="431" y="14"/>
      <point x="474" y="-10"/>
      <point x="547" y="-10" type="curve" smooth="yes"/>
      <point x="663" y="-10"/>
      <point x="804" y="76"/>
      <point x="804" y="311" type="curve" smooth="yes"/>
      <point x="804" y="398"/>
      <point x="781" y="480"/>
      <point x="738" y="540" type="curve"/>
      <point x="614" y="498" type="line"/>
      <point x="638" y="451"/>
      <point x="654" y="384"/>
      <point x="654" y="320" type="curve" smooth="yes"/>
      <point x="654" y="214"/>
      <point x="617" y="114"/>
      <point x="546" y="114" type="curve" smooth="yes"/>
      <point x="501" y="114"/>
      <point x="489" y="143"/>
      <point x="489" y="180" type="curve" smooth="yes"/>
      <point x="489" y="207"/>
      <point x="495" y="239"/>
      <point x="502" y="264" type="curve"/>
      <point x="540" y="420" type="line"/>
      <point x="392" y="420" type="line"/>
      <point x="348" y="233" type="line" smooth="yes"/>
      <point x="329" y="153"/>
      <point x="309" y="114"/>
      <point x="254" y="114" type="curve" smooth="yes"/>
      <point x="211" y="114"/>
      <point x="194" y="150"/>
      <point x="194" y="201" type="curve" smooth="yes"/>
      <point x="194" y="288"/>
      <point x="250" y="405"/>
      <point x="324" y="482" type="curve"/>
      <point x="212" y="540" type="line"/>
      <point x="114" y="463"/>
      <point x="45" y="307"/>
      <point x="45" y="183" type="curve" smooth="yes"/>
      <point x="45" y="48"/>
      <point x="129" y="-11"/>
    </contour>
  </outline>
</glyph>
<glyph name="E-cy" format="2">
  <advance width="690"/>
  <unicode hex="0404"/>
  <outline>
    <contour>
      <point x="360" y="-14" type="curve" smooth="yes"/>
      <point x="440" y="-14"/>
      <point x="507" y="2"/>
      <point x="595" y="37" type="curve"/>
      <point x="575" y="166" type="line"/>
      <point x="518" y="141"/>
      <point x="449" y="122"/>
      <point x="388" y="122" type="curve" smooth="yes"/>
      <point x="301" y="122"/>
      <point x="230" y="161"/>
      <point x="230" y="286" type="curve" smooth="yes"/>
      <point x="230" y="286"/>
      <point x="230" y="286"/>
      <point x="230" y="286" type="curve"/>
      <point x="501" y="286" type="line"/>
      <point x="533" y="418" type="line"/>
      <point x="256" y="418" type="line"/>
      <point x="293" y="526"/>
      <point x="374" y="574"/>
      <point x="473" y="574" type="curve" smooth="yes"/>
      <point x="524" y="574"/>
      <point x="580" y="560"/>
      <point x="636" y="536" type="curve"/>
      <point x="700" y="660" type="line"/>
      <point x="632" y="695"/>
      <point x="562" y="710"/>
      <point x="494" y="710" type="curve" smooth="yes"/>
      <point x="201" y="710"/>
      <point x="71" y="486"/>
      <point x="71" y="289" type="curve" smooth="yes"/>
      <point x="71" y="93"/>
      <point x="173" y="-14"/>
    </contour>
  </outline>
</glyph>
<glyph name="Lje-cy" format="2">
  <advance width="1055"/>
  <unicode hex="0409"/>
  <outline>
    <contour>
      <point x="0" y="-14" type="line"/>
      <point x="104" y="-8"/>
      <point x="177" y="27"/>
      <point x="232" y="92" type="curve" smooth="yes"/>
      <point x="306" y="178"/>
      <point x="350" y="316"/>
      <point x="397" y="508" type="curve" smooth="yes"/>
      <point x="410" y="561" type="line"/>
      <point x="560" y="561" type="line"/>
      <point x="429" y="16" type="line"/>
      <point x="488" y="1"/>
      <point x="564" y="-7"/>
      <point x="635" y="-7" type="curve" smooth="yes"/>
      <point x="815" y="-7"/>
      <point x="999" y="53"/>
      <point x="999" y="253" type="curve" smooth="yes"/>
      <point x="999" y="378"/>
      <point x="930" y="447"/>
      <point x="738" y="447" type="curve" smooth="yes"/>
      <point x="721" y="447"/>
      <point x="704" y="447"/>
      <point x="687" y="447" type="curve"/>
      <point x="746" y="693" type="line"/>
      <point x="294" y="693" type="line"/>
      <point x="262" y="556" type="line" smooth="yes"/>
      <point x="228" y="411"/>
      <point x="192" y="280"/>
      <point x="127" y="200" type="curve" smooth="yes"/>
      <point x="91" y="155"/>
      <point x="45" y="127"/>
      <point x="-15" y="122" type="curve"/>
    </contour>
    <contour>
      <point x="674" y="124" type="curve" smooth="yes"/>
      <point x="651" y="124"/>
      <point x="630" y="125"/>
      <point x="613" y="128" type="curve"/>
      <point x="658" y="318" type="line"/>
      <point x="676" y="318"/>
      <point x="695" y="318"/>
      <point x="713" y="318" type="curve" smooth="yes"/>
      <point x="810" y="318"/>
      <point x="838" y="284"/>
      <point x="838" y="238" type="curve" smooth="yes"/>
      <point x="838" y="183"/>
      <point x="807" y="124"/>
    </contour>
  </outline>
</glyph>
<glyph name="Nje-cy" format="2">
  <advance width="1051"/>
  <unicode hex="040A"/>
  <outline>
    <contour>
      <point x="631" y="-7" type="curve" smooth="yes"/>
      <point x="811" y="-7"/>
      <point x="995" y="53"/>
      <point x="995" y="253" type="curve" smooth="yes"/>
      <point x="995" y="378"/>
      <point x="926" y="447"/>
      <point x="734" y="447" type="curve" smooth="yes"/>
      <point x="717" y="447"/>
      <point x="700" y="447"/>
      <point x="683" y="447" type="curve"/>
      <point x="742" y="693" type="line"/>
      <point x="588" y="693" type="line"/>
      <point x="524" y="427" type="line"/>
      <point x="278" y="427" type="line"/>
      <point x="342" y="693" type="line"/>
      <point x="186" y="693" type="line"/>
      <point x="20" y="0" type="line"/>
      <point x="175" y="0" type="line"/>
      <point x="246" y="295" type="line"/>
      <point x="492" y="295" type="line"/>
      <point x="425" y="16" type="line"/>
      <point x="484" y="1"/>
      <point x="560" y="-7"/>
    </contour>
    <contour>
      <point x="670" y="124" type="curve" smooth="yes"/>
      <point x="647" y="124"/>
      <point x="626" y="125"/>
      <point x="609" y="128" type="curve"/>
      <point x="654" y="318" type="line"/>
      <point x="672" y="318"/>
      <point x="691" y="318"/>
      <point x="709" y="318" type="curve" smooth="yes"/>
      <point x="806" y="318"/>
      <point x="834" y="284"/>
      <point x="834" y="238" type="curve" smooth="yes"/>
      <point x="834" y="183"/>
      <point x="803" y="124"/>
    </contour>
  </outline>
</glyph>
<glyph name="Tshe-cy" format="2">
  <advance width="769"/>
  <unicode hex="040B"/>
  <outline>
    <contour>
      <point x="144" y="0" type="line"/>
      <point x="300" y="0" type="line"/>
      <point x="372" y="299" type="line"/>
      <point x="395" y="306"/>
      <point x="423" y="310"/>
      <point x="451" y="310" type="curve" smooth="yes"/>
      <point x="506" y="310"/>
      <point x="545" y="298"/>
      <point x="545" y="245" type="curve" smooth="yes"/>
      <point x="545" y="234"/>
      <point x="544" y="221"/>
      <point x="540" y="206" type="curve" smooth="yes"/>
      <point x="490" y="0" type="line"/>
      <point x="646" y="0" type="line"/>
      <point x="695" y="200" type="line" smooth="yes"/>
      <point x="701" y="226"/>
      <point x="704" y="250"/>
      <point x="704" y="272" type="curve" smooth="yes"/>
      <point x="704" y="380"/>
      <point x="632" y="442"/>
      <point x="507" y="442" type="curve" smooth="yes"/>
      <point x="472" y="442"/>
      <point x="435" y="437"/>
      <point x="403" y="429" type="curve"/>
      <point x="435" y="560" type="line"/>
      <point x="654" y="560" type="line"/>
      <point x="686" y="693" type="line"/>
      <point x="122" y="693" type="line"/>
      <point x="90" y="560" type="line"/>
      <point x="279" y="560" type="line"/>
    </contour>
  </outline>
</glyph>
<glyph name="De-cy" format="2">
  <advance width="851"/>
  <unicode hex="0414"/>
  <outline>
    <contour>
      <point x="-57" y="-185" type="line"/>
      <point x="92" y="-185" type="line"/>
      <point x="137" y="0" type="line"/>
      <point x="599" y="0" type="line"/>
      <point x="554" y="-185" type="line"/>
      <point x="704" y="-185" type="line"/>
      <point x="780" y="132" type="line"/>
      <point x="661" y="132" type="line"/>
      <point x="796" y="693" type="line"/>
      <point x="343" y="693" type="line"/>
      <point x="325" y="613" type="line" smooth="yes"/>
      <point x="291" y="462"/>
      <point x="229" y="246"/>
      <point x="110" y="132" type="curve"/>
      <point x="19" y="132" type="line"/>
    </contour>
    <contour>
      <point x="287" y="132" type="line"/>
      <point x="378" y="258"/>
      <point x="410" y="369"/>
      <point x="452" y="538" type="curve"/>
      <point x="458" y="561" type="line"/>
      <point x="612" y="561" type="line"/>
      <point x="509" y="132" type="line"/>
    </contour>
  </outline>
</glyph>
<glyph name="Zhe-cy" format="2">
  <advance width="1021"/>
  <unicode hex="0416"/>
  <anchor x="878" y="0" name="bottomright"/>
  <anchor x="598" y="687" name="top"/>
  <outline>
    <contour>
      <point x="-25" y="0" type="curve"/>
      <point x="147" y="0" type="line"/>
      <point x="249" y="124"/>
      <point x="320" y="199"/>
      <point x="444" y="310" type="curve"/>
      <point x="369" y="0" type="line"/>
      <point x="521" y="0" type="line"/>
      <point x="596" y="310" type="line"/>
      <point x="663" y="208"/>
      <point x="702" y="134"/>
      <point x="753" y="0" type="curve"/>
      <point x="927" y="0" type="line"/>
      <point x="883" y="137"/>
      <point x="818" y="253"/>
      <point x="737" y="353" type="curve"/>
      <point x="855" y="466"/>
      <point x="973" y="580"/>
      <point x="1091" y="693" type="curve"/>
      <point x="904" y="693" type="line"/>
      <point x="810" y="600"/>
      <point x="715" y="508"/>
      <point x="621" y="415" type="curve"/>
      <point x="688" y="693" type="line"/>
      <point x="536" y="693" type="line"/>
      <point x="469" y="415" type="line"/>
      <point x="423" y="508"/>
      <point x="376" y="600"/>
      <point x="330" y="693" type="curve"/>
      <point x="142" y="693" type="line"/>
      <point x="205" y="587"/>
      <point x="269" y="482"/>
      <point x="332" y="376" type="curve"/>
      <point x="212" y="288"/>
      <point x="88" y="147"/>
    </contour>
  </outline>
</glyph>
<glyph name="Ze-cy" format="2">
  <advance width="614"/>
  <unicode hex="0417"/>
  <anchor x="184" y="0" name="bottom"/>
  <anchor x="383" y="687" name="top"/>
  <outline>
    <contour>
      <point x="215" y="-14" type="curve" smooth="yes"/>
      <point x="454" y="-14"/>
      <point x="545" y="120"/>
      <point x="545" y="227" type="curve" smooth="yes"/>
      <point x="545" y="275"/>
      <point x="525" y="329"/>
      <point x="456" y="365" type="curve"/>
      <point x="545" y="400"/>
      <point x="589" y="467"/>
      <point x="589" y="547" type="curve" smooth="yes"/>
      <point x="589" y="630"/>
      <point x="533" y="708"/>
      <point x="381" y="708" type="curve" smooth="yes"/>
      <point x="289" y="708"/>
      <point x="220" y="690"/>
      <point x="157" y="658" type="curve"/>
      <point x="179" y="528" type="line"/>
      <point x="234" y="559"/>
      <point x="295" y="575"/>
      <point x="343" y="575" type="curve" smooth="yes"/>
      <point x="391" y="575"/>
      <point x="426" y="558"/>
      <point x="426" y="522" type="curve" smooth="yes"/>
      <point x="426" y="447"/>
      <point x="346" y="423"/>
      <point x="275" y="423" type="curve" smooth="yes"/>
      <point x="190" y="423" type="line"/>
      <point x="159" y="295" type="line"/>
      <point x="271" y="295" type="line" smooth="yes"/>
      <point x="347" y="295"/>
      <point x="383" y="267"/>
      <point x="383" y="220" type="curve" smooth="yes"/>
      <point x="383" y="169"/>
      <point x="333" y="119"/>
      <point x="227" y="119" type="curve" smooth="yes"/>
      <point x="164" y="119"/>
      <point x="113" y="133"/>
      <point x="57" y="164" type="curve"/>
      <point x="-15" y="42" type="line"/>
      <point x="44" y="7"/>
      <point x="127" y="-14"/>
    </contour>
  </outline>
</glyph>
<glyph name="Che-cy" format="2">
  <advance width="665"/>
  <unicode hex="0427"/>
  <anchor x="532" y="0" name="bottomright"/>
  <anchor x="389" y="687" name="top"/>
  <outline>
    <contour>
      <point x="362" y="0" type="line"/>
      <point x="518" y="0" type="line"/>
      <point x="685" y="693" type="line"/>
      <point x="529" y="693" type="line"/>
      <point x="450" y="364" type="line"/>
      <point x="423" y="357"/>
      <point x="388" y="349"/>
      <point x="353" y="349" type="curve" smooth="yes"/>
      <point x="301" y="349"/>
      <point x="254" y="368"/>
      <point x="254" y="432" type="curve" smooth="yes"/>
      <point x="254" y="447"/>
      <point x="257" y="466"/>
      <point x="262" y="489" type="curve" smooth="yes"/>
      <point x="311" y="693" type="line"/>
      <point x="155" y="693" type="line"/>
      <point x="107" y="495" type="line" smooth="yes"/>
      <point x="99" y="462"/>
      <point x="95" y="432"/>
      <point x="95" y="406" type="curve" smooth="yes"/>
      <point x="95" y="270"/>
      <point x="195" y="217"/>
      <point x="308" y="217" type="curve" smooth="yes"/>
      <point x="345" y="217"/>
      <point x="382" y="222"/>
      <point x="418" y="232" type="curve"/>
    </contour>
  </outline>
</glyph>
<glyph name="Hardsign-cy" format="2">
  <advance width="746"/>
  <unicode hex="042A"/>
  <outline>
    <contour>
      <point x="328" y="-9" type="curve" smooth="yes"/>
      <point x="603" y="-9"/>
      <point x="691" y="126"/>
      <point x="691" y="253" type="curve" smooth="yes"/>
      <point x="691" y="361"/>
      <point x="648" y="465"/>
      <point x="441" y="465" type="curve" smooth="yes"/>
      <point x="426" y="465"/>
      <point x="395" y="463"/>
      <point x="386" y="462" type="curve"/>
      <point x="441" y="693" type="line"/>
      <point x="122" y="693" type="line"/>
      <point x="90" y="561" type="line"/>
      <point x="253" y="561" type="line"/>
      <point x="122" y="16" type="line"/>
      <point x="181" y="1"/>
      <point x="257" y="-9"/>
    </contour>
    <contour>
      <point x="368" y="123" type="curve" smooth="yes"/>
      <point x="345" y="123"/>
      <point x="322" y="124"/>
      <point x="305" y="127" type="curve"/>
      <point x="355" y="333" type="line"/>
      <point x="379" y="336"/>
      <point x="409" y="336"/>
      <point x="416" y="336" type="curve" smooth="yes"/>
      <point x="508" y="336"/>
      <point x="531" y="292"/>
      <point x="531" y="244" type="curve" smooth="yes"/>
      <point x="531" y="185"/>
      <point x="493" y="123"/>
    </contour>
  </outline>
</glyph>
<glyph name="Yu-cy" format="2">
  <advance width="1080"/>
  <unicode hex="042E"/>
  <outline>
    <contour>
      <point x="659" y="-14" type="curve" smooth="yes"/>
      <point x="907" y="-14"/>
      <point x="1052" y="209"/>
      <point x="1052" y="418" type="curve" smooth="yes"/>
      <point x="1052" y="599"/>
      <point x="937" y="709"/>
      <point x="774" y="709" type="curve" smooth="yes"/>
      <point x="588" y="709"/>
      <point x="457" y="580"/>
      <point x="406" y="427" type="curve"/>
      <point x="278" y="427" type="line"/>
      <point x="342" y="693" type="line"/>
      <point x="186" y="693" type="line"/>
      <point x="21" y="0" type="line"/>
      <point x="176" y="0" type="line"/>
      <point x="247" y="295" type="line"/>
      <point x="381" y="295" type="line"/>
      <point x="381" y="289"/>
      <point x="381" y="283"/>
      <point x="381" y="277" type="curve" smooth="yes"/>
      <point x="381" y="96"/>
      <point x="496" y="-14"/>
    </contour>
    <contour>
      <point x="675" y="120" type="curve" smooth="yes"/>
      <point x="580" y="120"/>
      <point x="541" y="188"/>
      <point x="541" y="288" type="curve" smooth="yes"/>
      <point x="541" y="436"/>
      <point x="635" y="575"/>
      <point x="758" y="575" type="curve" smooth="yes"/>
      <point x="853" y="575"/>
      <point x="892" y="507"/>
      <point x="892" y="407" type="curve" smooth="yes"/>
      <point x="892" y="259"/>
      <point x="798" y="120"/>
    </contour>
  </outline>
</glyph>
<glyph name="be-cy" format="2">
  <advance width="589"/>
  <unicode hex="0431"/>
  <outline>
    <contour>
      <point x="247" y="-14" type="curve" smooth="yes"/>
      <point x="408" y="-14"/>
      <point x="547" y="110"/>
      <point x="547" y="324" type="curve" smooth="yes"/>
      <point x="547" y="461"/>
      <point x="460" y="512"/>
      <point x="368" y="512" type="curve" smooth="yes"/>
      <point x="331" y="512"/>
      <point x="295" y="505"/>
      <point x="260" y="490" type="curve"/>
      <point x="308" y="604"/>
      <point x="394" y="624"/>
      <point x="482" y="634" type="curve" smooth="yes"/>
      <point x="522" y="638"/>
      <point x="561" y="641"/>
      <point x="598" y="649" type="curve"/>
      <point x="604" y="776" type="line"/>
      <point x="556" y="764"/>
      <point x="511" y="761"/>
      <point x="464" y="754" type="curve"/>
      <point x="273" y="731"/>
      <point x="162" y="642"/>
      <point x="113" y="494" type="curve" smooth="yes"/>
      <point x="89" y="422"/>
      <point x="55" y="306"/>
      <point x="55" y="203" type="curve" smooth="yes"/>
      <point x="55" y="48"/>
      <point x="132" y="-14"/>
    </contour>
    <contour>
      <point x="269" y="112" type="curve" smooth="yes"/>
      <point x="220" y="112"/>
      <point x="195" y="139"/>
      <point x="195" y="219" type="curve" smooth="yes"/>
      <point x="195" y="258"/>
      <point x="205" y="308"/>
      <point x="218" y="359" type="curve"/>
      <point x="254" y="378"/>
      <point x="294" y="391"/>
      <point x="329" y="391" type="curve" smooth="yes"/>
      <point x="374" y="391"/>
      <point x="408" y="368"/>
      <point x="408" y="301" type="curve" smooth="yes"/>
      <point x="408" y="186"/>
      <point x="337" y="112"/>
    </contour>
  </outline>
</glyph>
<glyph name="ge-cy" format="2">
  <advance width="493"/>
  <unicode hex="0433"/>
  <anchor x="195" y="0" name="bottomright"/>
  <anchor x="330" y="526" name="top"/>
  <outline>
    <contour>
      <point x="210" y="-14" type="curve" smooth="yes"/>
      <point x="303" y="-14"/>
      <point x="372" y="7"/>
      <point x="399" y="18" type="curve"/>
      <point x="393" y="139" type="line"/>
      <point x="337" y="119"/>
      <point x="290" y="107"/>
      <point x="238" y="107" type="curve" smooth="yes"/>
      <point x="187" y="107"/>
      <point x="170" y="114"/>
      <point x="170" y="138" type="curve" smooth="yes"/>
      <point x="170" y="182"/>
      <point x="249" y="193"/>
      <point x="327" y="223" type="curve" smooth="yes"/>
      <point x="402" y="253"/>
      <point x="476" y="301"/>
      <point x="476" y="417" type="curve" smooth="yes"/>
      <point x="476" y="493"/>
      <point x="415" y="540"/>
      <point x="304" y="540" type="curve" smooth="yes"/>
      <point x="240" y="540"/>
      <point x="175" y="526"/>
      <point x="136" y="513" type="curve"/>
      <point x="141" y="397" type="line"/>
      <point x="180" y="409"/>
      <point x="213" y="420"/>
      <point x="264" y="420" type="curve" smooth="yes"/>
      <point x="313" y="420"/>
      <point x="326" y="407"/>
      <point x="326" y="388" type="curve" smooth="yes"/>
      <point x="326" y="336"/>
      <point x="247" y="323"/>
      <point x="169" y="295" type="curve" smooth="yes"/>
      <point x="96" y="269"/>
      <point x="24" y="228"/>
      <point x="24" y="125" type="curve" smooth="yes"/>
      <point x="24" y="52"/>
      <point x="82" y="-14"/>
    </contour>
  </outline>
</glyph>
<glyph name="ze-cy" format="2">
  <advance width="482"/>
  <unicode hex="0437"/>
  <anchor x="146" y="0" name="bottom"/>
  <anchor x="272" y="526" name="top"/>
  <outline>
    <contour>
      <point x="156" y="-14" type="curve" smooth="yes"/>
      <point x="283" y="-14"/>
      <point x="415" y="39"/>
      <point x="415" y="170" type="curve" smooth="yes"/>
      <point x="415" y="214"/>
      <point x="392" y="254"/>
      <point x="349" y="275" type="curve"/>
      <point x="413" y="306"/>
      <point x="447" y="360"/>
      <point x="447" y="411" type="curve" smooth="yes"/>
      <point x="447" y="478"/>
      <point x="390" y="538"/>
      <point x="268" y="538" type="curve" smooth="yes"/>
      <point x="212" y="538"/>
      <point x="150" y="528"/>
      <point x="95" y="509" type="curve"/>
      <point x="103" y="396" type="line"/>
      <point x="122" y="402"/>
      <point x="183" y="416"/>
      <point x="232" y="416" type="curve" smooth="yes"/>
      <point x="271" y="416"/>
      <point x="301" y="407"/>
      <point x="301" y="378" type="curve" smooth="yes"/>
      <point x="301" y="347"/>
      <point x="279" y="318"/>
      <point x="223" y="318" type="curve" smooth="yes"/>
      <point x="135" y="318" type="line"/>
      <point x="110" y="212" type="line"/>
      <point x="197" y="212" type="line" smooth="yes"/>
      <point x="236" y="212"/>
      <point x="268" y="204"/>
      <point x="268" y="169" type="curve" smooth="yes"/>
      <point x="268" y="124"/>
      <point x="219" y="108"/>
      <point x="163" y="108" type="curve" smooth="yes"/>
      <point x="112" y="108"/>
      <point x="58" y="121"/>
      <point x="29" y="138" type="curve"/>
      <point x="-15" y="23" type="line"/>
      <point x="30" y="0"/>
      <point x="92" y="-14"/>
    </contour>
  </outline>
</glyph>
<glyph name="ef-cy" format="2">
  <advance width="785"/>
  <unicode hex="0444"/>
  <outline>
    <contour>
      <point x="220" y="-185" type="line"/>
      <point x="361" y="-185" type="line"/>
      <point x="403" y="-11" type="line"/>
      <point x="625" y="-6"/>
      <point x="747" y="152"/>
      <point x="747" y="295" type="curve" smooth="yes"/>
      <point x="747" y="435"/>
      <point x="655" y="507"/>
      <point x="537" y="531" type="curve"/>
      <point x="596" y="776" type="line"/>
      <point x="445" y="751" type="line"/>
      <point x="393" y="537" type="line"/>
      <point x="209" y="521"/>
      <point x="49" y="417"/>
      <point x="49" y="225" type="curve" smooth="yes"/>
      <point x="49" y="108"/>
      <point x="119" y="16"/>
      <point x="262" y="-8" type="curve"/>
    </contour>
    <contour>
      <point x="291" y="106" type="line"/>
      <point x="228" y="119"/>
      <point x="200" y="175"/>
      <point x="200" y="225" type="curve" smooth="yes"/>
      <point x="200" y="324"/>
      <point x="263" y="409"/>
      <point x="366" y="422" type="curve"/>
    </contour>
    <contour>
      <point x="427" y="96" type="curve"/>
      <point x="503" y="412" type="line"/>
      <point x="566" y="399"/>
      <point x="594" y="343"/>
      <point x="594" y="293" type="curve" smooth="yes"/>
      <point x="594" y="191"/>
      <point x="520" y="104"/>
    </contour>
  </outline>
</glyph>
<glyph name="tse-cy" format="2">
  <advance width="601"/>
  <unicode hex="0446"/>
  <outline>
    <contour>
      <point x="361" y="-150" type="line"/>
      <point x="488" y="-150" type="line"/>
      <point x="547" y="80" type="line"/>
      <point x="496" y="88"/>
      <point x="480" y="110"/>
      <point x="480" y="144" type="curve" smooth="yes"/>
      <point x="480" y="166"/>
      <point x="487" y="194"/>
      <point x="495" y="227" type="curve" smooth="yes"/>
      <point x="566" y="526" type="line"/>
      <point x="417" y="526" type="line"/>
      <point x="352" y="253" type="line" smooth="yes"/>
      <point x="345" y="222"/>
      <point x="339" y="183"/>
      <point x="336" y="150" type="curve"/>
      <point x="307" y="122"/>
      <point x="283" y="112"/>
      <point x="252" y="112" type="curve" smooth="yes"/>
      <point x="180" y="112"/>
      <point x="193" y="186"/>
      <point x="206" y="244" type="curve"/>
      <point x="273" y="526" type="line"/>
      <point x="124" y="526" type="line"/>
      <point x="56" y="242" type="line"/>
      <point x="24" y="113"/>
      <point x="59" y="-12"/>
      <point x="215" y="-12" type="curve" smooth="yes"/>
      <point x="272" y="-12"/>
      <point x="319" y="11"/>
      <point x="362" y="46" type="curve"/>
      <point x="369" y="31"/>
      <point x="381" y="17"/>
      <point x="400" y="9" type="curve"/>
    </contour>
  </outline>
</glyph>
<glyph name="shcha-cy" format="2">
  <advance width="883"/>
  <unicode hex="0449"/>
  <outline>
    <contour>
      <point x="644" y="-150" type="line"/>
      <point x="770" y="-150" type="line"/>
      <point x="829" y="80" type="line"/>
      <point x="778" y="88"/>
      <point x="762" y="108"/>
      <point x="762" y="143" type="curve" smooth="yes"/>
      <point x="762" y="166"/>
      <point x="772" y="208"/>
      <point x="777" y="229" type="curve" smooth="yes"/>
      <point x="847" y="526" type="line"/>
      <point x="698" y="526" type="line"/>
      <point x="631" y="246" type="line" smooth="yes"/>
      <point x="623" y="215"/>
      <point x="617" y="157"/>
      <point x="617" y="149" type="curve"/>
      <point x="594" y="126"/>
      <point x="568" y="114"/>
      <point x="547" y="114" type="curve" smooth="yes"/>
      <point x="496" y="114"/>
      <point x="484" y="145"/>
      <point x="484" y="182" type="curve" smooth="yes"/>
      <point x="484" y="205"/>
      <point x="489" y="229"/>
      <point x="494" y="248" type="curve" smooth="yes"/>
      <point x="560" y="526" type="line"/>
      <point x="411" y="526" type="line"/>
      <point x="343" y="242" type="line" smooth="yes"/>
      <point x="336" y="215"/>
      <point x="332" y="188"/>
      <point x="333" y="164" type="curve" smooth="yes"/>
      <point x="333" y="156"/>
      <point x="332" y="147"/>
      <point x="335" y="136" type="curve"/>
      <point x="315" y="125"/>
      <point x="289" y="113"/>
      <point x="261" y="113" type="curve" smooth="yes"/>
      <point x="210" y="113"/>
      <point x="197" y="145"/>
      <point x="197" y="182" type="curve" smooth="yes"/>
      <point x="197" y="205"/>
      <point x="202" y="229"/>
      <point x="207" y="248" type="curve" smooth="yes"/>
      <point x="273" y="526" type="line"/>
      <point x="124" y="526" type="line"/>
      <point x="56" y="242" type="line" smooth="yes"/>
      <point x="49" y="215"/>
      <point x="46" y="188"/>
      <point x="46" y="164" type="curve" smooth="yes"/>
      <point x="46" y="59"/>
      <point x="99" y="-12"/>
      <point x="224" y="-12" type="curve" smooth="yes"/>
      <point x="289" y="-12"/>
      <point x="334" y="8"/>
      <point x="383" y="36" type="curve"/>
      <point x="422" y="3"/>
      <point x="463" y="-12"/>
      <point x="504" y="-12" type="curve" smooth="yes"/>
      <point x="561" y="-12"/>
      <point x="602" y="11"/>
      <point x="645" y="46" type="curve"/>
      <point x="652" y="31"/>
      <point x="664" y="17"/>
      <point x="683" y="9" type="curve"/>
    </contour>
  </outline>
</glyph>
<glyph name="ereversed-cy" format="2">
  <advance width="506"/>
  <unicode hex="044D"/>
  <anchor x="276" y="526" name="top"/>
  <outline>
    <contour>
      <point x="152" y="-13" type="curve" smooth="yes"/>
      <point x="314" y="-13"/>
      <point x="469" y="76"/>
      <point x="469" y="331" type="curve" smooth="yes"/>
      <point x="469" y="456"/>
      <point x="392" y="540"/>
      <point x="248" y="540" type="curve" smooth="yes"/>
      <point x="199" y="540"/>
      <point x="147" y="529"/>
      <point x="94" y="506" type="curve"/>
      <point x="102" y="391" type="line"/>
      <point x="139" y="406"/>
      <point x="183" y="418"/>
      <point x="223" y="418" type="curve" smooth="yes"/>
      <point x="281" y="418"/>
      <point x="329" y="393"/>
      <point x="329" y="321" type="curve" smooth="yes"/>
      <point x="329" y="321"/>
      <point x="329" y="320"/>
      <point x="329" y="320" type="curve"/>
      <point x="147" y="320" type="line"/>
      <point x="122" y="213" type="line"/>
      <point x="314" y="213" type="line"/>
      <point x="290" y="142"/>
      <point x="239" y="113"/>
      <point x="164" y="113" type="curve" smooth="yes"/>
      <point x="124" y="113"/>
      <point x="86" y="121"/>
      <point x="38" y="142" type="curve"/>
      <point x="-5" y="22" type="line"/>
      <point x="38" y="-1"/>
      <point x="93" y="-13"/>
    </contour>
  </outline>
</glyph>
<glyph name="dje-cy" format="2">
  <advance width="577"/>
  <unicode hex="0452"/>
  <outline>
    <contour>
      <point x="301" y="-174" type="line"/>
      <point x="321" y="-161"/>
      <point x="339" y="-148"/>
      <point x="355" y="-134" type="curve" smooth="yes"/>
      <point x="442" y="-61"/>
      <point x="473" y="46"/>
      <point x="511" y="219" type="curve" smooth="yes"/>
      <point x="518" y="251"/>
      <point x="521" y="274"/>
      <point x="521" y="295" type="curve" smooth="yes"/>
      <point x="521" y="396"/>
      <point x="463" y="468"/>
      <point x="355" y="468" type="curve" smooth="yes"/>
      <point x="329" y="468"/>
      <point x="300" y="463"/>
      <point x="274" y="458" type="curve"/>
      <point x="301" y="571" type="line"/>
      <point x="443" y="571" type="line"/>
      <point x="466" y="664" type="line"/>
      <point x="323" y="664" type="line"/>
      <point x="350" y="776" type="line"/>
      <point x="195" y="752" type="line"/>
      <point x="174" y="664" type="line"/>
      <point x="112" y="664" type="line"/>
      <point x="89" y="571" type="line"/>
      <point x="151" y="571" type="line"/>
      <point x="15" y="0" type="line"/>
      <point x="164" y="0" type="line"/>
      <point x="245" y="339" type="line"/>
      <point x="263" y="343"/>
      <point x="284" y="346"/>
      <point x="305" y="346" type="curve" smooth="yes"/>
      <point x="356" y="346"/>
      <point x="369" y="314"/>
      <point x="369" y="278" type="curve" smooth="yes"/>
      <point x="369" y="259"/>
      <point x="365" y="238"/>
      <point x="359" y="211" type="curve" smooth="yes"/>
      <point x="327" y="65"/>
      <point x="310" y="12"/>
      <point x="257" y="-46" type="curve" smooth="yes"/>
      <point x="245" y="-59"/>
      <point x="231" y="-72"/>
      <point x="215" y="-86" type="curve"/>
    </contour>
  </outline>
</glyph>
<glyph name="dzhe-cy" format="2">
  <advance width="591"/>
  <unicode hex="045F"/>
  <outline>
    <contour>
      <point x="215" y="-12" type="curve" smooth="yes"/>
      <point x="272" y="-12"/>
      <point x="319" y="11"/>
      <point x="356" y="40" type="curve"/>
      <point x="363" y="21"/>
      <point x="369" y="7"/>
      <point x="377" y="-9" type="curve"/>
      <point x="510" y="10" type="line"/>
      <point x="487" y="69"/>
      <point x="476" y="151"/>
      <point x="495" y="227" type="curve"/>
      <point x="566" y="526" type="line"/>
      <point x="417" y="526" type="line"/>
      <point x="352" y="253" type="line" smooth="yes"/>
      <point x="345" y="222"/>
      <point x="339" y="183"/>
      <point x="336" y="150" type="curve"/>
      <point x="307" y="122"/>
      <point x="283" y="112"/>
      <point x="252" y="112" type="curve" smooth="yes"/>
      <point x="180" y="112"/>
      <point x="193" y="186"/>
      <point x="206" y="244" type="curve"/>
      <point x="273" y="526" type="line"/>
      <point x="124" y="526" type="line"/>
      <point x="56" y="242" type="line"/>
      <point x="24" y="113"/>
      <point x="59" y="-12"/>
    </contour>
    <contour>
      <point x="101" y="-185" type="line"/>
      <point x="227" y="-185" type="line"/>
      <point x="265" y="-42" type="line"/>
      <point x="136" y="-42" type="line"/>
    </contour>
  </outline>
</glyph>
<glyph name="yat-cy" format="2">
  <advance width="845"/>
  <unicode hex="0463"/>
  <outline>
    <contour>
      <point x="520" y="-11" type="curve" smooth="yes"/>
      <point x="711" y="-11"/>
      <point x="800" y="77"/>
      <point x="800" y="189" type="curve" smooth="yes"/>
      <point x="800" y="289"/>
      <point x="737" y="347"/>
      <point x="618" y="347" type="curve" smooth="yes"/>
      <point x="591" y="347"/>
      <point x="561" y="342"/>
      <point x="534" y="338" type="curve"/>
      <point x="535" y="349"/>
      <point x="536" y="357"/>
      <point x="536" y="368" type="curve" smooth="yes"/>
      <point x="536" y="476"/>
      <point x="473" y="538"/>
      <point x="348" y="538" type="curve" smooth="yes"/>
      <point x="243" y="538"/>
      <point x="181" y="518"/>
      <point x="136" y="502" type="curve"/>
      <point x="15" y="0" type="line"/>
      <point x="164" y="0" type="line"/>
      <point x="261" y="407" type="line"/>
      <point x="281" y="411"/>
      <point x="301" y="413"/>
      <point x="320" y="413" type="curve" smooth="yes"/>
      <point x="372" y="413"/>
      <point x="385" y="385"/>
      <point x="385" y="350" type="curve" smooth="yes"/>
      <point x="385" y="331"/>
      <point x="381" y="312"/>
      <point x="377" y="293" type="curve" smooth="yes"/>
      <point x="312" y="16" type="line"/>
      <point x="386" y="-2"/>
      <point x="455" y="-11"/>
    </contour>
    <contour>
      <point x="542" y="104" type="curve" smooth="yes"/>
      <point x="522" y="104"/>
      <point x="502" y="105"/>
      <point x="483" y="108" type="curve"/>
      <point x="511" y="228" type="line"/>
      <point x="526" y="232"/>
      <point x="551" y="235"/>
      <point x="574" y="235" type="curve" smooth="yes"/>
      <point x="631" y="235"/>
      <point x="659" y="216"/>
      <point x="659" y="179" type="curve" smooth="yes"/>
      <point x="659" y="132"/>
      <point x="619" y="104"/>
    </contour>
  </outline>
</glyph>
<glyph name="fita-cy" format="2">
  <advance width="584"/>
  <unicode hex="0473"/>
  <outline>
    <contour>
      <point x="253" y="-14" type="curve" smooth="yes"/>
      <point x="448" y="-14"/>
      <point x="549" y="164"/>
      <point x="549" y="323" type="curve" smooth="yes"/>
      <point x="549" y="450"/>
      <point x="481" y="540"/>
      <point x="341" y="540" type="curve" smooth="yes"/>
      <point x="152" y="540"/>
      <point x="45" y="362"/>
      <point x="45" y="203" type="curve" smooth="yes"/>
      <point x="45" y="76"/>
      <point x="113" y="-14"/>
    </contour>
    <contour>
      <point x="267" y="112" type="curve" smooth="yes"/>
      <point x="211" y="112"/>
      <point x="193" y="151"/>
      <point x="193" y="218" type="curve" smooth="yes"/>
      <point x="193" y="227"/>
      <point x="193" y="236"/>
      <point x="194" y="247" type="curve"/>
      <point x="203" y="250"/>
      <point x="213" y="252"/>
      <point x="224" y="252" type="curve" smooth="yes"/>
      <point x="257" y="252"/>
      <point x="295" y="208"/>
      <point x="340" y="208" type="curve" smooth="yes"/>
      <point x="351" y="208"/>
      <point x="365" y="210"/>
      <point x="384" y="217" type="curve"/>
      <point x="364" y="160"/>
      <point x="324" y="112"/>
    </contour>
    <contour>
      <point x="371" y="280" type="curve" smooth="yes"/>
      <point x="338" y="280"/>
      <point x="300" y="324"/>
      <point x="255" y="324" type="curve" smooth="yes"/>
      <point x="242" y="324"/>
      <point x="227" y="321"/>
      <point x="211" y="314" type="curve"/>
      <point x="232" y="369"/>
      <point x="271" y="414"/>
      <point x="327" y="414" type="curve" smooth="yes"/>
      <point x="383" y="414"/>
      <point x="401" y="375"/>
      <point x="401" y="308" type="curve" smooth="yes"/>
      <point x="401" y="301"/>
      <point x="400" y="293"/>
      <point x="400" y="286" type="curve"/>
      <point x="389" y="282"/>
      <point x="379" y="280"/>
    </contour>
  </outline>
</glyph>
<glyph name="Iishorttail-cy" format="2">
  <advance width="800"/>
  <unicode hex="048A"/>
  <outline>
    <contour>
      <point x="536" y="-189" type="line"/>
      <point x="657" y="-97"/>
      <point x="711" y="4"/>
      <point x="732" y="132" type="curve"/>
      <point x="627" y="132" type="line"/>
      <point x="762" y="693" type="line"/>
      <point x="635" y="693" type="line"/>
      <point x="514" y="586"/>
      <point x="373" y="429"/>
      <point x="242" y="284" type="curve"/>
      <point x="341" y="693" type="line"/>
      <point x="186" y="693" type="line"/>
      <point x="20" y="0" type="line"/>
      <point x="150" y="0" type="line"/>
      <point x="278" y="158"/>
      <point x="397" y="293"/>
      <point x="550" y="454" type="curve"/>
      <point x="441" y="0" type="line"/>
      <point x="543" y="0" type="line"/>
      <point x="520" y="-56"/>
      <point x="484" y="-91"/>
      <point x="453" y="-119" type="curve"/>
    </contour>
    <contour>
      <point x="485" y="758" type="curve" smooth="yes"/>
      <point x="581" y="758"/>
      <point x="649" y="801"/>
      <point x="681" y="894" type="curve"/>
      <point x="587" y="926" type="line"/>
      <point x="563" y="873"/>
      <point x="537" y="858"/>
      <point x="502" y="858" type="curve" smooth="yes"/>
      <point x="469" y="858"/>
      <point x="443" y="876"/>
      <point x="442" y="927" type="curve"/>
      <point x="337" y="901" type="line"/>
      <point x="340" y="810"/>
      <point x="403" y="758"/>
    </contour>
  </outline>
</glyph>
<glyph name="semisoftsign-cy" format="2">
  <advance width="553"/>
  <unicode hex="048D"/>
  <outline>
    <contour>
      <point x="228" y="-11" type="curve" smooth="yes"/>
      <point x="419" y="-11"/>
      <point x="508" y="77"/>
      <point x="508" y="189" type="curve" smooth="yes"/>
      <point x="508" y="289"/>
      <point x="443" y="337"/>
      <point x="324" y="337" type="curve" smooth="yes"/>
      <point x="299" y="337"/>
      <point x="273" y="334"/>
      <point x="244" y="329" type="curve"/>
      <point x="259" y="394" type="line"/>
      <point x="403" y="394" type="line"/>
      <point x="425" y="487" type="line"/>
      <point x="282" y="487" type="line"/>
      <point x="296" y="546" type="line"/>
      <point x="147" y="546" type="line"/>
      <point x="133" y="487" type="line"/>
      <point x="71" y="487" type="line"/>
      <point x="49" y="394" type="line"/>
      <point x="110" y="394" type="line"/>
      <point x="20" y="16" type="line"/>
      <point x="94" y="-2"/>
      <point x="163" y="-11"/>
    </contour>
    <contour>
      <point x="250" y="104" type="curve" smooth="yes"/>
      <point x="230" y="104"/>
      <point x="210" y="105"/>
      <point x="191" y="108" type="curve"/>
      <point x="219" y="228" type="line"/>
      <point x="234" y="232"/>
      <point x="259" y="235"/>
      <point x="282" y="235" type="curve" smooth="yes"/>
      <point x="339" y="235"/>
      <point x="367" y="216"/>
      <point x="367" y="179" type="curve" smooth="yes"/>
      <point x="367" y="132"/>
      <point x="327" y="104"/>
    </contour>
  </outline>
</glyph>
<glyph name="Gemiddlehook-cy" format="2">
  <advance width="680"/>
  <unicode hex="0494"/>
  <outline>
    <contour>
      <point x="241" y="-185" type="curve" smooth="yes"/>
      <point x="462" y="-185"/>
      <point x="595" y="-14"/>
      <point x="595" y="207" type="curve" smooth="yes"/>
      <point x="595" y="366"/>
      <point x="527" y="447"/>
      <point x="371" y="447" type="curve" smooth="yes"/>
      <point x="342" y="447"/>
      <point x="311" y="444"/>
      <point x="280" y="437" type="curve"/>
      <point x="310" y="561" type="line"/>
      <point x="603" y="561" type="line"/>
      <point x="635" y="693" type="line"/>
      <point x="186" y="693" type="line"/>
      <point x="20" y="0" type="line"/>
      <point x="176" y="0" type="line"/>
      <point x="250" y="312" type="line"/>
      <point x="271" y="315"/>
      <point x="292" y="317"/>
      <point x="311" y="317" type="curve" smooth="yes"/>
      <point x="388" y="317"/>
      <point x="444" y="287"/>
      <point x="444" y="183" type="curve" smooth="yes"/>
      <point x="444" y="49"/>
      <point x="364" y="-66"/>
      <point x="233" y="-66" type="curve" smooth="yes"/>
      <point x="220" y="-66"/>
      <point x="207" y="-65"/>
      <point x="192" y="-62" type="curve"/>
      <point x="161" y="-178" type="line"/>
      <point x="188" y="-183"/>
      <point x="214" y="-185"/>
    </contour>
  </outline>
</glyph>
<glyph name="gemiddlehook-cy" format="2">
  <advance width="564"/>
  <unicode hex="0495"/>
  <outline>
    <contour>
      <point x="210" y="-186" type="curve" smooth="yes"/>
      <point x="421" y="-186"/>
      <point x="499" y="-17"/>
      <point x="499" y="127" type="curve" smooth="yes"/>
      <point x="499" y="235"/>
      <point x="447" y="327"/>
      <point x="315" y="327" type="curve" smooth="yes"/>
      <point x="291" y="327"/>
      <point x="267" y="324"/>
      <point x="240" y="319" type="curve"/>
      <point x="261" y="404" type="line"/>
      <point x="470" y="404" type="line"/>
      <point x="499" y="526" type="line"/>
      <point x="141" y="526" type="line"/>
      <point x="15" y="0" type="line"/>
      <point x="164" y="0" type="line"/>
      <point x="213" y="206" type="line"/>
      <point x="231" y="210"/>
      <point x="249" y="212"/>
      <point x="267" y="212" type="curve" smooth="yes"/>
      <point x="318" y="212"/>
      <point x="361" y="190"/>
      <point x="361" y="119" type="curve" smooth="yes"/>
      <point x="361" y="15"/>
      <point x="320" y="-74"/>
      <point x="207" y="-74" type="curve" smooth="yes"/>
      <point x="196" y="-74"/>
      <point x="184" y="-73"/>
      <point x="171" y="-71" type="curve"/>
      <point x="140" y="-176" type="line"/>
      <point x="162" y="-183"/>
      <point x="185" y="-186"/>
    </contour>
  </outline>
</glyph>
<glyph name="Zhedescender-cy" format="2">
  <advance width="1041"/>
  <unicode hex="0496"/>
  <outline>
    <contour>
      <point x="760" y="-185" type="line"/>
      <point x="910" y="-185" type="line"/>
      <point x="986" y="132" type="line"/>
      <point x="875" y="132" type="line"/>
      <point x="836" y="213"/>
      <point x="790" y="286"/>
      <point x="737" y="353" type="curve"/>
      <point x="855" y="466"/>
      <point x="973" y="580"/>
      <point x="1091" y="693" type="curve"/>
      <point x="904" y="693" type="line"/>
      <point x="810" y="600"/>
      <point x="715" y="508"/>
      <point x="621" y="415" type="curve"/>
      <point x="688" y="693" type="line"/>
      <point x="536" y="693" type="line"/>
      <point x="469" y="415" type="line"/>
      <point x="423" y="508"/>
      <point x="376" y="600"/>
      <point x="330" y="693" type="curve"/>
      <point x="142" y="693" type="line"/>
      <point x="205" y="587"/>
      <point x="269" y="482"/>
      <point x="332" y="376" type="curve"/>
      <point x="212" y="288"/>
      <point x="88" y="147"/>
      <point x="-25" y="0" type="curve"/>
      <point x="147" y="0" type="line"/>
      <point x="249" y="124"/>
      <point x="320" y="199"/>
      <point x="444" y="310" type="curve"/>
      <point x="369" y="0" type="line"/>
      <point x="521" y="0" type="line"/>
      <point x="596" y="310" type="line"/>
      <point x="663" y="208"/>
      <point x="702" y="134"/>
      <point x="753" y="0" type="curve"/>
      <point x="805" y="0" type="line"/>
    </contour>
  </outline>
</glyph>
<glyph name="zedescender-cy" format="2">
  <advance width="482"/>
  <unicode hex="0499"/>
  <outline>
    <contour>
      <point x="113" y="-221" type="curve" smooth="yes"/>
      <point x="183" y="-221"/>
      <point x="251" y="-189"/>
      <point x="251" y="-111" type="curve" smooth="yes"/>
      <point x="251" y="-84"/>
      <point x="236" y="-59"/>
      <point x="207" y="-44" type="curve"/>
      <point x="215" y="-32"/>
      <point x="224" y="-19"/>
      <point x="232" y="-7" type="curve"/>
      <point x="330" y="9"/>
      <point x="415" y="66"/>
      <point x="415" y="170" type="curve" smooth="yes"/>
      <point x="415" y="214"/>
      <point x="392" y="254"/>
      <point x="349" y="275" type="curve"/>
      <point x="413" y="306"/>
      <point x="447" y="360"/>
      <point x="447" y="411" type="curve" smooth="yes"/>
      <point x="447" y="478"/>
      <point x="390" y="538"/>
      <point x="268" y="538" type="curve" smooth="yes"/>
      <point x="212" y="538"/>
      <point x="150" y="528"/>
      <point x="95" y="509" type="curve"/>
      <point x="103" y="396" type="line"/>
      <point x="122" y="402"/>
      <point x="183" y="416"/>
      <point x="232" y="416" type="curve" smooth="yes"/>
      <point x="271" y="416"/>
      <point x="301" y="407"/>
      <point x="301" y="378" type="curve" smooth="yes"/>
      <point x="301" y="347"/>
      <point x="279" y="318"/>
      <point x="223" y="318" type="curve" smooth="yes"/>
      <point x="135" y="318" type="line"/>
      <point x="110" y="212" type="line"/>
      <point x="197" y="212" type="line" smooth="yes"/>
      <point x="236" y="212"/>
      <point x="268" y="204"/>
      <point x="268" y="169" type="curve" smooth="yes"/>
      <point x="268" y="124"/>
      <point x="219" y="108"/>
      <point x="163" y="108" type="curve" smooth="yes"/>
      <point x="112" y="108"/>
      <point x="58" y="121"/>
      <point x="29" y="138" type="curve"/>
      <point x="-15" y="23" type="line"/>
      <point x="24" y="2"/>
      <point x="77" y="-10"/>
      <point x="133" y="-13" type="curve"/>
      <point x="121" y="-32"/>
      <point x="107" y="-50"/>
      <point x="99" y="-65" type="curve"/>
      <point x="140" y="-81"/>
      <point x="149" y="-91"/>
      <point x="149" y="-106" type="curve" smooth="yes"/>
      <point x="149" y="-122"/>
      <point x="136" y="-130"/>
      <point x="109" y="-130" type="curve" smooth="yes"/>
      <point x="89" y="-130"/>
      <point x="65" y="-124"/>
      <point x="48" y="-116" type="curve"/>
      <point x="12" y="-198" type="line"/>
      <point x="40" y="-213"/>
      <point x="77" y="-221"/>
    </contour>
  </outline>
</glyph>
<glyph name="kaverticalstroke-cy" format="2">
  <advance width="671"/>
  <unicode hex="049D"/>
  <outline>
    <contour>
      <point x="15" y="0" type="line"/>
      <point x="163" y="0" type="line"/>
      <point x="220" y="234" type="line"/>
      <point x="258" y="234" type="line"/>
      <point x="230" y="116" type="line"/>
      <point x="307" y="116" type="line"/>
      <point x="335" y="234" type="line"/>
      <point x="382" y="172"/>
      <point x="420" y="71"/>
      <point x="444" y="0" type="curve"/>
      <point x="608" y="0" type="line"/>
      <point x="579" y="90"/>
      <point x="526" y="203"/>
      <point x="470" y="273" type="curve"/>
      <point x="567" y="357"/>
      <point x="649" y="442"/>
      <point x="724" y="526" type="curve"/>
      <point x="554" y="526" type="line"/>
      <point x="493" y="457"/>
      <point x="429" y="388"/>
      <point x="356" y="319" type="curve"/>
      <point x="385" y="439" type="line"/>
      <point x="308" y="439" type="line"/>
      <point x="279" y="319" type="line"/>
      <point x="240" y="319" type="line"/>
      <point x="290" y="526" type="line"/>
      <point x="141" y="526" type="line"/>
    </contour>
  </outline>
</glyph>
<glyph name="Pemiddlehook-cy" format="2">
  <advance width="1071"/>
  <unicode hex="04A6"/>
  <outline>
    <contour>
      <point x="662" y="-185" type="curve" smooth="yes"/>
      <point x="883" y="-185"/>
      <point x="1016" y="-14"/>
      <point x="1016" y="207" type="curve" smooth="yes"/>
      <point x="1016" y="366"/>
      <point x="948" y="447"/>
      <point x="792" y="447" type="curve" smooth="yes"/>
      <point x="755" y="447"/>
      <point x="716" y="442"/>
      <point x="673" y="431" type="curve"/>
      <point x="736" y="693" type="line"/>
      <point x="186" y="693" type="line"/>
      <point x="20" y="0" type="line"/>
      <point x="175" y="0" type="line"/>
      <point x="310" y="561" type="line"/>
      <point x="548" y="561" type="line"/>
      <point x="413" y="0" type="line"/>
      <point x="569" y="0" type="line"/>
      <point x="643" y="308" type="line"/>
      <point x="674" y="314"/>
      <point x="703" y="317"/>
      <point x="732" y="317" type="curve" smooth="yes"/>
      <point x="809" y="317"/>
      <point x="865" y="287"/>
      <point x="865" y="183" type="curve" smooth="yes"/>
      <point x="865" y="49"/>
      <point x="785" y="-66"/>
      <point x="654" y="-66" type="curve" smooth="yes"/>
      <point x="641" y="-66"/>
      <point x="628" y="-65"/>
      <point x="613" y="-62" type="curve"/>
      <point x="582" y="-178" type="line"/>
      <point x="609" y="-183"/>
      <point x="635" y="-185"/>
    </contour>
  </outline>
</glyph>
<glyph name="pemiddlehook-cy" format="2">
  <advance width="862"/>
  <unicode hex="04A7"/>
  <outline>
    <contour>
      <point x="508" y="-186" type="curve" smooth="yes"/>
      <point x="719" y="-186"/>
      <point x="797" y="-17"/>
      <point x="797" y="127" type="curve" smooth="yes"/>
      <point x="797" y="235"/>
      <point x="745" y="327"/>
      <point x="613" y="327" type="curve" smooth="yes"/>
      <point x="586" y="327"/>
      <point x="559" y="324"/>
      <point x="532" y="317" type="curve"/>
      <point x="532" y="317" type="line"/>
      <point x="535" y="335"/>
      <point x="537" y="353"/>
      <point x="537" y="370" type="curve" smooth="yes"/>
      <point x="537" y="477"/>
      <point x="473" y="538"/>
      <point x="348" y="538" type="curve" smooth="yes"/>
      <point x="242" y="538"/>
      <point x="182" y="516"/>
      <point x="136" y="502" type="curve"/>
      <point x="15" y="0" type="line"/>
      <point x="164" y="0" type="line"/>
      <point x="261" y="407" type="line"/>
      <point x="281" y="411"/>
      <point x="301" y="413"/>
      <point x="320" y="413" type="curve" smooth="yes"/>
      <point x="370" y="413"/>
      <point x="385" y="387"/>
      <point x="385" y="350" type="curve" smooth="yes"/>
      <point x="385" y="329"/>
      <point x="380" y="304"/>
      <point x="374" y="278" type="curve" smooth="yes"/>
      <point x="308" y="0" type="line"/>
      <point x="457" y="0" type="line"/>
      <point x="506" y="205" type="line"/>
      <point x="525" y="209"/>
      <point x="545" y="212"/>
      <point x="565" y="212" type="curve" smooth="yes"/>
      <point x="616" y="212"/>
      <point x="659" y="190"/>
      <point x="659" y="119" type="curve" smooth="yes"/>
      <point x="659" y="15"/>
      <point x="618" y="-74"/>
      <point x="505" y="-74" type="curve" smooth="yes"/>
      <point x="494" y="-74"/>
      <point x="482" y="-73"/>
      <point x="469" y="-71" type="curve"/>
      <point x="438" y="-176" type="line"/>
      <point x="460" y="-183"/>
      <point x="483" y="-186"/>
    </contour>
  </outline>
</glyph>
<glyph name="Haabkhasian-cy" format="2">
  <advance width="831"/>
  <unicode hex="04A8"/>
  <outline>
    <contour>
      <point x="347" y="-12" type="curve" smooth="yes"/>
      <point x="407" y="-12"/>
      <point x="460" y="-4"/>
      <point x="504" y="11" type="curve"/>
      <point x="547" y="-5"/>
      <point x="595" y="-13"/>
      <point x="643" y="-13" type="curve" smooth="yes"/>
      <point x="677" y="-13"/>
      <point x="712" y="-9"/>
      <point x="750" y="0" type="curve"/>
      <point x="775" y="116" type="line"/>
      <point x="737" y="108"/>
      <point x="691" y="104"/>
      <point x="654" y="104" type="curve" smooth="yes"/>
      <point x="654" y="104"/>
      <point x="654" y="104"/>
      <point x="654" y="104" type="curve"/>
      <point x="719" y="167"/>
      <point x="742" y="252"/>
      <point x="742" y="317" type="curve" smooth="yes"/>
      <point x="742" y="422"/>
      <point x="682" y="499"/>
      <point x="558" y="499" type="curve" smooth="yes"/>
      <point x="403" y="499"/>
      <point x="303" y="387"/>
      <point x="303" y="255" type="curve" smooth="yes"/>
      <point x="303" y="193"/>
      <point x="326" y="139"/>
      <point x="360" y="105" type="curve" smooth="yes"/>
      <point x="360" y="105"/>
      <point x="360" y="105"/>
      <point x="360" y="105" type="curve"/>
      <point x="271" y="110"/>
      <point x="221" y="159"/>
      <point x="221" y="263" type="curve" smooth="yes"/>
      <point x="221" y="470"/>
      <point x="336" y="578"/>
      <point x="482" y="578" type="curve" smooth="yes"/>
      <point x="521" y="578"/>
      <point x="561" y="573"/>
      <point x="604" y="558" type="curve"/>
      <point x="660" y="679" type="line"/>
      <point x="600" y="700"/>
      <point x="541" y="710"/>
      <point x="482" y="710" type="curve" smooth="yes"/>
      <point x="232" y="710"/>
      <point x="60" y="544"/>
      <point x="60" y="288" type="curve" smooth="yes"/>
      <point x="60" y="107"/>
      <point x="176" y="-12"/>
    </contour>
    <contour>
      <point x="507" y="136" type="curve"/>
      <point x="469" y="164"/>
      <point x="444" y="205"/>
      <point x="444" y="263" type="curve" smooth="yes"/>
      <point x="444" y="320"/>
      <point x="476" y="365"/>
      <point x="535" y="365" type="curve" smooth="yes"/>
      <point x="577" y="365"/>
      <point x="599" y="334"/>
      <point x="599" y="293" type="curve" smooth="yes"/>
      <point x="599" y="247"/>
      <point x="575" y="177"/>
    </contour>
  </outline>
</glyph>
<glyph name="Tedescender-cy" format="2">
  <advance width="604"/>
  <unicode hex="04AC"/>
  <outline>
    <contour>
      <point x="247" y="-185" type="line"/>
      <point x="397" y="-185" type="line"/>
      <point x="473" y="132" type="line"/>
      <point x="345" y="132" type="line"/>
      <point x="449" y="562" type="line"/>
      <point x="652" y="562" type="line"/>
      <point x="684" y="693" type="line"/>
      <point x="122" y="693" type="line"/>
      <point x="90" y="562" type="line"/>
      <point x="293" y="562" type="line"/>
      <point x="158" y="0" type="line"/>
      <point x="292" y="0" type="line"/>
    </contour>
  </outline>
</glyph>
<glyph name="ustraight-cy" format="2">
  <advance width="528"/>
  <unicode hex="04AF"/>
  <outline>
    <contour>
      <point x="91" y="-185" type="line"/>
      <point x="240" y="-185" type="line"/>
      <point x="293" y="37" type="line"/>
      <point x="357" y="111"/>
      <point x="477" y="265"/>
      <point x="578" y="526" type="curve"/>
      <point x="419" y="526" type="line"/>
      <point x="352" y="333"/>
      <point x="292" y="228"/>
      <point x="252" y="173" type="curve"/>
      <point x="236" y="239"/>
      <point x="229" y="452"/>
      <point x="234" y="526" type="curve"/>
      <point x="75" y="526" type="line"/>
      <point x="83" y="337"/>
      <point x="110" y="181"/>
      <point x="145" y="41" type="curve"/>
    </contour>
  </outline>
</glyph>
